<svg xmlns="http://www.w3.org/2000/svg" xmlns:xlink="http://www.w3.org/1999/xlink" width="90" height="89.118" viewBox="0 0 90 89.118">
  <defs>
    <clipPath id="clip-path">
      <rect id="Rectangle_412527" data-name="Rectangle 412527" width="89" height="45" fill="none"/>
    </clipPath>
  </defs>
  <g id="Group_1220873" data-name="Group 1220873" transform="translate(-2953 7520)">
    <rect id="Rectangle_412498" data-name="Rectangle 412498" width="89" height="89.118" transform="translate(2954 -7520)" fill="none"/>
    <g id="Group_1220863" data-name="Group 1220863" transform="translate(2954 -7514)">
      <g id="Group_1220862" data-name="Group 1220862" clip-path="url(#clip-path)">
        <path id="Path_1242981" data-name="Path 1242981" d="M31.144,40A3.823,3.823,0,0,1,34.7,44.041v20.2a3.823,3.823,0,0,1-3.561,4.041H8V40Z" transform="translate(52.515 -29.346)" fill="#33cbff"/>
        <rect id="Rectangle_412526" data-name="Rectangle 412526" width="14.099" height="29" transform="translate(60.802 11)" fill="#3c8cff"/>
        <path id="Path_1242982" data-name="Path 1242982" d="M38.559,56.1a1.607,1.607,0,0,1,1.6.278A2.116,2.116,0,0,1,40.9,58.02v6.406a4.768,4.768,0,0,1,1.78-.345c2.95,0,5.341,2.713,5.341,6.061S45.632,76.2,42.682,76.2s-5.338-2.71-5.341-6.055V60.823l-3,1.134a1.742,1.742,0,0,1-2.252-1.278,2.092,2.092,0,0,1,1.126-2.555Z" transform="translate(33.856 -41.305)" fill="#faf0fa" fill-rule="evenodd"/>
        <path id="Path_1242983" data-name="Path 1242983" d="M275.561,40A3.823,3.823,0,0,0,272,44.041v20.2a3.823,3.823,0,0,0,3.561,4.041H298.7V40Z" transform="translate(-270.234 -29.346)" fill="#ff645a"/>
        <path id="Path_1242984" data-name="Path 1242984" d="M120,12.041V44.366a3.823,3.823,0,0,0,3.561,4.041h28.485a3.823,3.823,0,0,0,3.561-4.041V12.041A3.823,3.823,0,0,0,152.045,8H123.561A3.823,3.823,0,0,0,120,12.041" transform="translate(-93.31 -5.427)" fill="#33cbff"/>
        <path id="Path_1242985" data-name="Path 1242985" d="M230.242,48.406H219.561A3.823,3.823,0,0,1,216,44.366V12.041A3.823,3.823,0,0,1,219.561,8h10.682Z" transform="translate(-189.31 -5.427)" fill="#3c8cff" fill-rule="evenodd"/>
        <path id="Path_1242986" data-name="Path 1242986" d="M120,84.248V92.2a3.823,3.823,0,0,0,3.561,4.041h28.485a3.823,3.823,0,0,0,3.561-4.041V84.122L144.924,72,137.8,84.122l-8.9-8.081Z" transform="translate(-93.31 -53.264)" fill="#82ff5a" fill-rule="evenodd"/>
        <path id="Path_1242987" data-name="Path 1242987" d="M203.561,32A3.823,3.823,0,0,0,200,36.041a3.589,3.589,0,1,0,7.121,0A3.823,3.823,0,0,0,203.561,32" transform="translate(-162.628 -23.366)" fill="#ffe600"/>
        <path id="Path_1242988" data-name="Path 1242988" d="M219.561,40.081A3.823,3.823,0,0,1,216,36.041,3.823,3.823,0,0,1,219.561,32Z" transform="translate(-178.628 -23.366)" fill="#ffbe00" fill-rule="evenodd"/>
        <path id="Path_1242989" data-name="Path 1242989" d="M230.242,108.2H219.561A3.823,3.823,0,0,1,216,104.163V96.208L224.9,88l5.341,4.849Z" transform="translate(-189.31 -65.224)" fill="#07e664" fill-rule="evenodd"/>
        <path id="Path_1242990" data-name="Path 1242990" d="M348.462,68.284h-8.9A3.823,3.823,0,0,1,336,64.244v-20.2A3.823,3.823,0,0,1,339.561,40h8.9Z" transform="translate(-334.234 -29.346)" fill="#ff3053" fill-rule="evenodd"/>
        <path id="Path_1242991" data-name="Path 1242991" d="M320,75.286l10.682,7v-14Z" transform="translate(-312.893 -50.489)" fill="#faf0fa"/>
        <path id="Path_1242992" data-name="Path 1242992" d="M343.121,86.857,336,82.191l7.121-4.666Z" transform="translate(-328.893 -57.394)" fill="#e1e6f5" fill-rule="evenodd"/>
        <path id="Path_1242993" data-name="Path 1242993" d="M312,69.306a2.084,2.084,0,0,0,.89,1.75l10.682,7a1.6,1.6,0,0,0,1.78,0,2.084,2.084,0,0,0,.89-1.75v-14a2.084,2.084,0,0,0-.89-1.75,1.6,1.6,0,0,0-1.78,0l-10.682,7A2.084,2.084,0,0,0,312,69.306Zm10.682-3.5v7l-5.341-3.5Z" transform="translate(-306.673 -44.51)" fill-rule="evenodd"/>
        <path id="Path_1242994" data-name="Path 1242994" d="M30.265,0c-2.95,0-5.341,2.714-5.341,6.061v2.02H5.341C2.391,8.081,0,10.795,0,14.142v20.2c0,3.347,2.391,6.061,5.341,6.061H25.228a5.435,5.435,0,0,0,5.037,4.041H58.749a5.435,5.435,0,0,0,5.037-4.041H83.673c2.95,0,5.341-2.714,5.341-6.061v-20.2c0-3.347-2.391-6.061-5.341-6.061H64.09V6.061C64.09,2.714,61.7,0,58.749,0Zm-1.78,38.392V34.075a1.822,1.822,0,0,0,.3-.248L36.6,25.841l6.023,5.075a1.641,1.641,0,0,0,2.457-.367l5.716-8.19L60.53,35.1v3.287a1.912,1.912,0,0,1-1.78,2.02H30.265a1.911,1.911,0,0,1-1.78-2.015m0-28.3V28.7l6.82-6.966a1.621,1.621,0,0,1,2.252-.12l5.807,4.893,5.979-8.566a1.716,1.716,0,0,1,1.356-.765,1.7,1.7,0,0,1,1.385.7L60.53,28.929V6.061a1.912,1.912,0,0,0-1.78-2.02H30.265a1.912,1.912,0,0,0-1.78,2.02ZM24.924,36.366H5.341a1.912,1.912,0,0,1-1.78-2.02v-20.2a1.912,1.912,0,0,1,1.78-2.02H24.924ZM64.09,12.122H83.673a1.912,1.912,0,0,1,1.78,2.02v20.2a1.912,1.912,0,0,1-1.78,2.02H64.09Z" transform="translate(-0.014 0.553)" fill-rule="evenodd"/>
        <path id="Path_1242995" data-name="Path 1242995" d="M197.341,28.041a2.037,2.037,0,1,1-1.78,2.02,1.912,1.912,0,0,1,1.78-2.02m5.341,2.02c0-3.347-2.391-6.061-5.341-6.061S192,26.714,192,30.061s2.391,6.061,5.341,6.061,5.341-2.714,5.341-6.061" transform="translate(-156.408 -17.386)" fill-rule="evenodd"/>
        <path id="Path_1242996" data-name="Path 1242996" d="M38.559,56.1a1.608,1.608,0,0,1,1.6.278A2.117,2.117,0,0,1,40.9,58.02v6.406a4.768,4.768,0,0,1,1.78-.345c2.95,0,5.341,2.714,5.341,6.061S45.632,76.2,42.682,76.2s-5.338-2.71-5.341-6.054V60.823l-3,1.134a1.742,1.742,0,0,1-2.252-1.278,2.092,2.092,0,0,1,1.126-2.556ZM40.9,70.142a1.795,1.795,0,1,1,1.78,2.02,1.912,1.912,0,0,1-1.78-2.02" transform="translate(33.856 -41.305)" fill-rule="evenodd"/>
      </g>
    </g>
    <g id="Group_1220866" data-name="Group 1220866" transform="translate(2953 -7480.882)">
      <g id="Group_1220862-2" data-name="Group 1220862" transform="translate(0 0)" clip-path="url(#clip-path)">
        <path id="Path_1242981-2" data-name="Path 1242981" d="M11.561,40A3.823,3.823,0,0,0,8,44.041v20.2a3.823,3.823,0,0,0,3.561,4.041H34.7V40Z" transform="translate(-6.22 -29.346)" fill="#33cbff"/>
        <rect id="Rectangle_412526-2" data-name="Rectangle 412526" width="14.099" height="29" transform="translate(14.099 11)" fill="#3c8cff"/>
        <path id="Path_1242982-2" data-name="Path 1242982" d="M41.464,56.1a1.607,1.607,0,0,0-1.6.278,2.116,2.116,0,0,0-.739,1.639v6.406a4.768,4.768,0,0,0-1.78-.345c-2.95,0-5.341,2.713-5.341,6.061S34.391,76.2,37.341,76.2s5.338-2.71,5.341-6.055V60.823l3,1.134a1.742,1.742,0,0,0,2.252-1.278,2.092,2.092,0,0,0-1.126-2.555Z" transform="translate(-24.879 -41.305)" fill="#faf0fa" fill-rule="evenodd"/>
        <path id="Path_1242983-2" data-name="Path 1242983" d="M295.144,40a3.823,3.823,0,0,1,3.561,4.041v20.2a3.823,3.823,0,0,1-3.561,4.041H272V40Z" transform="translate(-211.47 -29.346)" fill="#ff645a"/>
        <path id="Path_1242984-2" data-name="Path 1242984" d="M155.606,12.041V44.366a3.823,3.823,0,0,1-3.561,4.041H123.561A3.823,3.823,0,0,1,120,44.366V12.041A3.823,3.823,0,0,1,123.561,8h28.485a3.823,3.823,0,0,1,3.561,4.041" transform="translate(-93.296 -5.427)" fill="#33cbff"/>
        <path id="Path_1242985-2" data-name="Path 1242985" d="M216,48.406h10.682a3.823,3.823,0,0,0,3.561-4.041V12.041A3.823,3.823,0,0,0,226.682,8H216Z" transform="translate(-167.932 -5.427)" fill="#3c8cff" fill-rule="evenodd"/>
        <path id="Path_1242986-2" data-name="Path 1242986" d="M155.606,84.248V92.2a3.823,3.823,0,0,1-3.561,4.041H123.561A3.823,3.823,0,0,1,120,92.2V84.122L130.682,72,137.8,84.122l8.9-8.081Z" transform="translate(-93.296 -53.264)" fill="#82ff5a" fill-rule="evenodd"/>
        <path id="Path_1242987-2" data-name="Path 1242987" d="M203.561,32a3.823,3.823,0,0,1,3.561,4.041,3.589,3.589,0,1,1-7.121,0A3.823,3.823,0,0,1,203.561,32" transform="translate(-155.493 -23.366)" fill="#ffe600"/>
        <path id="Path_1242988-2" data-name="Path 1242988" d="M216,40.081a3.823,3.823,0,0,0,3.561-4.041A3.823,3.823,0,0,0,216,32Z" transform="translate(-167.932 -23.366)" fill="#ffbe00" fill-rule="evenodd"/>
        <path id="Path_1242989-2" data-name="Path 1242989" d="M216,108.2h10.682a3.823,3.823,0,0,0,3.561-4.041V96.208L221.341,88,216,92.849Z" transform="translate(-167.932 -65.224)" fill="#07e664" fill-rule="evenodd"/>
        <path id="Path_1242990-2" data-name="Path 1242990" d="M336,68.284h8.9a3.823,3.823,0,0,0,3.561-4.041v-20.2A3.823,3.823,0,0,0,344.9,40H336Z" transform="translate(-261.228 -29.346)" fill="#ff3053" fill-rule="evenodd"/>
        <path id="Path_1242991-2" data-name="Path 1242991" d="M330.682,75.286l-10.682,7v-14Z" transform="translate(-248.789 -50.489)" fill="#faf0fa"/>
        <path id="Path_1242992-2" data-name="Path 1242992" d="M336,86.857l7.121-4.666L336,77.525Z" transform="translate(-261.228 -57.394)" fill="#e1e6f5" fill-rule="evenodd"/>
        <path id="Path_1242993-2" data-name="Path 1242993" d="M326.242,69.306a2.084,2.084,0,0,1-.89,1.75l-10.682,7a1.6,1.6,0,0,1-1.78,0A2.084,2.084,0,0,1,312,76.3v-14a2.084,2.084,0,0,1,.89-1.75,1.6,1.6,0,0,1,1.78,0l10.682,7A2.084,2.084,0,0,1,326.242,69.306Zm-10.682-3.5v7l5.341-3.5Z" transform="translate(-242.569 -44.51)" fill-rule="evenodd"/>
        <path id="Path_1242994-2" data-name="Path 1242994" d="M58.749,0C61.7,0,64.09,2.714,64.09,6.061v2.02H83.673c2.95,0,5.341,2.714,5.341,6.061v20.2c0,3.347-2.391,6.061-5.341,6.061H63.786a5.435,5.435,0,0,1-5.037,4.041H30.265a5.435,5.435,0,0,1-5.037-4.041H5.341C2.391,40.406,0,37.693,0,34.345v-20.2c0-3.347,2.391-6.061,5.341-6.061H24.924V6.061C24.924,2.714,27.315,0,30.265,0Zm1.78,38.392V34.075a1.822,1.822,0,0,1-.3-.248L52.41,25.841l-6.023,5.075a1.641,1.641,0,0,1-2.457-.367l-5.716-8.19L28.485,35.1v3.287a1.912,1.912,0,0,0,1.78,2.02H58.749a1.911,1.911,0,0,0,1.78-2.015m0-28.3V28.7l-6.82-6.966a1.621,1.621,0,0,0-2.252-.12L45.65,26.505l-5.979-8.566a1.716,1.716,0,0,0-1.356-.765,1.7,1.7,0,0,0-1.385.7L28.485,28.929V6.061a1.912,1.912,0,0,1,1.78-2.02H58.749a1.912,1.912,0,0,1,1.78,2.02ZM64.09,36.366H83.673a1.912,1.912,0,0,0,1.78-2.02v-20.2a1.912,1.912,0,0,0-1.78-2.02H64.09ZM24.924,12.122H5.341a1.912,1.912,0,0,0-1.78,2.02v20.2a1.912,1.912,0,0,0,1.78,2.02H24.924Z" transform="translate(0 0.553)" fill-rule="evenodd"/>
        <path id="Path_1242995-2" data-name="Path 1242995" d="M197.341,28.041a2.037,2.037,0,1,0,1.78,2.02,1.912,1.912,0,0,0-1.78-2.02M192,30.061c0-3.347,2.391-6.061,5.341-6.061s5.341,2.714,5.341,6.061-2.391,6.061-5.341,6.061S192,33.408,192,30.061" transform="translate(-149.273 -17.386)" fill-rule="evenodd"/>
        <path id="Path_1242996-2" data-name="Path 1242996" d="M41.464,56.1a1.608,1.608,0,0,0-1.6.278,2.117,2.117,0,0,0-.739,1.639v6.406a4.768,4.768,0,0,0-1.78-.345c-2.95,0-5.341,2.714-5.341,6.061S34.391,76.2,37.341,76.2s5.338-2.71,5.341-6.054V60.823l3,1.134a1.742,1.742,0,0,0,2.252-1.278,2.092,2.092,0,0,0-1.126-2.556ZM39.121,70.142a1.795,1.795,0,1,0-1.78,2.02,1.912,1.912,0,0,0,1.78-2.02" transform="translate(-24.879 -41.305)" fill-rule="evenodd"/>
      </g>
    </g>
  </g>
</svg>
