<svg xmlns="http://www.w3.org/2000/svg" xmlns:xlink="http://www.w3.org/1999/xlink" width="90" height="90" viewBox="0 0 90 90">
  <defs>
    <clipPath id="clip-path">
      <rect id="Rectangle_412530" data-name="Rectangle 412530" width="78.138" height="90" fill="rgba(0,0,0,0)" stroke="#000" stroke-width="3"/>
    </clipPath>
  </defs>
  <g id="Group_1220875" data-name="Group 1220875" transform="translate(-3244 7520)">
    <rect id="Rectangle_412493" data-name="Rectangle 412493" width="90" height="90" transform="translate(3244 -7520)" fill="none"/>
    <g id="Group_1220869" data-name="Group 1220869" transform="translate(3249.931 -7520)">
      <g id="Group_1220868" data-name="Group 1220868" transform="translate(0 0)" clip-path="url(#clip-path)">
        <path id="Path_1243001" data-name="Path 1243001" d="M39.069,3.5C17.526,3.5,0,21.316,0,43.215S17.526,82.93,39.069,82.93,78.138,65.114,78.138,43.215,60.612,3.5,39.069,3.5m0,73.993c-18.593,0-33.721-15.379-33.721-34.279S20.476,8.936,39.069,8.936,72.79,24.315,72.79,43.215,57.661,77.493,39.069,77.493" transform="translate(0 7.07)" fill="#6621ba" stroke="#000" stroke-width="3"/>
        <path id="Path_1243002" data-name="Path 1243002" d="M37.985,14.182a2.674,2.674,0,0,0,3.393-1.7A2.733,2.733,0,0,0,39.7,9.032,26.515,26.515,0,0,0,11.97,15.6,27.877,27.877,0,0,0,4.941,42a2.685,2.685,0,0,0,2.585,2.03,2.651,2.651,0,0,0,.68-.091,2.724,2.724,0,0,0,1.907-3.319A22.354,22.354,0,0,1,15.75,19.446a21.24,21.24,0,0,1,22.235-5.264" transform="translate(8.01 15.274)" fill="#6621ba" stroke="#000" stroke-width="3"/>
        <path id="Path_1243003" data-name="Path 1243003" d="M12.382,5.436h15.1a2.7,2.7,0,0,0,2.674-2.718A2.7,2.7,0,0,0,27.484,0h-15.1A2.7,2.7,0,0,0,9.708,2.718a2.7,2.7,0,0,0,2.674,2.718" transform="translate(19.135 0)" fill="#6621ba" stroke="#000" stroke-width="3"/>
        <path id="Path_1243004" data-name="Path 1243004" d="M36.293,10.125,24.346,22.7a9.754,9.754,0,0,0-11.753,1.833,10.167,10.167,0,0,0,.247,14.195A9.776,9.776,0,0,0,26.8,38.481a10.147,10.147,0,0,0,1.39-12L40.14,13.9a2.75,2.75,0,0,0-.065-3.842,2.642,2.642,0,0,0-3.782.063M22.956,34.706a4.478,4.478,0,0,1-6.4.115,4.659,4.659,0,0,1-.113-6.505,4.48,4.48,0,0,1,6.4-.115,4.659,4.659,0,0,1,.11,6.505" transform="translate(19.369 18.778)" fill="#f98a17" stroke="#000" stroke-width="3"/>
      </g>
    </g>
  </g>
</svg>
