<svg xmlns="http://www.w3.org/2000/svg" xmlns:xlink="http://www.w3.org/1999/xlink" width="90" height="90" viewBox="0 0 90 90">
  <defs>
    <clipPath id="clip-path">
      <rect id="Rectangle_412556" data-name="Rectangle 412556" width="90" height="75.004" fill="none"/>
    </clipPath>
  </defs>
  <g id="Group_1220907" data-name="Group 1220907" transform="translate(-3122 2997)">
    <rect id="Rectangle_412509" data-name="Rectangle 412509" width="90" height="90" transform="translate(3122 -2997)" fill="none"/>
    <g id="Group_1220896" data-name="Group 1220896" transform="translate(3122 -2989.502)">
      <g id="Group_1220895" data-name="Group 1220895" clip-path="url(#clip-path)">
        <path id="Path_1243112" data-name="Path 1243112" d="M52.419,64.286H6.02A5.964,5.964,0,0,1,0,58.394V5.891A5.963,5.963,0,0,1,6.02,0H78.136a5.964,5.964,0,0,1,6.02,5.891v31.55h2.383A3.429,3.429,0,0,1,90,40.826V71.618A3.429,3.429,0,0,1,86.539,75H59.7a3.428,3.428,0,0,1-3.46-3.386V66.711l-3.817-2.425ZM25.325,60.77a3.445,3.445,0,0,1-3.524-2.6h-2.75a1.032,1.032,0,1,1,0-2.064H21.8a3.445,3.445,0,0,1,3.525-2.6,3.445,3.445,0,0,1,3.525,2.6H44.157a1.032,1.032,0,1,1,0,2.064H28.85A3.445,3.445,0,0,1,25.325,60.77Zm0-5.192a1.564,1.564,0,1,0,0,3.128,1.564,1.564,0,1,0,0-3.128M15.167,59.847c-1.5,0-1.055-2.246-1.055-4.377a1.055,1.055,0,0,1,2.109,0C16.222,57.6,16.662,59.847,15.167,59.847Zm-3.446,0c-1.5,0-1.055-2.246-1.055-4.377a1.055,1.055,0,0,1,2.11,0c0,2.132.441,4.377-1.055,4.377m44.516-7.785H13.485A2.793,2.793,0,0,1,10.665,49.3V23.59a2.792,2.792,0,0,1,2.819-2.758H70.671A2.793,2.793,0,0,1,73.49,23.59v13.85h8.557V17.132H2.109V58.395a3.874,3.874,0,0,0,3.91,3.826H49.17a15.95,15.95,0,0,1-2.138-1.359l-.169-.107a1.02,1.02,0,0,1-.456-.646.789.789,0,0,1,.38-1.033c.024-.018.049-.036.076-.053l9.373-5.954V52.062ZM13.485,22.9a.711.711,0,0,0-.71.694V49.3a.712.712,0,0,0,.71.694H56.236V40.739l0-.071v-.034l0-.061,0-.026,0-.052,0-.034.006-.053,0-.027.007-.049.006-.038,0-.012.009-.055,0-.021.012-.062v0l.015-.068,0-.009v-.005l.018-.074v0l.02-.071,0-.01.007-.022c.012-.042.025-.083.04-.124l.012-.035.015-.041.013-.034.016-.041.012-.029.022-.051.008-.018.028-.063,0-.01.023-.049.011-.023,0-.009.033-.064v0l.036-.066,0,0,.034-.061.006-.011.014-.023.025-.041.011-.017.032-.05L56.782,39l.026-.039.009-.013.021-.03.028-.04.018-.024.028-.038.018-.023.039-.049.007-.009.01-.012.042-.051.005-.006.049-.056h0l.05-.055.005-.005h0l.054-.057,0,0,.049-.05.02-.019.034-.033.024-.022.036-.033.02-.018.052-.045h0l.049-.041.02-.016q.061-.049.124-.1l0,0,.061-.044h0c.044-.031.089-.061.135-.089l.014-.008.054-.033.022-.013.043-.025.028-.016.056-.031,0,0,.065-.034.012-.006.056-.027.019-.009.055-.025.016-.007.01,0,.067-.029h0l.071-.028,0,0,.012,0c.046-.018.093-.034.14-.05l.007,0,.054-.017.009,0,.042-.013.044-.013.027-.008.048-.013.043-.011.024-.006.055-.013.007,0,.06-.013.016,0,.068-.013.009,0,.077-.012h0l.085-.012h0l.085-.01h0l.086-.007h0l.086-.006h0l.087,0H71.38V23.59a.71.71,0,0,0-.709-.694H13.485ZM36.055,46.909a3.688,3.688,0,0,1-3.729-3.626V29.623A3.727,3.727,0,0,1,37.9,26.471L49.976,33.3a3.605,3.605,0,0,1,0,6.3L37.9,46.424a3.762,3.762,0,0,1-1.843.485ZM36.03,28.05a1.579,1.579,0,0,0-1.595,1.579V43.281a1.613,1.613,0,0,0,2.409,1.354L48.921,37.81a1.564,1.564,0,0,0,0-2.728L36.843,28.258A1.626,1.626,0,0,0,36.03,28.05ZM83.511,70.507H62.725a1.044,1.044,0,0,1-1.055-1.032V64.332A1.044,1.044,0,0,1,62.725,63.3H83.511a1.044,1.044,0,0,1,1.055,1.032v5.142a1.044,1.044,0,0,1-1.055,1.032M63.78,68.442H82.456V65.365H63.78Zm19.731-8.221c-1.54,0-3.4.339-3.4-1.032s1.864-1.032,3.4-1.032a1.032,1.032,0,1,1,0,2.064m-6.795,0H62.725a1.032,1.032,0,1,1,0-2.064H76.716a1.032,1.032,0,1,1,0,2.064m6.8-5.143H69.52a1.032,1.032,0,1,1,0-2.064H83.511a1.032,1.032,0,1,1,0,2.064m-18.437,0c-1.541,0-3.4.339-3.4-1.032s1.864-1.032,3.4-1.032a1.032,1.032,0,1,1,0,2.064m18.436-5.144c-1.541,0-3.4.339-3.4-1.032s1.864-1.032,3.4-1.032a1.032,1.032,0,1,1,0,2.064m-6.8,0H62.725a1.032,1.032,0,1,1,0-2.064H76.715a1.032,1.032,0,1,1,0,2.064m6.8-5.143H69.52a1.032,1.032,0,1,1,0-2.064H83.511a1.032,1.032,0,1,1,0,2.064m-18.437,0c-1.541,0-3.4.339-3.4-1.032s1.864-1.032,3.4-1.032A1.032,1.032,0,1,1,65.074,44.791ZM83.1,39.505H59.627l-.034,0h0l-.033,0h0l-.033,0h0l-.033,0h0l-.033.006h0l-.032.006h0l-.032.007h0l-.032.008h0l-.032.009h0a1.354,1.354,0,0,0-.629.383h0l-.005.006,0,0,0,0a1.411,1.411,0,0,0-.093.114h0l-.018.026h0l-.018.026h0l-.017.027h0l-.016.027h0l-.016.028h0l-.015.028-.015.029h0l-.014.029-.013.029h0l-.012.03h0l-.012.03-.011.031-.01.031h0l-.009.031-.009.031-.008.031h0l-.007.031h0l-.006.031h0l-.006.032h0l0,.032h0l0,.032h0l0,.033h0l0,.033h0v.033h0v.033h0V53.631a1.029,1.029,0,0,1-.48.866L49.375,59.89l.588.373,3.26,2.071a1.455,1.455,0,0,1,.124.079l4.519,2.871a1.029,1.029,0,0,1,.48.866v5.467a1.336,1.336,0,0,0,1.35,1.321H86.539a1.337,1.337,0,0,0,1.351-1.321V40.826a1.337,1.337,0,0,0-1.351-1.321ZM73.917,12.149H48.229a1.044,1.044,0,0,1-1.055-1.032v-5.1a1.044,1.044,0,0,1,1.055-1.032H73.917a1.044,1.044,0,0,1,1.055,1.032v5.1a1.043,1.043,0,0,1-1.055,1.032M49.285,10.085H72.862V7.045H49.285ZM35.108,13.453a4.947,4.947,0,0,1-4.994-4.887,4.995,4.995,0,0,1,9.987,0,4.947,4.947,0,0,1-4.993,4.887m0-7.71a2.823,2.823,0,1,0,0,5.645,2.823,2.823,0,1,0,0-5.645m-12.54,7.71a4.947,4.947,0,0,1-4.994-4.887,4.995,4.995,0,0,1,9.987,0,4.947,4.947,0,0,1-4.994,4.887m0-7.71a2.823,2.823,0,1,0,0,5.645,2.823,2.823,0,1,0,0-5.645m-12.54,7.71A4.947,4.947,0,0,1,5.035,8.566a4.995,4.995,0,0,1,9.987,0,4.946,4.946,0,0,1-4.994,4.887m0-7.71a2.823,2.823,0,1,0,0,5.645,2.823,2.823,0,1,0,0-5.645M2.109,15.068H82.047V5.891a3.874,3.874,0,0,0-3.909-3.827H6.02a3.874,3.874,0,0,0-3.91,3.827Z" fill="#000002" fill-rule="evenodd"/>
        <path id="Path_1243113" data-name="Path 1243113" d="M198.275,179.605l12.077-6.825a1.564,1.564,0,0,0,0-2.728l-12.078-6.825a1.626,1.626,0,0,0-.813-.208,1.579,1.579,0,0,0-1.595,1.578v13.653A1.614,1.614,0,0,0,198.275,179.605Z" transform="translate(-161.431 -134.97)" fill="#e2e7ff" fill-rule="evenodd"/>
        <path id="Path_1243114" data-name="Path 1243114" d="M92.214,153.459V139.8a3.727,3.727,0,0,1,5.572-3.152l12.077,6.825a3.606,3.606,0,0,1,0,6.3L97.786,156.6a3.765,3.765,0,0,1-1.844.485A3.688,3.688,0,0,1,92.214,153.459Zm-18.842,6.714h42.752V151a3.412,3.412,0,0,1,2.858-3.334l.6-.051h11.683v-13.85a.71.71,0,0,0-.709-.694H73.372a.711.711,0,0,0-.71.694v25.713a.712.712,0,0,0,.71.694Z" transform="translate(-59.887 -110.175)" fill="#ff4155" fill-rule="evenodd"/>
        <path id="Path_1243115" data-name="Path 1243115" d="M20.554,106.027a2.792,2.792,0,0,1,2.819-2.758H80.56a2.793,2.793,0,0,1,2.819,2.758v13.85h8.557V99.569H12v41.263a3.874,3.874,0,0,0,3.91,3.826h43.15a15.961,15.961,0,0,1-2.138-1.359c-.33-.243-.452-.22-.624-.753-.129-.4-.109-.726.456-1.086l9.373-5.954V134.5H23.373a2.793,2.793,0,0,1-2.819-2.759V106.027Zm11.135,32.519a3.683,3.683,0,0,1,7.049,0H54.045a1.032,1.032,0,1,1,0,2.064H38.738a3.446,3.446,0,0,1-3.524,2.6,3.446,3.446,0,0,1-3.524-2.6H28.94a1.032,1.032,0,1,1,0-2.064Zm-6.634,3.737c-1.5,0-1.055-2.246-1.055-4.377a1.055,1.055,0,0,1,2.109,0C26.11,140.038,26.551,142.284,25.056,142.284Zm-3.446,0c-1.5,0-1.055-2.246-1.055-4.377a1.055,1.055,0,0,1,2.11,0c0,2.132.441,4.377-1.055,4.377" transform="translate(-9.889 -82.437)" fill="#e2e7ff" fill-rule="evenodd"/>
        <path id="Path_1243116" data-name="Path 1243116" d="M43.7,39.021a2.823,2.823,0,1,0,0-5.645,2.823,2.823,0,1,0,0,5.645" transform="translate(-33.669 -27.633)" fill="#f6e266" fill-rule="evenodd"/>
        <path id="Path_1243117" data-name="Path 1243117" d="M115.025,33.376a2.823,2.823,0,1,0,0,5.646,2.823,2.823,0,1,0,0-5.646" transform="translate(-92.456 -27.633)" fill="#dd636e" fill-rule="evenodd"/>
        <path id="Path_1243118" data-name="Path 1243118" d="M186.349,33.376a2.823,2.823,0,1,0,0,5.646,2.823,2.823,0,1,0,0-5.646" transform="translate(-151.24 -27.633)" fill="#aad880" fill-rule="evenodd"/>
        <rect id="Rectangle_412554" data-name="Rectangle 412554" width="23.578" height="3.04" transform="translate(49.285 7.045)" fill="#f1f4f6"/>
        <path id="Path_1243119" data-name="Path 1243119" d="M57.064,21.049v-5.1a1.044,1.044,0,0,1,1.055-1.032H83.807a1.044,1.044,0,0,1,1.055,1.032v5.1a1.043,1.043,0,0,1-1.055,1.032H58.119a1.044,1.044,0,0,1-1.055-1.032M45,13.611A4.888,4.888,0,1,1,40,18.5,4.947,4.947,0,0,1,45,13.611M12,25H91.937V15.823A3.874,3.874,0,0,0,88.027,12H15.909A3.874,3.874,0,0,0,12,15.823Zm25.453-6.5a4.995,4.995,0,1,1-4.994-4.887A4.947,4.947,0,0,1,37.452,18.5m-12.54,0a4.995,4.995,0,1,1-4.994-4.887A4.946,4.946,0,0,1,24.912,18.5" transform="translate(-9.889 -9.932)" fill="#4073c8" fill-rule="evenodd"/>
        <path id="Path_1243120" data-name="Path 1243120" d="M289.336,244.588l-8.491,5.393,8.491,5.394a1.029,1.029,0,0,1,.48.866v5.467a1.336,1.336,0,0,0,1.35,1.321h26.843a1.337,1.337,0,0,0,1.351-1.321V230.917a1.337,1.337,0,0,0-1.351-1.321H291.167a1.361,1.361,0,0,0-1,.433l-.1.124-.018.026-.018.026-.017.027-.017.027-.016.028-.03.057-.027.058-.012.03-.033.092-.061.393v12.8A1.029,1.029,0,0,1,289.336,244.588Zm4.859,8.8H314.98a1.044,1.044,0,0,1,1.055,1.032v5.142a1.044,1.044,0,0,1-1.055,1.032H294.195a1.044,1.044,0,0,1-1.055-1.032v-5.142a1.045,1.045,0,0,1,1.055-1.032m20.786-3.079c-1.54,0-3.4.339-3.4-1.032s1.865-1.032,3.4-1.032a1.032,1.032,0,1,1,0,2.064m-6.795,0H294.195a1.032,1.032,0,1,1,0-2.064h13.991a1.032,1.032,0,1,1,0,2.064m6.8-5.143H300.99a1.032,1.032,0,1,1,0-2.064h13.991a1.032,1.032,0,1,1,0,2.064m-18.437,0c-1.541,0-3.4.339-3.4-1.032s1.864-1.032,3.4-1.032a1.032,1.032,0,1,1,0,2.064m18.436-5.144c-1.541,0-3.4.339-3.4-1.032s1.864-1.032,3.4-1.032a1.032,1.032,0,1,1,0,2.064m-6.8,0H294.195a1.032,1.032,0,1,1,0-2.064h13.991a1.032,1.032,0,1,1,0,2.064m6.8-5.143H300.99a1.032,1.032,0,1,1,0-2.064h13.991a1.032,1.032,0,1,1,0,2.064m-18.437,0c-1.541,0-3.4.339-3.4-1.032s1.864-1.032,3.4-1.032A1.032,1.032,0,1,1,296.544,234.882Z" transform="translate(-231.47 -190.091)" fill="#5d536e" fill-rule="evenodd"/>
        <rect id="Rectangle_412555" data-name="Rectangle 412555" width="18.676" height="3.077" transform="translate(63.78 65.364)" fill="#958fa1"/>
        <path id="Path_1243121" data-name="Path 1243121" d="M136.656,326.139a1.564,1.564,0,1,0,0-3.128,1.564,1.564,0,1,0,0,3.128" transform="translate(-111.331 -267.433)" fill="#ff4155" fill-rule="evenodd"/>
      </g>
    </g>
  </g>
</svg>
