<svg xmlns="http://www.w3.org/2000/svg" width="90.119" height="89" viewBox="0 0 90.119 89">
  <g id="Group_1220872" data-name="Group 1220872" transform="translate(-2807.499 7520)">
    <rect id="Rectangle_412529" data-name="Rectangle 412529" width="89" height="89" transform="translate(2808 -7520)" fill="none"/>
    <g id="Group_1220867" data-name="Group 1220867" transform="translate(2808 -7517.331)">
      <path id="Path_1242963" data-name="Path 1242963" d="M175.611,80.424h50.827a5.619,5.619,0,0,1,5.619,5.619v67.666a5.619,5.619,0,0,1-5.619,5.619H175.611a5.619,5.619,0,0,1-5.619-5.619V86.043a5.619,5.619,0,0,1,5.619-5.619" transform="translate(-143.522 -79.857)" fill="#d9e7ea" stroke="#000" stroke-width="1" fill-rule="evenodd"/>
      <path id="Path_1242964" data-name="Path 1242964" d="M224.646,79.2H173.8a5.045,5.045,0,0,0-5.035,5.035v67.683a5.045,5.045,0,0,0,5.035,5.035h50.844a5.045,5.045,0,0,0,5.035-5.035V84.234a5.045,5.045,0,0,0-5.035-5.035M173.8,78.048h50.844a6.1,6.1,0,0,1,4.364,1.821,6.171,6.171,0,0,1,1.821,4.364v67.683a6.1,6.1,0,0,1-1.821,4.364,6.171,6.171,0,0,1-4.364,1.821H173.8a6.1,6.1,0,0,1-4.364-1.821,6.171,6.171,0,0,1-1.821-4.364V84.234a6.1,6.1,0,0,1,1.821-4.364,6.171,6.171,0,0,1,4.364-1.821" transform="translate(-141.714 -78.048)" fill="#454b53" stroke="#000" stroke-width="1"/>
      <rect id="Rectangle_412514" data-name="Rectangle 412514" width="36.994" height="2.801" transform="translate(39.013 11.616)" fill="#f5f5f5" stroke="#000" stroke-width="1"/>
      <path id="Path_1242965" data-name="Path 1242965" d="M257.1,125.5H221.255v1.667H257.1Zm-36.427-1.151h36.994a.572.572,0,0,1,.567.567v2.8a.572.572,0,0,1-.567.567H220.671a.572.572,0,0,1-.567-.567v-2.8a.572.572,0,0,1,.567-.567" transform="translate(-181.675 -113.295)" fill="#454b53" stroke="#000" stroke-width="1"/>
      <rect id="Rectangle_412515" data-name="Rectangle 412515" width="36.994" height="2.801" transform="translate(39.013 25.121)" fill="#f5f5f5" stroke="#000" stroke-width="1"/>
      <path id="Path_1242966" data-name="Path 1242966" d="M257.1,182.015H221.255v1.667H257.1Zm-36.427-1.151h36.994a.572.572,0,0,1,.567.567v2.8a.572.572,0,0,1-.567.567H220.671a.572.572,0,0,1-.567-.567v-2.8a.572.572,0,0,1,.567-.567" transform="translate(-181.675 -156.327)" fill="#454b53" stroke="#000" stroke-width="1"/>
      <rect id="Rectangle_412516" data-name="Rectangle 412516" width="36.994" height="2.801" transform="translate(39.013 38.627)" fill="#f5f5f5" stroke="#000" stroke-width="1"/>
      <path id="Path_1242967" data-name="Path 1242967" d="M257.1,238.607H221.255v1.667H257.1Zm-36.427-1.151h36.994a.572.572,0,0,1,.567.567v2.8a.572.572,0,0,1-.567.567H220.671a.572.572,0,0,1-.567-.567v-2.8a.572.572,0,0,1,.567-.567" transform="translate(-181.675 -199.413)" fill="#454b53" stroke="#000" stroke-width="1"/>
      <rect id="Rectangle_412517" data-name="Rectangle 412517" width="36.994" height="2.801" transform="translate(39.013 52.115)" fill="#f5f5f5" stroke="#000" stroke-width="1"/>
      <path id="Path_1242968" data-name="Path 1242968" d="M257.1,295.2H221.255v1.667H257.1Zm-36.427-1.151h36.994a.572.572,0,0,1,.567.567v2.8a.572.572,0,0,1-.567.567H220.671a.572.572,0,0,1-.567-.567v-2.8a.572.572,0,0,1,.567-.567" transform="translate(-181.675 -242.5)" fill="#454b53" stroke="#000" stroke-width="1"/>
      <rect id="Rectangle_412518" data-name="Rectangle 412518" width="36.994" height="2.801" transform="translate(39.013 65.621)" fill="#f5f5f5" stroke="#000" stroke-width="1"/>
      <path id="Path_1242969" data-name="Path 1242969" d="M257.1,351.719H221.255v1.667H257.1Zm-36.427-1.151h36.994a.572.572,0,0,1,.567.567v2.8a.572.572,0,0,1-.567.567H220.671a.572.572,0,0,1-.567-.567v-2.8a.572.572,0,0,1,.567-.567" transform="translate(-181.675 -285.531)" fill="#454b53" stroke="#000" stroke-width="1"/>
      <path id="Path_1242970" data-name="Path 1242970" d="M77.493,223.2c-2.32,1.89-2.3,5.773.017,8.626l20.6,25.293,10.98,4.88-2.56-11.736L85.93,224.97c-2.32-2.852-6.117-3.643-8.437-1.77" transform="translate(-71.781 -187.787)" fill="#00ceff" stroke="#000" stroke-width="1" fill-rule="evenodd"/>
      <path id="Path_1242971" data-name="Path 1242971" d="M75.385,220.906a.375.375,0,0,1,.086-.069,5.5,5.5,0,0,1,4.657-.979,8.138,8.138,0,0,1,4.553,2.852l20.585,25.259a.524.524,0,0,1,.137.275l2.56,11.736a.58.58,0,0,1-.034.344.574.574,0,0,1-.756.292l-10.945-4.863a.57.57,0,0,1-.241-.172l-20.6-25.293a8.041,8.041,0,0,1-1.873-5.035,5.567,5.567,0,0,1,1.907-4.364Zm.756.859a4.365,4.365,0,0,0-1.512,3.505,6.869,6.869,0,0,0,1.6,4.279c.017.017.034.052.052.069L96.76,254.756l9.829,4.364L104.3,248.605,83.787,223.432a6.954,6.954,0,0,0-3.9-2.457,4.421,4.421,0,0,0-3.746.773Z" transform="translate(-70.067 -185.905)" fill="#454b53" stroke="#000" stroke-width="1"/>
      <rect id="Rectangle_412519" data-name="Rectangle 412519" width="10.848" height="7.341" transform="matrix(0.775, -0.632, 0.632, 0.775, 0.573, 37.681)" fill="#ffa18c" stroke="#000" stroke-width="1"/>
      <path id="Path_1242972" data-name="Path 1242972" d="M67.986,206.243l-7.526,6.134,3.918,4.811,7.526-6.134Zm-8.694,5.619,8.42-6.856a.575.575,0,0,1,.808.086l4.639,5.7a.575.575,0,0,1-.086.808l-8.42,6.856a.575.575,0,0,1-.808-.086l-4.639-5.7a.575.575,0,0,1,.086-.808" transform="translate(-59.078 -174.61)" fill="#454b53" stroke="#000" stroke-width="1"/>
      <path id="Path_1242973" data-name="Path 1242973" d="M177.836,339.768l-8.42,6.856,10.98,4.88Z" transform="translate(-143.084 -277.308)" fill="#ffccbc" stroke="#000" stroke-width="1" fill-rule="evenodd"/>
      <path id="Path_1242974" data-name="Path 1242974" d="M175.694,338.948l-6.976,5.688,9.09,4.038Zm-8.42,5.378,8.385-6.839a.524.524,0,0,1,.275-.137.584.584,0,0,1,.687.447l2.56,11.736a.653.653,0,0,1-.034.361.574.574,0,0,1-.756.292l-10.945-4.863a.569.569,0,0,1-.155-.979Z" transform="translate(-141.304 -275.458)" fill="#454b53" stroke="#000" stroke-width="1"/>
      <path id="Path_1242975" data-name="Path 1242975" d="M204.071,374.112l-2.543,2.079,3.454,1.632Z" transform="translate(-167.533 -303.456)" fill="#f5f5f5" stroke="#000" stroke-width="1" fill-rule="evenodd"/>
      <path id="Path_1242976" data-name="Path 1242976" d="M201.892,373.272l-1.134.928,1.546.739-.4-1.667Zm-2.56.619,2.543-2.079a.925.925,0,0,1,.223-.12.575.575,0,0,1,.687.412l.893,3.677a.523.523,0,0,1-.034.4.563.563,0,0,1-.756.275l-3.437-1.632a.807.807,0,0,1-.206-.155.575.575,0,0,1,.086-.808Z" transform="translate(-165.697 -301.602)" fill="#454b53" stroke="#000" stroke-width="1"/>
      <path id="Path_1242977" data-name="Path 1242977" d="M408.11,87.907a5.045,5.045,0,0,0-5.034-5.035h-1.1a7.394,7.394,0,0,1,.79.67,6.171,6.171,0,0,1,1.821,4.364v67.683a6.1,6.1,0,0,1-1.821,4.364,7.4,7.4,0,0,1-.79.67h1.1a5.045,5.045,0,0,0,5.034-5.035Z" transform="translate(-320.144 -81.72)" fill="#a3aeb1" stroke="#000" stroke-width="1" fill-rule="evenodd"/>
      <rect id="Rectangle_412520" data-name="Rectangle 412520" width="3.522" height="1.65" transform="translate(71.901 12.2)" fill="#b9b9b9" stroke="#000" stroke-width="1"/>
      <rect id="Rectangle_412521" data-name="Rectangle 412521" width="3.522" height="1.667" transform="translate(71.901 25.688)" fill="#b9b9b9" stroke="#000" stroke-width="1"/>
      <rect id="Rectangle_412522" data-name="Rectangle 412522" width="3.522" height="1.667" transform="translate(71.901 39.194)" fill="#b9b9b9" stroke="#000" stroke-width="1"/>
      <rect id="Rectangle_412523" data-name="Rectangle 412523" width="3.522" height="1.65" transform="translate(71.901 52.699)" fill="#b9b9b9" stroke="#000" stroke-width="1"/>
      <rect id="Rectangle_412524" data-name="Rectangle 412524" width="3.522" height="1.667" transform="translate(71.901 66.188)" fill="#b9b9b9" stroke="#000" stroke-width="1"/>
      <path id="Path_1242978" data-name="Path 1242978" d="M94.186,215.411l-1-1.22-.808-1L90.268,210.6l-1.924,1.564.6.722.412.516.43.533.979,1.2a1.59,1.59,0,0,1,.086.137c.155.155.292.326.447.5l.979,1.2L94.1,215.5l.1-.086Z" transform="translate(-81.36 -178.967)" fill="#d38675" stroke="#000" stroke-width="1" fill-rule="evenodd"/>
      <path id="Path_1242979" data-name="Path 1242979" d="M122.063,249.6,109.88,234.638a1.817,1.817,0,0,0-.172-.206L107.784,236l14.279,17.526.567.7.567.7,3.437,4.227a.445.445,0,0,1,.155.292l.5,2.32,2.8-2.285-6.907-8.471-.567-.7-.567-.7Z" transform="translate(-96.161 -197.111)" fill="#04aad3" stroke="#000" stroke-width="1" fill-rule="evenodd"/>
      <path id="Path_1242980" data-name="Path 1242980" d="M195.213,351.03l-1.512-6.942-2.973,2.423,1.048,4.76.189.842,1.254.55Z" transform="translate(-159.31 -280.598)" fill="#e8baab" stroke="#000" stroke-width="1" fill-rule="evenodd"/>
    </g>
  </g>
</svg>
