<svg xmlns="http://www.w3.org/2000/svg" xmlns:xlink="http://www.w3.org/1999/xlink" width="101.247" height="101" viewBox="0 0 101.247 101">
  <defs>
    <clipPath id="clip-path">
      <rect id="Rectangle_412419" data-name="Rectangle 412419" width="101.247" height="100.496" fill="none"/>
    </clipPath>
  </defs>
  <g id="Group_1220827" data-name="Group 1220827" transform="translate(6416.246 7934)">
    <rect id="Rectangle_412416" data-name="Rectangle 412416" width="101" height="101" transform="translate(-6416 -7934)" fill="none"/>
    <g id="Group_1220818" data-name="Group 1220818" transform="translate(-6416.247 -7934)">
      <g id="Group_1220817" data-name="Group 1220817" clip-path="url(#clip-path)">
        <path id="Path_1242757" data-name="Path 1242757" d="M120,73.171,174.7,127.865A38.675,38.675,0,0,0,120,73.171Z" transform="translate(-96.271 -49.614)" fill="#a0e5a5"/>
        <path id="Path_1242758" data-name="Path 1242758" d="M74.046,173.819a38.675,38.675,0,0,0,54.694,0L74.046,119.125A38.675,38.675,0,0,0,74.046,173.819Z" transform="translate(-50.316 -95.568)" fill="#ffee80"/>
        <path id="Path_1242759" data-name="Path 1242759" d="M290.037,54.382H322.43a44.223,44.223,0,0,0-44.223-44.223V42.965" transform="translate(-223.192 -8.15)" fill="#ff7d97"/>
        <path id="Path_1242760" data-name="Path 1242760" d="M43.138,274.412H10.159a44.223,44.223,0,0,0,44.223,44.223V287.14" transform="translate(-8.15 -220.147)" fill="#99ebfa"/>
        <path id="Path_1242761" data-name="Path 1242761" d="M193.021,176.057a16.089,16.089,0,1,1-16.089,16.089,16.089,16.089,0,0,1,16.089-16.089" transform="translate(-141.944 -141.242)" fill="#e7e9ef"/>
        <path id="Path_1242762" data-name="Path 1242762" d="M87.706,13.54A45.929,45.929,0,0,0,55.015,0a2.009,2.009,0,0,0-2.009,2.009v8.26A40.673,40.673,0,0,0,10.419,52.255H2.009A2.009,2.009,0,0,0,0,54.264,45.961,45.961,0,0,0,8.242,80.618c1.476,2.123,4.772-.174,3.3-2.293A41.915,41.915,0,0,1,4.065,56.273H33.792A18.186,18.186,0,0,0,44.223,67.649V96.431a41.949,41.949,0,0,1-21.749-7.267c-2.134-1.456-4.395,1.866-2.264,3.319A45.988,45.988,0,0,0,46.232,100.5a2.009,2.009,0,0,0,2.009-2.009v-7c.968.068,1.934.106,2.9.106A40.444,40.444,0,0,0,79.843,79.672h0A40.509,40.509,0,0,0,91.67,48.24h7.568a2.009,2.009,0,0,0,2.009-2.009A45.928,45.928,0,0,0,87.706,13.54Zm-34.7.75V32.908a18.175,18.175,0,0,0-13.22,3.863L26.61,23.595a36.578,36.578,0,0,1,26.4-9.3M32.979,50.9q0,.682.05,1.352H14.44a36.637,36.637,0,0,1,9.329-25.819L36.944,39.612A18.013,18.013,0,0,0,32.979,50.9ZM37,50.9a14.08,14.08,0,1,1,14.08,14.08A14.1,14.1,0,0,1,37,50.9ZM48.241,87.457V68.777a18.2,18.2,0,0,0,14.127-3.741L75.544,78.211A36.45,36.45,0,0,1,48.241,87.457ZM78.386,75.371,65.21,62.194A18.2,18.2,0,0,0,68.979,48.24H87.644A36.5,36.5,0,0,1,78.386,75.371ZM67.9,44.222A18.191,18.191,0,0,0,57.024,33.81V4.064A42.273,42.273,0,0,1,97.182,44.222Z" transform="translate(0 0.001)"/>
        <path id="Path_1242763" data-name="Path 1242763" d="M66.988,424.092a2.008,2.008,0,1,0,2.624,1.087,2.028,2.028,0,0,0-2.624-1.087" transform="translate(-52.75 -340.108)"/>
      </g>
    </g>
  </g>
</svg>
