<svg xmlns="http://www.w3.org/2000/svg" xmlns:xlink="http://www.w3.org/1999/xlink" width="101" height="101" viewBox="0 0 101 101">
  <defs>
    <clipPath id="clip-path">
      <rect id="Rectangle_412421" data-name="Rectangle 412421" width="101" height="101" fill="none"/>
    </clipPath>
  </defs>
  <g id="Group_1220826" data-name="Group 1220826" transform="translate(6105 7934)">
    <rect id="Rectangle_412415" data-name="Rectangle 412415" width="101" height="101" transform="translate(-6105 -7934)" fill="none"/>
    <g id="Group_1220822" data-name="Group 1220822" transform="translate(-6105 -7934)">
      <g id="Group_1220821" data-name="Group 1220821" clip-path="url(#clip-path)">
        <path id="Path_1242776" data-name="Path 1242776" d="M49.9,19.236a6.53,6.53,0,0,0-9.679,0l-4.335,5.218a2.121,2.121,0,0,1-1.515.757,2.373,2.373,0,0,1-1.6-.631l-2.188-2.188a6.35,6.35,0,0,0-8.922,0L13.5,30.6v9.258a4.221,4.221,0,0,0,4.208,4.208H51.375a4.221,4.221,0,0,0,4.208-4.208v-13.8Z" transform="translate(43.313 54.831)" fill="#6766db"/>
        <path id="Path_1242777" data-name="Path 1242777" d="M36.9,6.236a6.53,6.53,0,0,0-9.679,0l-4.335,5.218a2.121,2.121,0,0,1-1.515.758,2.373,2.373,0,0,1-1.6-.631L17.586,9.392a6.35,6.35,0,0,0-8.922,0L.5,17.6v9.258a4.221,4.221,0,0,0,4.208,4.208H38.375a4.221,4.221,0,0,0,4.208-4.208v-13.8Z" transform="translate(1.604 13.122)" fill="#6766db"/>
        <path id="Path_1242778" data-name="Path 1242778" d="M57.188,6.208H15.1A2.1,2.1,0,0,1,15.1,2H57.188a2.1,2.1,0,0,1,0,4.208" transform="translate(41.708 6.417)" fill="#110638"/>
        <path id="Path_1242779" data-name="Path 1242779" d="M57.188,9.208H15.1A2.1,2.1,0,0,1,15.1,5H57.188a2.1,2.1,0,0,1,0,4.208" transform="translate(41.708 16.042)" fill="#110638"/>
        <path id="Path_1242780" data-name="Path 1242780" d="M57.188,12.208H15.1A2.1,2.1,0,0,1,15.1,8H57.188a2.1,2.1,0,0,1,0,4.208" transform="translate(41.708 25.667)" fill="#110638"/>
        <path id="Path_1242781" data-name="Path 1242781" d="M39.979,46.292H6.313A6.32,6.32,0,0,1,0,39.979V6.313A6.32,6.32,0,0,1,6.313,0H39.979a6.32,6.32,0,0,1,6.313,6.313V39.979a6.32,6.32,0,0,1-6.312,6.313M6.313,4.208a2.11,2.11,0,0,0-2.1,2.1V39.979a2.11,2.11,0,0,0,2.1,2.1H39.979a2.11,2.11,0,0,0,2.1-2.1V6.313a2.11,2.11,0,0,0-2.1-2.1Z" transform="translate(0 0)" fill="#110638"/>
        <path id="Path_1242782" data-name="Path 1242782" d="M44.188,19.208H2.1A2.1,2.1,0,1,1,2.1,15H44.188a2.1,2.1,0,0,1,0,4.208" transform="translate(0 48.125)" fill="#110638"/>
        <path id="Path_1242783" data-name="Path 1242783" d="M44.188,22.208H2.1A2.1,2.1,0,1,1,2.1,18H44.188a2.1,2.1,0,0,1,0,4.208" transform="translate(0 57.75)" fill="#110638"/>
        <path id="Path_1242784" data-name="Path 1242784" d="M44.188,25.208H2.1A2.1,2.1,0,0,1,2.1,21H44.188a2.1,2.1,0,0,1,0,4.208" transform="translate(0 67.375)" fill="#110638"/>
        <path id="Path_1242785" data-name="Path 1242785" d="M52.979,59.292H19.313A6.32,6.32,0,0,1,13,52.979V19.313A6.32,6.32,0,0,1,19.313,13H52.979a6.32,6.32,0,0,1,6.313,6.313V52.979a6.32,6.32,0,0,1-6.312,6.313M19.313,17.208a2.11,2.11,0,0,0-2.1,2.1V52.979a2.11,2.11,0,0,0,2.1,2.1H52.979a2.11,2.11,0,0,0,2.1-2.1V19.313a2.11,2.11,0,0,0-2.1-2.1Z" transform="translate(41.708 41.708)" fill="#110638"/>
      </g>
    </g>
  </g>
</svg>
