<svg xmlns="http://www.w3.org/2000/svg" xmlns:xlink="http://www.w3.org/1999/xlink" width="87.847" height="87.848" viewBox="0 0 87.847 87.848">
  <defs>
    <filter id="Path_874925" x="0" y="0" width="87.847" height="87.848" filterUnits="userSpaceOnUse">
      <feOffset dy="3" input="SourceAlpha"/>
      <feGaussianBlur stdDeviation="3" result="blur"/>
      <feFlood flood-opacity="0.161"/>
      <feComposite operator="in" in2="blur"/>
      <feComposite in="SourceGraphic"/>
    </filter>
  </defs>
  <g id="Group_1220960" data-name="Group 1220960" transform="translate(-276 -6091.407)">
    <g id="Group_1187153" data-name="Group 1187153" transform="translate(285 6097.407)">
      <g id="Group_1182177" data-name="Group 1182177">
        <g id="Group_1181903" data-name="Group 1181903">
          <g id="Group_1181438" data-name="Group 1181438">
            <g id="Group_1111314" data-name="Group 1111314">
              <g transform="matrix(1, 0, 0, 1, -9, -6)" filter="url(#Path_874925)">
                <g id="Path_874925-2" data-name="Path 874925" transform="translate(9 6)" fill="#e6e51d">
                  <path d="M 34.92359161376953 68.84759521484375 C 30.34349250793457 68.84759521484375 25.90093231201172 67.9508056640625 21.71930122375488 66.18212127685547 C 17.67983245849609 64.47356414794922 14.05179119110107 62.02741241455078 10.93599128723145 58.91160202026367 C 7.820181846618652 55.79579544067383 5.374031543731689 52.16776275634766 3.66547155380249 48.1282844543457 C 1.896791577339172 43.94666290283203 1.000001668930054 39.50409317016602 1.000001668930054 34.92399215698242 C 1.000001668930054 30.3434944152832 1.896791577339172 25.90093421936035 3.66547155380249 21.71930313110352 C 5.374031543731689 17.67983436584473 7.820181846618652 14.05179405212402 10.93599128723145 10.93599414825439 C 14.05179119110107 7.820183753967285 17.67983245849609 5.37403392791748 21.71930122375488 3.665473699569702 C 25.90093231201172 1.896793842315674 30.34349250793457 1.000003814697266 34.92359161376953 1.000003814697266 C 39.50369262695312 1.000003814697266 43.94625091552734 1.896793842315674 48.12788009643555 3.665473699569702 C 52.16735076904297 5.37403392791748 55.79539108276367 7.820183753967285 58.91119003295898 10.93599414825439 C 62.02700042724609 14.05179405212402 64.47315216064453 17.67983436584473 66.18170928955078 21.71930313110352 C 67.95039367675781 25.90093421936035 68.84718322753906 30.3434944152832 68.84718322753906 34.9235954284668 C 68.84718322753906 39.50409317016602 67.95039367675781 43.94666290283203 66.18170928955078 48.1282844543457 C 64.47315216064453 52.16776275634766 62.02700042724609 55.79579544067383 58.91119003295898 58.91160202026367 C 55.79539108276367 62.02741241455078 52.16735076904297 64.47356414794922 48.12788009643555 66.18212127685547 C 43.94625091552734 67.9508056640625 39.50369262695312 68.84759521484375 34.92359161376953 68.84759521484375 Z" stroke="none"/>
                  <path d="M 34.92359161376953 1.999992370605469 C 30.47805786132812 1.999992370605469 26.16655731201172 2.870216369628906 22.10886001586914 4.586471557617188 C 18.18857955932617 6.244617462158203 14.66739273071289 8.618804931640625 11.64310455322266 11.64309310913086 C 8.618801116943359 14.66738128662109 6.244613647460938 18.18858337402344 4.586479187011719 22.10886001586914 C 2.870223999023438 26.16656112670898 2 30.47806167602539 2 34.92399215698242 C 2 39.36953735351562 2.870223999023438 43.68103790283203 4.586479187011719 47.73872756958008 C 6.244613647460938 51.65901565551758 8.618801116943359 55.18020629882812 11.64310455322266 58.20449447631836 C 14.66739273071289 61.22878265380859 18.18857955932617 63.60297012329102 22.10886001586914 65.2611083984375 C 26.16655731201172 66.97737121582031 30.47805786132812 67.84757995605469 34.92359161376953 67.84757995605469 C 39.36912536621094 67.84757995605469 43.68062591552734 66.97737121582031 47.73832702636719 65.2611083984375 C 51.65860366821289 63.60297012329102 55.17979049682617 61.22878265380859 58.20407867431641 58.20449447631836 C 61.22837829589844 55.18020629882812 63.60256958007812 51.65901565551758 65.26070404052734 47.73872756958008 C 66.97695922851562 43.68103790283203 67.84718322753906 39.36953735351562 67.84718322753906 34.9235954284668 C 67.84718322753906 30.47806167602539 66.97695922851562 26.16656112670898 65.26070404052734 22.10886001586914 C 63.60256958007812 18.18858337402344 61.22837829589844 14.66738128662109 58.20407867431641 11.64309310913086 C 55.17979049682617 8.618804931640625 51.65860366821289 6.244617462158203 47.73832702636719 4.586471557617188 C 43.68062591552734 2.870216369628906 39.36912536621094 1.999992370605469 34.92359161376953 1.999992370605469 M 34.92359161376953 -7.62939453125e-06 C 54.21135711669922 -7.62939453125e-06 69.84718322753906 15.63582611083984 69.84718322753906 34.9235954284668 L 69.84718322753906 34.92399215698242 C 69.84718322753906 54.21177291870117 54.21135711669922 69.84757995605469 34.92359161376953 69.84757995605469 C 15.63582611083984 69.84757995605469 0 54.21177291870117 0 34.92399215698242 L 0 34.9235954284668 C 0 15.63582611083984 15.63582611083984 -7.62939453125e-06 34.92359161376953 -7.62939453125e-06 Z" stroke="none" fill="#a09f14"/>
                </g>
              </g>
            </g>
          </g>
        </g>
      </g>
    </g>
    <g id="Layer_1" transform="translate(295.335 6105.146)">
      <g id="Group_1200415" data-name="Group 1200415" transform="translate(0 0)">
        <path id="Path_1241440" data-name="Path 1241440" d="M64.168,78.991v25.815H22.86V78.991a1.964,1.964,0,0,1,1.964-1.964H36.859a8.27,8.27,0,0,0,3.385,2.685,8.111,8.111,0,0,0,2.255.611v1.149a1.016,1.016,0,1,0,2.031,0V80.323a8.111,8.111,0,0,0,2.255-.611,8.27,8.27,0,0,0,3.385-2.685H62.2a1.964,1.964,0,0,1,1.964,1.964Z" transform="translate(-18.925 -63.345)" fill="#aeaeae"/>
        <g id="Group_1200414" data-name="Group 1200414" transform="translate(3.935 13.682)">
          <path id="Path_1241441" data-name="Path 1241441" d="M90.755,79.712H88.081a9.665,9.665,0,0,1-2.361-2.685h1.65A8.27,8.27,0,0,0,90.755,79.712Z" transform="translate(-73.372 -77.027)" fill="#868686"/>
          <path id="Path_1241442" data-name="Path 1241442" d="M149.685,77.027a9.682,9.682,0,0,1-2.359,2.685H144.65a8.27,8.27,0,0,0,3.385-2.685Z" transform="translate(-120.725 -77.027)" fill="#868686"/>
          <path id="Path_1241443" data-name="Path 1241443" d="M22.86,211.431H64.168v1.375H22.86Z" transform="translate(-22.86 -185.028)" fill="#868686"/>
        </g>
        <path id="Path_1241444" data-name="Path 1241444" d="M72.468,91.09v21.625a.394.394,0,0,1-.393.393H36.923a.394.394,0,0,1-.393-.393V91.09a.393.393,0,0,1,.393-.393H51.228a8.112,8.112,0,0,0,2.255.611v1.149a1.016,1.016,0,1,0,2.031,0V91.308A8.112,8.112,0,0,0,57.77,90.7H72.075A.393.393,0,0,1,72.468,91.09Z" transform="translate(-29.91 -74.33)" fill="#efbf27"/>
        <path id="Path_1241445" data-name="Path 1241445" d="M109.631,90.7a9.626,9.626,0,0,1-3.556,1.75v.01a2.391,2.391,0,1,1-4.781-.01A9.617,9.617,0,0,1,97.74,90.7h2.674a8.112,8.112,0,0,0,2.255.611v1.149a1.016,1.016,0,0,0,2.031,0V91.308a8.112,8.112,0,0,0,2.255-.611Z" transform="translate(-79.095 -74.33)" fill="#e8a61e"/>
        <path id="Path_1241446" data-name="Path 1241446" d="M82.312,118.625h17.95v13.422H82.312Z" transform="translate(-66.698 -96.771)" fill="#eee"/>
        <path id="Path_1241447" data-name="Path 1241447" d="M97.291,142.094l-3.711,4.22-5.9-6.708-5.366,6.1v3.2h17.95v-3.434Z" transform="translate(-66.698 -113.63)" fill="#13bf6d"/>
        <circle id="Ellipse_12347" data-name="Ellipse 12347" cx="1.749" cy="1.749" r="1.749" transform="translate(24.826 24.155)" fill="#f0c020"/>
        <path id="Path_1241448" data-name="Path 1241448" d="M49.6,223.874H9.262a3.929,3.929,0,0,1-3.929-3.929v-1.117a.393.393,0,0,1,.393-.393H53.134a.393.393,0,0,1,.393.393v1.117A3.929,3.929,0,0,1,49.6,223.874Z" transform="translate(-4.841 -176.974)" fill="#aeaeae"/>
        <path id="Path_1241449" data-name="Path 1241449" d="M102.428,18.153a8.277,8.277,0,0,1-5,7.6,8.112,8.112,0,0,1-2.255.611v1.149a1.016,1.016,0,1,1-2.031,0V26.365a8.112,8.112,0,0,1-2.255-.611,8.275,8.275,0,1,1,11.545-7.6Z" transform="translate(-69.565 -9.386)" fill="#efefef"/>
        <path id="Path_1241450" data-name="Path 1241450" d="M185.406,145.057c-.225-.971-.374-1.613-1.688-2.047a.523.523,0,0,1,0-.992c.791-.261,1.313-.434,1.688-2.047a.523.523,0,0,1,1.018,0c.383,1.65.955,1.806,1.688,2.047a.523.523,0,0,1,0,.992c-.762.252-1.313.434-1.688,2.047a.522.522,0,0,1-1.018,0Z" transform="translate(-147.897 -113.6)"/>
        <path id="Path_1241451" data-name="Path 1241451" d="M193.839,150.953a2.572,2.572,0,0,0-.772.872,2.711,2.711,0,0,0-.819-.866,2.594,2.594,0,0,0,.811-.91A2.668,2.668,0,0,0,193.839,150.953Z" transform="translate(-155.038 -122.022)" fill="#eee"/>
        <path id="Path_1241452" data-name="Path 1241452" d="M46.616,145.057c-.225-.971-.374-1.613-1.688-2.047a.523.523,0,0,1,0-.992c.791-.261,1.313-.434,1.688-2.047a.523.523,0,0,1,1.018,0c.383,1.65.955,1.806,1.688,2.047a.523.523,0,0,1,0,.992c-.762.252-1.313.434-1.688,2.047a.522.522,0,0,1-1.018,0Z" transform="translate(-36.371 -113.6)"/>
        <path id="Path_1241453" data-name="Path 1241453" d="M55.049,150.953a2.571,2.571,0,0,0-.772.872,2.711,2.711,0,0,0-.819-.866,2.6,2.6,0,0,0,.811-.91A2.668,2.668,0,0,0,55.049,150.953Z" transform="translate(-43.512 -122.022)" fill="#eee"/>
        <circle id="Ellipse_12348" data-name="Ellipse 12348" cx="1.537" cy="1.537" r="1.537" transform="translate(19.91 7.111)" fill="#efefef"/>
        <circle id="Ellipse_12349" data-name="Ellipse 12349" cx="1.537" cy="1.537" r="1.537" transform="translate(25.078 3.823)" fill="#efefef"/>
        <circle id="Ellipse_12350" data-name="Ellipse 12350" cx="1.537" cy="1.537" r="1.537" transform="translate(25.078 10.399)" fill="#efefef"/>
        <circle id="Ellipse_12351" data-name="Ellipse 12351" cx="1.537" cy="1.537" r="1.537" transform="translate(19.91 7.111)" fill="#fc5d3d"/>
        <circle id="Ellipse_12352" data-name="Ellipse 12352" cx="1.537" cy="1.537" r="1.537" transform="translate(25.078 3.823)" fill="#efbf27"/>
        <circle id="Ellipse_12353" data-name="Ellipse 12353" cx="1.537" cy="1.537" r="1.537" transform="translate(25.078 10.399)" fill="#72c2e9"/>
        <path id="Path_1241454" data-name="Path 1241454" d="M76.53,193.259H75.94a.491.491,0,1,1,0-.982h.589a.491.491,0,1,1,0,.982Zm-2.554,0H44.521a.491.491,0,1,1,0-.982H73.976a.491.491,0,1,1,0,.982Z" transform="translate(-35.936 -155.955)" fill="#f7e4b0"/>
        <path id="Path_1241455" data-name="Path 1241455" d="M131.189,130.079a2.24,2.24,0,1,0-2.24,2.24A2.243,2.243,0,0,0,131.189,130.079Zm-3.5,0a1.258,1.258,0,1,1,1.258,1.258A1.259,1.259,0,0,1,127.691,130.079Z" transform="translate(-102.374 -104.175)"/>
        <circle id="Ellipse_12354" data-name="Ellipse 12354" cx="0.491" cy="0.491" r="0.491" transform="translate(15.122 24.903)"/>
        <path id="Path_1241456" data-name="Path 1241456" d="M79.81,116.613v1.575a.491.491,0,1,0,.982,0V117.1H97.761v8.2l-2.112-2.4a.507.507,0,0,0-.737,0l-3.343,3.8-5.533-6.289a.507.507,0,0,0-.737,0l-4.507,5.125v-3.417a.491.491,0,0,0-.982,0v7.917a.491.491,0,0,0,.491.491H98.252a.49.49,0,0,0,.491-.491V116.613a.493.493,0,0,0-.491-.493H80.3A.493.493,0,0,0,79.81,116.613Zm.982,10.409,4.876-5.545,5.247,5.965-1.848,2.1H80.792Zm9.583,2.521,4.905-5.577,2.48,2.82v2.758Z" transform="translate(-64.688 -94.758)"/>
        <circle id="Ellipse_12355" data-name="Ellipse 12355" cx="0.491" cy="0.491" r="0.491" transform="translate(3.444 29.516)"/>
        <circle id="Ellipse_12356" data-name="Ellipse 12356" cx="0.491" cy="0.491" r="0.491" transform="translate(40.338 46.408)"/>
        <path id="Path_1241457" data-name="Path 1241457" d="M51.124,48.349h-2.56V23.026a2.459,2.459,0,0,0-2.456-2.456H34.985A8.766,8.766,0,0,0,27.419,7.379h0a8.7,8.7,0,0,0-5.09,1.629.493.493,0,0,0-.114.686.5.5,0,0,0,.686.114v0a7.784,7.784,0,1,1,5.477,14.063.5.5,0,0,0-.432.489h0v1.149a.525.525,0,0,1-1.049,0V24.357a.5.5,0,0,0-.432-.489A7.787,7.787,0,0,1,20.5,12.575a.491.491,0,0,0-.21-.662.5.5,0,0,0-.662.212,8.8,8.8,0,0,0-.974,4.021,8.682,8.682,0,0,0,1.2,4.424H8.729a2.459,2.459,0,0,0-2.456,2.456v12.4a.491.491,0,1,0,.982,0v-12.4a1.478,1.478,0,0,1,1.473-1.473H20.52a9.064,9.064,0,0,0,1.78,1.7H9.843a.885.885,0,0,0-.884.884V45.764a.885.885,0,0,0,.884.884H44.995a.885.885,0,0,0,.884-.884V24.139a.885.885,0,0,0-.884-.884H32.54a9.165,9.165,0,0,0,1.778-1.7H46.108a1.478,1.478,0,0,1,1.473,1.473V48.349H7.256v-9a.491.491,0,0,0-.982,0v9H3.714a.887.887,0,0,0-.884.884v1.116a4.427,4.427,0,0,0,4.42,4.42H41.695a.491.491,0,0,0,0-.982H7.25a3.449,3.449,0,0,1-3.438-3.438V49.332H21.386v1.245a1.475,1.475,0,0,0,1.473,1.473h9.12a1.475,1.475,0,0,0,1.473-1.473V49.332H51.026v1.018a3.449,3.449,0,0,1-3.438,3.438H45.624a.491.491,0,1,0,0,.982h1.964a4.427,4.427,0,0,0,4.42-4.42V49.233A.887.887,0,0,0,51.124,48.349ZM44.9,45.666H9.941V24.237H24.048a8.487,8.487,0,0,0,1.211.4c.24.061.523.12.653.143v.725a1.507,1.507,0,1,0,3.013,0h0v-.724a9.1,9.1,0,0,0,1.865-.545H44.9V45.666ZM32.47,50.577a.492.492,0,0,1-.491.491h-9.12a.492.492,0,0,1-.491-.491V49.332h10.1Z" transform="translate(-2.83 -7.379)"/>
        <path id="Path_1241458" data-name="Path 1241458" d="M93.777,22.117a.491.491,0,0,0,.743.642.494.494,0,0,0-.049-.693A.506.506,0,0,0,93.777,22.117Z" transform="translate(-75.814 -19.089)"/>
        <path id="Path_1241459" data-name="Path 1241459" d="M103.707,27.628a2.027,2.027,0,1,0,1.395,3.5l1.852,1.177a2.037,2.037,0,1,0,.527-.827L105.631,30.3a2,2,0,0,0,0-1.282l1.851-1.179a2.031,2.031,0,1,0-.528-.828L105.1,28.186A2.021,2.021,0,0,0,103.707,27.628Zm0,3.072a1.045,1.045,0,1,1,1.047-1.045A1.05,1.05,0,0,1,103.707,30.7Zm5.168,1.2a1.046,1.046,0,1,1-1.045,1.047A1.05,1.05,0,0,1,108.876,31.9Zm0-6.575a1.046,1.046,0,1,1-1.045,1.045,1.051,1.051,0,0,1,1.045-1.045Z" transform="translate(-82.261 -21.008)"/>
      </g>
    </g>
  </g>
</svg>
