<svg id="Group_1220783" data-name="Group 1220783" xmlns="http://www.w3.org/2000/svg" width="85" height="88.195" viewBox="0 0 85 88.195">
  <path id="Path_113538" data-name="Path 113538" d="M11.671,0c3.343,0,4.994,2.7,6.319,4.862C19.333,7.054,20.243,8.4,21.955,8.4s2.62-1.344,3.96-3.536C27.24,2.7,28.89,0,32.232,0s4.994,2.7,6.319,4.862C39.893,7.054,40.8,8.4,42.513,8.4s2.618-1.344,3.96-3.536C47.8,2.7,49.448,0,52.79,0s4.992,2.7,6.316,4.862C60.448,7.054,61.356,8.4,63.064,8.4s2.617-1.344,3.958-3.536C68.348,2.7,70,0,73.339,0s4.991,2.7,6.316,4.862C81,7.054,81.9,8.4,83.613,8.4a1.4,1.4,0,0,1,0,2.8c-3.34,0-4.991-2.7-6.316-4.863C75.957,4.142,75.047,2.8,73.339,2.8s-2.617,1.344-3.958,3.534C68.055,8.5,66.4,11.2,63.064,11.2S58.074,8.5,56.75,6.334C55.408,4.142,54.5,2.8,52.79,2.8s-2.618,1.344-3.96,3.536C47.5,8.5,45.854,11.2,42.513,11.2S37.52,8.5,36.193,6.334C34.853,4.142,33.944,2.8,32.232,2.8s-2.618,1.344-3.96,3.536C26.948,8.5,25.3,11.2,21.955,11.2s-5-2.7-6.321-4.862C14.291,4.142,13.381,2.8,11.671,2.8S9.05,4.142,7.707,6.334C6.381,8.5,4.729,11.2,1.386,11.2a1.4,1.4,0,0,1,0-2.8C3.1,8.4,4.007,7.054,5.35,4.862,6.676,2.7,8.326,0,11.671,0Z" transform="translate(0 39)" fill="#dddac9"/>
  <path id="Path_126936" data-name="Path 126936" d="M11.671,0c3.343,0,4.994,2.7,6.319,4.862C19.333,7.054,20.243,8.4,21.955,8.4s2.62-1.344,3.96-3.536C27.24,2.7,28.89,0,32.232,0s4.994,2.7,6.319,4.862C39.893,7.054,40.8,8.4,42.513,8.4s2.618-1.344,3.96-3.536C47.8,2.7,49.448,0,52.79,0s4.992,2.7,6.316,4.862C60.448,7.054,61.356,8.4,63.064,8.4s2.617-1.344,3.958-3.536C68.348,2.7,70,0,73.339,0s4.991,2.7,6.316,4.862C81,7.054,81.9,8.4,83.613,8.4a1.4,1.4,0,0,1,0,2.8c-3.34,0-4.991-2.7-6.316-4.863C75.957,4.142,75.047,2.8,73.339,2.8s-2.617,1.344-3.958,3.534C68.055,8.5,66.4,11.2,63.064,11.2S58.074,8.5,56.75,6.334C55.408,4.142,54.5,2.8,52.79,2.8s-2.618,1.344-3.96,3.536C47.5,8.5,45.854,11.2,42.513,11.2S37.52,8.5,36.193,6.334C34.853,4.142,33.944,2.8,32.232,2.8s-2.618,1.344-3.96,3.536C26.948,8.5,25.3,11.2,21.955,11.2s-5-2.7-6.321-4.862C14.291,4.142,13.381,2.8,11.671,2.8S9.05,4.142,7.707,6.334C6.381,8.5,4.729,11.2,1.386,11.2a1.4,1.4,0,0,1,0-2.8C3.1,8.4,4.007,7.054,5.35,4.862,6.676,2.7,8.326,0,11.671,0Z" transform="translate(0 77)" fill="#dddac9"/>
  <path id="Path_126924" data-name="Path 126924" d="M11.671,0c3.343,0,4.994,2.7,6.319,4.862C19.333,7.054,20.243,8.4,21.955,8.4s2.62-1.344,3.96-3.536C27.24,2.7,28.89,0,32.232,0s4.994,2.7,6.319,4.862C39.893,7.054,40.8,8.4,42.513,8.4s2.618-1.344,3.96-3.536C47.8,2.7,49.448,0,52.79,0s4.992,2.7,6.316,4.862C60.448,7.054,61.356,8.4,63.064,8.4s2.617-1.344,3.958-3.536C68.348,2.7,70,0,73.339,0s4.991,2.7,6.316,4.862C81,7.054,81.9,8.4,83.613,8.4a1.4,1.4,0,0,1,0,2.8c-3.34,0-4.991-2.7-6.316-4.863C75.957,4.142,75.047,2.8,73.339,2.8s-2.617,1.344-3.958,3.534C68.055,8.5,66.4,11.2,63.064,11.2S58.074,8.5,56.75,6.334C55.408,4.142,54.5,2.8,52.79,2.8s-2.618,1.344-3.96,3.536C47.5,8.5,45.854,11.2,42.513,11.2S37.52,8.5,36.193,6.334C34.853,4.142,33.944,2.8,32.232,2.8s-2.618,1.344-3.96,3.536C26.948,8.5,25.3,11.2,21.955,11.2s-5-2.7-6.321-4.862C14.291,4.142,13.381,2.8,11.671,2.8S9.05,4.142,7.707,6.334C6.381,8.5,4.729,11.2,1.386,11.2a1.4,1.4,0,0,1,0-2.8C3.1,8.4,4.007,7.054,5.35,4.862,6.676,2.7,8.326,0,11.671,0Z" transform="translate(0 13)" fill="#dddac9"/>
  <path id="Path_126938" data-name="Path 126938" d="M11.671,0c3.343,0,4.994,2.7,6.319,4.862C19.333,7.054,20.243,8.4,21.955,8.4s2.62-1.344,3.96-3.536C27.24,2.7,28.89,0,32.232,0s4.994,2.7,6.319,4.862C39.893,7.054,40.8,8.4,42.513,8.4s2.618-1.344,3.96-3.536C47.8,2.7,49.448,0,52.79,0s4.992,2.7,6.316,4.862C60.448,7.054,61.356,8.4,63.064,8.4s2.617-1.344,3.958-3.536C68.348,2.7,70,0,73.339,0s4.991,2.7,6.316,4.862C81,7.054,81.9,8.4,83.613,8.4a1.4,1.4,0,0,1,0,2.8c-3.34,0-4.991-2.7-6.316-4.863C75.957,4.142,75.047,2.8,73.339,2.8s-2.617,1.344-3.958,3.534C68.055,8.5,66.4,11.2,63.064,11.2S58.074,8.5,56.75,6.334C55.408,4.142,54.5,2.8,52.79,2.8s-2.618,1.344-3.96,3.536C47.5,8.5,45.854,11.2,42.513,11.2S37.52,8.5,36.193,6.334C34.853,4.142,33.944,2.8,32.232,2.8s-2.618,1.344-3.96,3.536C26.948,8.5,25.3,11.2,21.955,11.2s-5-2.7-6.321-4.862C14.291,4.142,13.381,2.8,11.671,2.8S9.05,4.142,7.707,6.334C6.381,8.5,4.729,11.2,1.386,11.2a1.4,1.4,0,0,1,0-2.8C3.1,8.4,4.007,7.054,5.35,4.862,6.676,2.7,8.326,0,11.671,0Z" transform="translate(0 51)" fill="#dddac9"/>
  <path id="Path_113539" data-name="Path 113539" d="M11.671,0c3.343,0,4.994,2.7,6.319,4.862C19.333,7.054,20.243,8.4,21.955,8.4s2.62-1.344,3.96-3.536C27.24,2.7,28.89,0,32.232,0s4.994,2.7,6.319,4.862C39.893,7.054,40.8,8.4,42.513,8.4s2.618-1.344,3.96-3.536C47.8,2.7,49.448,0,52.79,0s4.992,2.7,6.316,4.862C60.448,7.054,61.356,8.4,63.064,8.4s2.617-1.344,3.958-3.536C68.348,2.7,70,0,73.339,0s4.991,2.7,6.316,4.862C81,7.054,81.9,8.4,83.613,8.4a1.4,1.4,0,0,1,0,2.8c-3.34,0-4.991-2.7-6.316-4.863C75.957,4.142,75.047,2.8,73.339,2.8s-2.617,1.344-3.958,3.534C68.055,8.5,66.4,11.2,63.064,11.2S58.074,8.5,56.75,6.334C55.408,4.142,54.5,2.8,52.79,2.8s-2.618,1.344-3.96,3.536C47.5,8.5,45.854,11.2,42.513,11.2S37.52,8.5,36.193,6.334C34.853,4.142,33.944,2.8,32.232,2.8s-2.618,1.344-3.96,3.536C26.948,8.5,25.3,11.2,21.955,11.2s-5-2.7-6.321-4.862C14.291,4.142,13.381,2.8,11.671,2.8S9.05,4.142,7.707,6.334C6.381,8.5,4.729,11.2,1.386,11.2a1.4,1.4,0,0,1,0-2.8C3.1,8.4,4.007,7.054,5.35,4.862,6.676,2.7,8.326,0,11.671,0Z" transform="translate(0 26)" fill="#dddac9"/>
  <path id="Path_126937" data-name="Path 126937" d="M11.671,0c3.343,0,4.994,2.7,6.319,4.862C19.333,7.054,20.243,8.4,21.955,8.4s2.62-1.344,3.96-3.536C27.24,2.7,28.89,0,32.232,0s4.994,2.7,6.319,4.862C39.893,7.054,40.8,8.4,42.513,8.4s2.618-1.344,3.96-3.536C47.8,2.7,49.448,0,52.79,0s4.992,2.7,6.316,4.862C60.448,7.054,61.356,8.4,63.064,8.4s2.617-1.344,3.958-3.536C68.348,2.7,70,0,73.339,0s4.991,2.7,6.316,4.862C81,7.054,81.9,8.4,83.613,8.4a1.4,1.4,0,0,1,0,2.8c-3.34,0-4.991-2.7-6.316-4.863C75.957,4.142,75.047,2.8,73.339,2.8s-2.617,1.344-3.958,3.534C68.055,8.5,66.4,11.2,63.064,11.2S58.074,8.5,56.75,6.334C55.408,4.142,54.5,2.8,52.79,2.8s-2.618,1.344-3.96,3.536C47.5,8.5,45.854,11.2,42.513,11.2S37.52,8.5,36.193,6.334C34.853,4.142,33.944,2.8,32.232,2.8s-2.618,1.344-3.96,3.536C26.948,8.5,25.3,11.2,21.955,11.2s-5-2.7-6.321-4.862C14.291,4.142,13.381,2.8,11.671,2.8S9.05,4.142,7.707,6.334C6.381,8.5,4.729,11.2,1.386,11.2a1.4,1.4,0,0,1,0-2.8C3.1,8.4,4.007,7.054,5.35,4.862,6.676,2.7,8.326,0,11.671,0Z" transform="translate(0 64)" fill="#dddac9"/>
  <path id="Path_126923" data-name="Path 126923" d="M11.671,0c3.343,0,4.994,2.7,6.319,4.862C19.333,7.054,20.243,8.4,21.955,8.4s2.62-1.344,3.96-3.536C27.24,2.7,28.89,0,32.232,0s4.994,2.7,6.319,4.862C39.893,7.054,40.8,8.4,42.513,8.4s2.618-1.344,3.96-3.536C47.8,2.7,49.448,0,52.79,0s4.992,2.7,6.316,4.862C60.448,7.054,61.356,8.4,63.064,8.4s2.617-1.344,3.958-3.536C68.348,2.7,70,0,73.339,0s4.991,2.7,6.316,4.862C81,7.054,81.9,8.4,83.613,8.4a1.4,1.4,0,0,1,0,2.8c-3.34,0-4.991-2.7-6.316-4.863C75.957,4.142,75.047,2.8,73.339,2.8s-2.617,1.344-3.958,3.534C68.055,8.5,66.4,11.2,63.064,11.2S58.074,8.5,56.75,6.334C55.408,4.142,54.5,2.8,52.79,2.8s-2.618,1.344-3.96,3.536C47.5,8.5,45.854,11.2,42.513,11.2S37.52,8.5,36.193,6.334C34.853,4.142,33.944,2.8,32.232,2.8s-2.618,1.344-3.96,3.536C26.948,8.5,25.3,11.2,21.955,11.2s-5-2.7-6.321-4.862C14.291,4.142,13.381,2.8,11.671,2.8S9.05,4.142,7.707,6.334C6.381,8.5,4.729,11.2,1.386,11.2a1.4,1.4,0,0,1,0-2.8C3.1,8.4,4.007,7.054,5.35,4.862,6.676,2.7,8.326,0,11.671,0Z" transform="translate(0 0)" fill="#dddac9"/>
</svg>
