<svg xmlns="http://www.w3.org/2000/svg" width="320.763" height="103.503" viewBox="0 0 320.763 103.503">
  <g id="Group_1220963" data-name="Group 1220963" transform="translate(-324.611 -8513.799)">
    <rect id="Rectangle_412257" data-name="Rectangle 412257" width="172.504" height="103.503" transform="translate(324.622 8513.799)" fill="#fff"/>
    <rect id="Rectangle_412258" data-name="Rectangle 412258" width="172.504" height="33.606" transform="translate(324.611 8525.79)" fill="#9700f9"/>
    <rect id="Rectangle_412259" data-name="Rectangle 412259" width="52.39" height="47.125" transform="translate(329.464 8564.744)" fill="#c6c6c6"/>
    <rect id="Rectangle_412260" data-name="Rectangle 412260" width="51.897" height="21.119" transform="translate(385.038 8564.744)" fill="#c6c6c6"/>
    <rect id="Rectangle_412261" data-name="Rectangle 412261" width="51.897" height="21.119" transform="translate(385.038 8590.75)" fill="#c6c6c6"/>
    <rect id="Rectangle_412262" data-name="Rectangle 412262" width="51.897" height="21.119" transform="translate(440.366 8564.744)" fill="#c6c6c6"/>
    <rect id="Rectangle_412263" data-name="Rectangle 412263" width="51.897" height="21.119" transform="translate(440.366 8590.75)" fill="#c6c6c6"/>
    <rect id="Rectangle_412264" data-name="Rectangle 412264" width="5.42" height="5.42" transform="translate(329.464 8517.161)" fill="#c6c6c6"/>
    <rect id="Rectangle_412265" data-name="Rectangle 412265" width="78.005" height="5.014" transform="translate(414.258 8517.364)" fill="#c6c6c6"/>
    <rect id="Rectangle_412266" data-name="Rectangle 412266" width="71.635" height="102.425" transform="translate(504.118 8514.338)" fill="#fff"/>
    <rect id="Rectangle_412267" data-name="Rectangle 412267" width="71.635" height="22.868" transform="translate(504.118 8524.269)" fill="#9700f9"/>
    <rect id="Rectangle_412268" data-name="Rectangle 412268" width="31.053" height="60.128" transform="translate(507.775 8550.977)" fill="#c6c6c6"/>
    <rect id="Rectangle_412269" data-name="Rectangle 412269" width="30.76" height="21.119" transform="translate(541.385 8550.977)" fill="#c6c6c6"/>
    <rect id="Rectangle_412270" data-name="Rectangle 412270" width="30.76" height="21.119" transform="translate(541.385 8574.539)" fill="#c6c6c6"/>
    <rect id="Rectangle_412271" data-name="Rectangle 412271" width="30.76" height="12.747" transform="translate(541.385 8598.356)" fill="#c6c6c6"/>
    <rect id="Rectangle_412272" data-name="Rectangle 412272" width="4.437" height="4.437" transform="translate(507.32 8517.469)" fill="#c6c6c6"/>
    <rect id="Rectangle_412273" data-name="Rectangle 412273" width="33.703" height="4.437" transform="translate(538.654 8517.469)" fill="#c6c6c6"/>
    <rect id="Rectangle_412274" data-name="Rectangle 412274" width="62.222" height="101.891" transform="translate(583.153 8513.799)" fill="#fff"/>
    <rect id="Rectangle_412275" data-name="Rectangle 412275" width="62.222" height="20.282" transform="translate(583.153 8522.311)" fill="#9700f9"/>
    <rect id="Rectangle_412276" data-name="Rectangle 412276" width="27.44" height="64.733" transform="translate(586.042 8546.18)" fill="#c6c6c6"/>
    <rect id="Rectangle_412277" data-name="Rectangle 412277" width="27.181" height="21.119" transform="translate(615.741 8546.18)" fill="#c6c6c6"/>
    <rect id="Rectangle_412278" data-name="Rectangle 412278" width="27.181" height="21.119" transform="translate(615.741 8569.742)" fill="#c6c6c6"/>
    <rect id="Rectangle_412279" data-name="Rectangle 412279" width="27.181" height="17.352" transform="translate(615.741 8593.561)" fill="#c6c6c6"/>
    <rect id="Rectangle_412280" data-name="Rectangle 412280" width="4.381" height="4.192" transform="translate(585.947 8516.662)" fill="#c6c6c6"/>
    <rect id="Rectangle_412281" data-name="Rectangle 412281" width="29.898" height="4.192" transform="translate(613.08 8516.662)" fill="#c6c6c6"/>
  </g>
</svg>
