<svg xmlns="http://www.w3.org/2000/svg" xmlns:xlink="http://www.w3.org/1999/xlink" width="101" height="101" viewBox="0 0 101 101">
  <defs>
    <clipPath id="clip-path">
      <rect id="Rectangle_412435" data-name="Rectangle 412435" width="101" height="99.438" fill="none"/>
    </clipPath>
  </defs>
  <g id="Group_1220841" data-name="Group 1220841" transform="translate(6106 -1201)">
    <rect id="Rectangle_412425" data-name="Rectangle 412425" width="101" height="101" transform="translate(-6106 1201)" fill="none"/>
    <g id="Group_1220837" data-name="Group 1220837" transform="translate(-6106 1201.54)">
      <g id="Group_1220836" data-name="Group 1220836" clip-path="url(#clip-path)">
        <path id="Path_1242871" data-name="Path 1242871" d="M11.445,7.5H101.6a3.945,3.945,0,0,1,3.945,3.945v88.588a3.945,3.945,0,0,1-3.945,3.945H11.445A3.945,3.945,0,0,1,7.5,100.033V11.445A3.945,3.945,0,0,1,11.445,7.5" transform="translate(-6.021 -6.021)" fill="#fcfffc"/>
        <path id="Path_1242872" data-name="Path 1242872" d="M105.541,21.784V11.445A3.944,3.944,0,0,0,101.6,7.5H11.445A3.944,3.944,0,0,0,7.5,11.445V21.784Z" transform="translate(-6.021 -6.021)" fill="#8379c1"/>
        <path id="Path_1242873" data-name="Path 1242873" d="M50.1,121.86H81.458a2.959,2.959,0,0,1,2.959,2.959v32.048a2.959,2.959,0,0,1-2.959,2.959H50.1a2.959,2.959,0,0,1-2.959-2.959V124.819A2.959,2.959,0,0,1,50.1,121.86" transform="translate(-37.841 -97.821)" fill="#ffd15b"/>
        <path id="Path_1242874" data-name="Path 1242874" d="M278.849,121.86h31.359a2.959,2.959,0,0,1,2.959,2.959v32.048a2.959,2.959,0,0,1-2.959,2.959H278.849a2.959,2.959,0,0,1-2.959-2.959V124.819a2.959,2.959,0,0,1,2.959-2.959" transform="translate(-221.466 -97.821)" fill="#2ed1e2"/>
        <path id="Path_1242875" data-name="Path 1242875" d="M53.669,353.83h75.782a2.959,2.959,0,0,1,2.959,2.959v14.383a2.959,2.959,0,0,1-2.959,2.959H53.669a2.959,2.959,0,0,1-2.959-2.959V356.789a2.959,2.959,0,0,1,2.959-2.959" transform="translate(-40.707 -284.031)" fill="#fe7ab6"/>
        <path id="Path_1242876" data-name="Path 1242876" d="M95.575,0H5.425A5.432,5.432,0,0,0,0,5.425V94.013a5.432,5.432,0,0,0,5.425,5.425h90.15A5.432,5.432,0,0,0,101,94.013V5.425A5.432,5.432,0,0,0,95.575,0M2.959,5.425A2.469,2.469,0,0,1,5.425,2.959h90.15a2.469,2.469,0,0,1,2.466,2.466v8.859H2.959ZM95.575,96.479H5.425a2.469,2.469,0,0,1-2.466-2.466V17.243H98.041v76.77a2.469,2.469,0,0,1-2.466,2.466"/>
        <path id="Path_1242877" data-name="Path 1242877" d="M47.054,36.2H45.939a1.479,1.479,0,1,0,0,2.959h1.115a1.479,1.479,0,0,0,0-2.959" transform="translate(-35.69 -29.059)"/>
        <path id="Path_1242878" data-name="Path 1242878" d="M86.894,36.2H85.779a1.479,1.479,0,0,0,0,2.959h1.115a1.479,1.479,0,0,0,0-2.959" transform="translate(-67.671 -29.059)"/>
        <path id="Path_1242879" data-name="Path 1242879" d="M126.734,36.2h-1.115a1.479,1.479,0,1,0,0,2.959h1.115a1.479,1.479,0,0,0,0-2.959" transform="translate(-99.651 -29.059)"/>
        <path id="Path_1242880" data-name="Path 1242880" d="M44.078,155.287H75.438a4.443,4.443,0,0,0,4.438-4.438V118.8a4.443,4.443,0,0,0-4.438-4.438H44.078A4.443,4.443,0,0,0,39.64,118.8v32.048a4.443,4.443,0,0,0,4.438,4.438ZM42.6,118.8a1.48,1.48,0,0,1,1.479-1.479H75.438a1.48,1.48,0,0,1,1.479,1.479v32.048a1.48,1.48,0,0,1-1.479,1.479H44.078a1.48,1.48,0,0,1-1.479-1.479V118.8Z" transform="translate(-31.82 -91.801)"/>
        <path id="Path_1242881" data-name="Path 1242881" d="M304.188,114.36H272.828a4.443,4.443,0,0,0-4.438,4.438v32.048a4.443,4.443,0,0,0,4.438,4.438h31.359a4.443,4.443,0,0,0,4.438-4.438V118.8a4.443,4.443,0,0,0-4.438-4.438m1.479,36.486a1.48,1.48,0,0,1-1.479,1.479H272.828a1.48,1.48,0,0,1-1.479-1.479V118.8a1.48,1.48,0,0,1,1.479-1.479h31.359a1.48,1.48,0,0,1,1.479,1.479Z" transform="translate(-215.446 -91.801)"/>
        <path id="Path_1242882" data-name="Path 1242882" d="M123.428,346.33H47.648a4.443,4.443,0,0,0-4.438,4.438v14.383a4.443,4.443,0,0,0,4.438,4.438h75.78a4.443,4.443,0,0,0,4.438-4.438V350.768a4.443,4.443,0,0,0-4.438-4.438m1.479,18.821a1.48,1.48,0,0,1-1.479,1.479H47.648a1.48,1.48,0,0,1-1.479-1.479V350.768a1.48,1.48,0,0,1,1.479-1.479h75.78a1.48,1.48,0,0,1,1.479,1.479Z" transform="translate(-34.686 -278.011)"/>
      </g>
    </g>
  </g>
</svg>
