<svg xmlns="http://www.w3.org/2000/svg" xmlns:xlink="http://www.w3.org/1999/xlink" width="101" height="102.095" viewBox="0 0 101 102.095">
  <defs>
    <clipPath id="clip-path">
      <rect id="Rectangle_412432" data-name="Rectangle 412432" width="101" height="100.975" fill="none"/>
    </clipPath>
  </defs>
  <g id="Group_1220839" data-name="Group 1220839" transform="translate(6614 -1201)">
    <rect id="Rectangle_412424" data-name="Rectangle 412424" width="101" height="101" transform="translate(-6614 1201)" fill="none"/>
    <g id="Group_1220833" data-name="Group 1220833" transform="translate(-6614 1202.119)">
      <g id="Group_1220832" data-name="Group 1220832" clip-path="url(#clip-path)">
        <path id="Path_1242828" data-name="Path 1242828" d="M12.887,151.879H87.823a4.887,4.887,0,0,1,4.887,4.887v58.645a4.887,4.887,0,0,1-4.887,4.887H12.887A4.887,4.887,0,0,1,8,215.411V156.766a4.887,4.887,0,0,1,4.887-4.887" transform="translate(-6.371 -120.952)" fill="#686868"/>
        <path id="Path_1242829" data-name="Path 1242829" d="M299.258,423.879A3.258,3.258,0,1,1,296,427.137a3.258,3.258,0,0,1,3.258-3.258" transform="translate(-235.726 -337.565)" fill="#f2f2f2"/>
        <rect id="Rectangle_412429" data-name="Rectangle 412429" width="71.678" height="42.355" transform="translate(8.145 37.443)" fill="#ccc"/>
        <path id="Path_1242830" data-name="Path 1242830" d="M40,183.879v37.468h61.9a4.887,4.887,0,0,0,4.887-4.887V183.879Z" transform="translate(-31.855 -146.436)" fill="#f2f2f2"/>
        <path id="Path_1242831" data-name="Path 1242831" d="M115.258,215.879H146.21a3.258,3.258,0,0,1,3.258,3.258v17.919a3.258,3.258,0,0,1-3.258,3.258H115.258A3.258,3.258,0,0,1,112,237.056V219.137a3.258,3.258,0,0,1,3.258-3.258" transform="translate(-89.194 -171.92)" fill="#fff"/>
        <path id="Path_1242832" data-name="Path 1242832" d="M158.661,215.879A14.661,14.661,0,1,1,144,230.54a14.661,14.661,0,0,1,14.661-14.661" transform="translate(-114.677 -171.92)" fill="#bce4f8"/>
        <path id="Path_1242833" data-name="Path 1242833" d="M158.659,215.879a14.643,14.643,0,0,0-10.906,24.435h14.164a6.516,6.516,0,0,0,6.516-6.516V219.634a14.588,14.588,0,0,0-9.774-3.755" transform="translate(-114.675 -171.92)" fill="#e4f5fd"/>
        <path id="Path_1242834" data-name="Path 1242834" d="M171.258,247.879H179.4a3.258,3.258,0,0,1,3.258,3.258V254.4a3.258,3.258,0,0,1-3.258,3.258h-8.145A3.258,3.258,0,0,1,168,254.4v-3.258a3.258,3.258,0,0,1,3.258-3.258" transform="translate(-133.79 -197.404)" fill="#fff"/>
        <path id="Path_1242835" data-name="Path 1242835" d="M286.806,7.879A22.806,22.806,0,1,1,264,30.685,22.806,22.806,0,0,1,286.806,7.879" transform="translate(-210.242 -6.275)" fill="#bce4f8"/>
        <path id="Path_1242836" data-name="Path 1242836" d="M286.806,7.879a22.8,22.8,0,0,0-17.458,37.468h22.345a9.774,9.774,0,0,0,9.774-9.774V13.227a22.706,22.706,0,0,0-14.661-5.348" transform="translate(-210.241 -6.275)" fill="#e4f5fd"/>
        <rect id="Rectangle_412430" data-name="Rectangle 412430" width="6.516" height="6.516" transform="translate(81.452 13.008)" fill="#3079e6"/>
        <path id="Path_1242837" data-name="Path 1242837" d="M200,247.879v16.29l9.774-8.145Z" transform="translate(-159.274 -197.404)" fill="#2763bb"/>
        <path id="Path_1242838" data-name="Path 1242838" d="M200,263.879v9.774l6.516-4.887Z" transform="translate(-159.274 -210.145)" fill="#3079e6"/>
        <path id="Path_1242839" data-name="Path 1242839" d="M89.016,415.879a4.887,4.887,0,0,0-4.587,3.258H32V422.4H84.429a4.858,4.858,0,0,0,9.175,0h13.332v-3.258H93.6a4.887,4.887,0,0,0-4.587-3.258m0,6.516a1.629,1.629,0,1,1,1.629-1.629,1.629,1.629,0,0,1-1.629,1.629" transform="translate(-25.484 -331.194)"/>
        <path id="Path_1242840" data-name="Path 1242840" d="M152.29,240.46A16.29,16.29,0,1,0,136,224.169a16.29,16.29,0,0,0,16.29,16.29m0-29.323a13.032,13.032,0,1,1-13.032,13.032,13.032,13.032,0,0,1,13.032-13.032" transform="translate(-108.306 -165.549)"/>
        <path id="Path_1242841" data-name="Path 1242841" d="M192.938,259.263a1.607,1.607,0,0,0,.691.155,1.64,1.64,0,0,0,1.044-.376l9.774-8.145a1.629,1.629,0,0,0,0-2.505l-9.774-8.145A1.629,1.629,0,0,0,192,241.5v16.29A1.629,1.629,0,0,0,192.938,259.263Zm2.32-14.287,5.6,4.667-5.6,4.667Z" transform="translate(-152.903 -191.023)"/>
        <path id="Path_1242842" data-name="Path 1242842" d="M67.258,211.137h3.258v-3.258H65.629A1.629,1.629,0,0,0,64,209.508V214.4h3.258Z" transform="translate(-50.968 -165.549)"/>
        <path id="Path_1242843" data-name="Path 1242843" d="M342.516,340.766v-4.887h-3.258v3.258H336V342.4h4.887a1.629,1.629,0,0,0,1.629-1.629" transform="translate(-267.581 -267.484)"/>
        <path id="Path_1242844" data-name="Path 1242844" d="M65.629,342.4h4.887v-3.258H67.258v-3.258H64v4.887a1.629,1.629,0,0,0,1.629,1.629" transform="translate(-50.968 -267.484)"/>
        <rect id="Rectangle_412431" data-name="Rectangle 412431" width="3.258" height="3.258" transform="translate(71.678 52.104)"/>
        <path id="Path_1242845" data-name="Path 1242845" d="M101,24.411A24.436,24.436,0,1,0,52.618,29.3H6.516A6.516,6.516,0,0,0,0,35.814V94.459a6.516,6.516,0,0,0,6.516,6.516H81.452a6.516,6.516,0,0,0,6.516-6.516V46.007A24.45,24.45,0,0,0,101,24.411M76.565,48.846c.551,0,1.088-.047,1.629-.083V78.169H9.774v-39.1H57.062a24.388,24.388,0,0,0,19.5,9.774M84.71,94.459a3.258,3.258,0,0,1-3.258,3.258H6.516a3.258,3.258,0,0,1-3.258-3.258V35.814a3.258,3.258,0,0,1,3.258-3.258H53.555a24.274,24.274,0,0,0,1.414,3.258H8.145a1.629,1.629,0,0,0-1.629,1.629V79.8a1.629,1.629,0,0,0,1.629,1.629H79.823A1.629,1.629,0,0,0,81.452,79.8V48.358a24.1,24.1,0,0,0,3.258-.933ZM76.565,45.588A21.177,21.177,0,1,1,97.742,24.411,21.177,21.177,0,0,1,76.565,45.588" transform="translate(0 0)"/>
        <path id="Path_1242846" data-name="Path 1242846" d="M336.435,55.879H313.629A1.629,1.629,0,0,0,312,57.508V80.315a1.629,1.629,0,0,0,1.629,1.629h22.806a1.629,1.629,0,0,0,1.629-1.629V57.508a1.629,1.629,0,0,0-1.629-1.629M334.806,62.4h-3.258V59.137h3.258Zm-17.245,16.29,5.842-5.842v2.584h3.258V68.911a1.629,1.629,0,0,0-1.629-1.629h-6.516V70.54H321.1l-5.842,5.842V59.137H328.29v4.887a1.629,1.629,0,0,0,1.629,1.629h4.887V78.685Z" transform="translate(-248.468 -44.5)"/>
      </g>
    </g>
  </g>
</svg>
