<svg xmlns="http://www.w3.org/2000/svg" xmlns:xlink="http://www.w3.org/1999/xlink" width="101" height="101" viewBox="0 0 101 101">
  <defs>
    <clipPath id="clip-path">
      <rect id="Rectangle_412402" data-name="Rectangle 412402" width="101" height="101" fill="none"/>
    </clipPath>
  </defs>
  <g id="Group_1220813" data-name="Group 1220813" transform="translate(6589 9464)">
    <rect id="Rectangle_412408" data-name="Rectangle 412408" width="101" height="101" transform="translate(-6589 -9464)" fill="none"/>
    <g id="Group_1220801" data-name="Group 1220801" transform="translate(-6589 -9464)">
      <rect id="Rectangle_412388" data-name="Rectangle 412388" width="6.71" height="6.71" transform="translate(48.822 43.79)" fill="#8892a0"/>
      <rect id="Rectangle_412389" data-name="Rectangle 412389" width="6.71" height="6.71" transform="translate(48.822 94.116)" fill="#8892a0"/>
      <rect id="Rectangle_412390" data-name="Rectangle 412390" width="6.71" height="6.71" transform="translate(94.116 43.79)" fill="#8892a0"/>
      <rect id="Rectangle_412391" data-name="Rectangle 412391" width="6.71" height="6.71" transform="translate(94.116 94.116)" fill="#8892a0"/>
      <rect id="Rectangle_412392" data-name="Rectangle 412392" width="10.065" height="10.065" transform="translate(0.174 0.174)" fill="#8892a0"/>
      <rect id="Rectangle_412393" data-name="Rectangle 412393" width="10.065" height="10.065" transform="translate(0.174 63.92)" fill="#8892a0"/>
      <rect id="Rectangle_412394" data-name="Rectangle 412394" width="10.065" height="10.065" transform="translate(57.21 0.174)" fill="#8892a0"/>
      <path id="Path_1242657" data-name="Path 1242657" d="M101.712,118.488V84.937h10.065v6.71h6.71V78.227H78.227v13.42h6.71v-6.71H95v33.551H86.614v6.71H110.1v-6.71Z" transform="translate(-64.633 -64.633)" fill="#96cc7f"/>
      <path id="Path_1242658" data-name="Path 1242658" d="M342.192,274.649v-3.355H303.608v3.355h-3.355v43.616h3.355v3.355h38.583v-3.355h3.355V274.649Z" transform="translate(-248.076 -224.149)" fill="#d4d5d1"/>
      <g id="Group_1220800" data-name="Group 1220800">
        <g id="Group_1220799" data-name="Group 1220799" clip-path="url(#clip-path)">
          <path id="Path_1242659" data-name="Path 1242659" d="M370.755,309.907a12.582,12.582,0,0,0-12.582,12.582v24.324h6.71V335.07h11.743v11.743h6.71V322.489a12.582,12.582,0,0,0-12.582-12.582m5.872,18.453H364.883v-5.871a5.871,5.871,0,0,1,11.743,0Z" transform="translate(-295.93 -256.052)" fill="#66acd7"/>
          <path id="Path_1242660" data-name="Path 1242660" d="M101.712,118.488V84.937h10.065v6.71h6.71V78.227H78.227v13.42h6.71v-6.71H95v33.551H86.614v6.71H110.1v-6.71Z" transform="translate(-64.633 -64.633)" fill="none" stroke="#000" stroke-linejoin="round" stroke-width="2"/>
          <rect id="Rectangle_412395" data-name="Rectangle 412395" width="10.065" height="10.065" transform="translate(0.174 0.174)" fill="none" stroke="#000" stroke-linejoin="round" stroke-width="2"/>
          <rect id="Rectangle_412396" data-name="Rectangle 412396" width="10.065" height="10.065" transform="translate(0.174 63.92)" fill="none" stroke="#000" stroke-linejoin="round" stroke-width="2"/>
          <rect id="Rectangle_412397" data-name="Rectangle 412397" width="10.065" height="10.065" transform="translate(57.21 0.174)" fill="none" stroke="#000" stroke-linejoin="round" stroke-width="2"/>
          <path id="Path_1242661" data-name="Path 1242661" d="M358.174,346.813V322.489a12.582,12.582,0,1,1,25.163,0v24.324h-6.71V335.07H364.884v11.743Z" transform="translate(-295.931 -256.052)" fill="none" stroke="#000" stroke-linejoin="round" stroke-width="2"/>
          <path id="Path_1242662" data-name="Path 1242662" d="M408.531,360.264H396.788v-5.871a5.871,5.871,0,0,1,11.743,0Z" transform="translate(-327.835 -287.956)" fill="none" stroke="#000" stroke-linejoin="round" stroke-width="2"/>
          <rect id="Rectangle_412398" data-name="Rectangle 412398" width="6.71" height="6.71" transform="translate(48.822 43.79)" fill="none" stroke="#000" stroke-linejoin="round" stroke-width="2"/>
          <rect id="Rectangle_412399" data-name="Rectangle 412399" width="6.71" height="6.71" transform="translate(48.822 94.116)" fill="none" stroke="#000" stroke-linejoin="round" stroke-width="2"/>
          <rect id="Rectangle_412400" data-name="Rectangle 412400" width="6.71" height="6.71" transform="translate(94.116 43.79)" fill="none" stroke="#000" stroke-linejoin="round" stroke-width="2"/>
          <rect id="Rectangle_412401" data-name="Rectangle 412401" width="6.71" height="6.71" transform="translate(94.116 94.116)" fill="none" stroke="#000" stroke-linejoin="round" stroke-width="2"/>
          <line id="Line_596" data-name="Line 596" x2="38.583" transform="translate(55.533 47.145)" fill="none" stroke="#000" stroke-linejoin="round" stroke-width="2"/>
          <line id="Line_597" data-name="Line 597" x2="38.583" transform="translate(55.533 97.471)" fill="none" stroke="#000" stroke-linejoin="round" stroke-width="2"/>
          <line id="Line_598" data-name="Line 598" y2="43.616" transform="translate(52.177 50.5)" fill="none" stroke="#000" stroke-linejoin="round" stroke-width="2"/>
          <line id="Line_599" data-name="Line 599" y2="43.616" transform="translate(97.471 50.5)" fill="none" stroke="#000" stroke-linejoin="round" stroke-width="2"/>
          <line id="Line_600" data-name="Line 600" y1="5.033" transform="translate(5.206 58.888)" fill="none" stroke="#000" stroke-linejoin="round" stroke-width="2"/>
          <line id="Line_601" data-name="Line 601" y1="3.355" transform="translate(5.206 52.178)" fill="none" stroke="#000" stroke-linejoin="round" stroke-width="2"/>
          <line id="Line_602" data-name="Line 602" y1="3.355" transform="translate(5.206 45.467)" fill="none" stroke="#000" stroke-linejoin="round" stroke-width="2"/>
          <line id="Line_603" data-name="Line 603" y1="3.355" transform="translate(5.206 38.757)" fill="none" stroke="#000" stroke-linejoin="round" stroke-width="2"/>
          <line id="Line_604" data-name="Line 604" y1="3.355" transform="translate(5.206 32.047)" fill="none" stroke="#000" stroke-linejoin="round" stroke-width="2"/>
          <line id="Line_605" data-name="Line 605" y1="3.355" transform="translate(5.206 25.337)" fill="none" stroke="#000" stroke-linejoin="round" stroke-width="2"/>
          <line id="Line_606" data-name="Line 606" y1="3.355" transform="translate(5.206 18.627)" fill="none" stroke="#000" stroke-linejoin="round" stroke-width="2"/>
          <line id="Line_607" data-name="Line 607" y2="5.033" transform="translate(5.206 10.239)" fill="none" stroke="#000" stroke-linejoin="round" stroke-width="2"/>
          <line id="Line_608" data-name="Line 608" y1="3.355" transform="translate(62.243 38.757)" fill="none" stroke="#000" stroke-linejoin="round" stroke-width="2"/>
          <line id="Line_609" data-name="Line 609" y1="3.355" transform="translate(62.243 32.047)" fill="none" stroke="#000" stroke-linejoin="round" stroke-width="2"/>
          <line id="Line_610" data-name="Line 610" y1="3.355" transform="translate(62.243 25.337)" fill="none" stroke="#000" stroke-linejoin="round" stroke-width="2"/>
          <line id="Line_611" data-name="Line 611" y1="3.355" transform="translate(62.243 18.627)" fill="none" stroke="#000" stroke-linejoin="round" stroke-width="2"/>
          <line id="Line_612" data-name="Line 612" y2="5.033" transform="translate(62.243 10.239)" fill="none" stroke="#000" stroke-linejoin="round" stroke-width="2"/>
          <line id="Line_613" data-name="Line 613" x2="5.033" transform="translate(10.239 5.206)" fill="none" stroke="#000" stroke-linejoin="round" stroke-width="2"/>
          <line id="Line_614" data-name="Line 614" x2="3.355" transform="translate(18.627 5.206)" fill="none" stroke="#000" stroke-linejoin="round" stroke-width="2"/>
          <line id="Line_615" data-name="Line 615" x2="3.355" transform="translate(25.337 5.206)" fill="none" stroke="#000" stroke-linejoin="round" stroke-width="2"/>
          <line id="Line_616" data-name="Line 616" x2="3.355" transform="translate(32.047 5.206)" fill="none" stroke="#000" stroke-linejoin="round" stroke-width="2"/>
          <line id="Line_617" data-name="Line 617" x2="3.355" transform="translate(38.757 5.206)" fill="none" stroke="#000" stroke-linejoin="round" stroke-width="2"/>
          <line id="Line_618" data-name="Line 618" x2="3.355" transform="translate(45.467 5.206)" fill="none" stroke="#000" stroke-linejoin="round" stroke-width="2"/>
          <line id="Line_619" data-name="Line 619" x1="5.033" transform="translate(52.177 5.206)" fill="none" stroke="#000" stroke-linejoin="round" stroke-width="2"/>
          <line id="Line_620" data-name="Line 620" x2="5.033" transform="translate(10.239 68.953)" fill="none" stroke="#000" stroke-linejoin="round" stroke-width="2"/>
          <line id="Line_621" data-name="Line 621" x2="3.355" transform="translate(18.627 68.953)" fill="none" stroke="#000" stroke-linejoin="round" stroke-width="2"/>
          <line id="Line_622" data-name="Line 622" x2="3.355" transform="translate(25.337 68.953)" fill="none" stroke="#000" stroke-linejoin="round" stroke-width="2"/>
          <line id="Line_623" data-name="Line 623" x2="3.355" transform="translate(32.047 68.953)" fill="none" stroke="#000" stroke-linejoin="round" stroke-width="2"/>
          <line id="Line_624" data-name="Line 624" x2="3.355" transform="translate(38.757 68.953)" fill="none" stroke="#000" stroke-linejoin="round" stroke-width="2"/>
          <line id="Line_625" data-name="Line 625" x2="6.71" transform="translate(45.467 68.953)" fill="none" stroke="#000" stroke-linejoin="round" stroke-width="2"/>
        </g>
      </g>
    </g>
  </g>
</svg>
