<svg xmlns="http://www.w3.org/2000/svg" xmlns:xlink="http://www.w3.org/1999/xlink" width="101" height="101" viewBox="0 0 101 101">
  <defs>
    <clipPath id="clip-path">
      <rect id="Rectangle_412406" data-name="Rectangle 412406" width="101" height="87.069" fill="none"/>
    </clipPath>
  </defs>
  <g id="Group_1220811" data-name="Group 1220811" transform="translate(6105 9423)">
    <rect id="Rectangle_412411" data-name="Rectangle 412411" width="101" height="101" transform="translate(-6105 -9423)" fill="none"/>
    <g id="Group_1220809" data-name="Group 1220809" transform="translate(-6105 -9418.351)">
      <g id="Group_1220808" data-name="Group 1220808" clip-path="url(#clip-path)">
        <path id="Path_1242718" data-name="Path 1242718" d="M101,101.276a1.741,1.741,0,0,0-1.741-1.741H1.741A1.741,1.741,0,0,0,0,101.276v62.69a8.717,8.717,0,0,0,8.707,8.707H92.293A8.717,8.717,0,0,0,101,163.966Z" transform="translate(0 -85.604)" fill="#f5f5f5"/>
        <path id="Path_1242719" data-name="Path 1242719" d="M101,8.707A8.717,8.717,0,0,0,92.293,0H8.707A8.717,8.717,0,0,0,0,8.707v8.707H101Z" fill="#b857cf"/>
        <path id="Path_1242720" data-name="Path 1242720" d="M51.517,53.207a1.75,1.75,0,1,1,1.75-1.75,1.75,1.75,0,0,1-1.75,1.75" transform="translate(-42.802 -42.75)" fill="#e1b5ec"/>
        <path id="Path_1242721" data-name="Path 1242721" d="M101.222,53.268a1.75,1.75,0,1,1,1.75-1.741,1.751,1.751,0,0,1-1.75,1.741" transform="translate(-85.55 -42.803)" fill="#e1b5ec"/>
        <path id="Path_1242722" data-name="Path 1242722" d="M151.06,53.267a1.75,1.75,0,1,1,1.741-1.741,1.747,1.747,0,0,1-1.741,1.741" transform="translate(-128.406 -42.802)" fill="#e1b5ec"/>
        <path id="Path_1242723" data-name="Path 1242723" d="M497.171,202.553H474.533a1.741,1.741,0,0,1,0-3.483h22.638a1.741,1.741,0,0,1,0,3.483" transform="translate(-406.62 -171.208)" fill="#57555c"/>
        <path id="Path_1242724" data-name="Path 1242724" d="M339.162,202.553H325.231a1.741,1.741,0,1,1,0-3.483h13.931a1.741,1.741,0,1,1,0,3.483" transform="translate(-278.214 -171.208)" fill="#57555c"/>
        <path id="Path_1242725" data-name="Path 1242725" d="M604.177,252.321h-5.224a1.741,1.741,0,1,1,0-3.483h5.224a1.741,1.741,0,1,1,0,3.483" transform="translate(-513.625 -214.01)" fill="#57555c"/>
        <path id="Path_1242726" data-name="Path 1242726" d="M356.576,252.321H325.231a1.741,1.741,0,1,1,0-3.483h31.345a1.741,1.741,0,1,1,0,3.483" transform="translate(-278.214 -214.01)" fill="#57555c"/>
        <path id="Path_1242727" data-name="Path 1242727" d="M465.07,302.088H437.208a1.741,1.741,0,1,1,0-3.483H465.07a1.741,1.741,0,1,1,0,3.483" transform="translate(-374.519 -256.812)" fill="#57555c"/>
        <path id="Path_1242728" data-name="Path 1242728" d="M333.938,302.088h-8.707a1.741,1.741,0,0,1,0-3.483h8.707a1.741,1.741,0,0,1,0,3.483" transform="translate(-278.214 -256.812)" fill="#57555c"/>
        <path id="Path_1242729" data-name="Path 1242729" d="M298.1,410.331a12.19,12.19,0,1,1-12.19-12.19,12.189,12.189,0,0,1,12.19,12.19" transform="translate(-235.412 -342.417)" fill="#e1b5ec"/>
        <path id="Path_1242730" data-name="Path 1242730" d="M86.588,410.331a12.19,12.19,0,1,1-12.19-12.19,12.189,12.189,0,0,1,12.19,12.19" transform="translate(-53.502 -342.417)" fill="#e1b5ec"/>
        <path id="Path_1242731" data-name="Path 1242731" d="M509.613,410.331a12.19,12.19,0,1,1-12.19-12.19,12.189,12.189,0,0,1,12.19,12.19" transform="translate(-417.32 -342.417)" fill="#e1b5ec"/>
        <path id="Path_1242732" data-name="Path 1242732" d="M93.555,164.975A15.672,15.672,0,1,1,77.882,149.3a15.672,15.672,0,0,1,15.672,15.672" transform="translate(-53.503 -128.406)" fill="#ffb74f"/>
        <path id="Path_1242733" data-name="Path 1242733" d="M92.293,0H8.707A8.717,8.717,0,0,0,0,8.707V78.362a8.717,8.717,0,0,0,8.707,8.707H92.293A8.717,8.717,0,0,0,101,78.362V8.707A8.717,8.717,0,0,0,92.293,0M8.707,3.483H92.293a5.224,5.224,0,0,1,5.224,5.224v5.224H3.483V8.707A5.224,5.224,0,0,1,8.707,3.483m83.586,80.1H8.707a5.224,5.224,0,0,1-5.224-5.224V17.414H97.517V78.362a5.224,5.224,0,0,1-5.224,5.224" fill="#5b1a6e"/>
        <path id="Path_1242734" data-name="Path 1242734" d="M53.268,51.456a1.75,1.75,0,1,1-1.75-1.75,1.75,1.75,0,0,1,1.75,1.75" transform="translate(-42.802 -42.749)" fill="#5b1a6e"/>
        <path id="Path_1242735" data-name="Path 1242735" d="M102.975,51.517a1.75,1.75,0,1,1-1.75-1.75,1.75,1.75,0,0,1,1.75,1.75" transform="translate(-85.552 -42.802)" fill="#5b1a6e"/>
        <path id="Path_1242736" data-name="Path 1242736" d="M152.865,51.517a1.75,1.75,0,1,1-1.751-1.75,1.75,1.75,0,0,1,1.751,1.75" transform="translate(-128.459 -42.802)" fill="#5b1a6e"/>
        <path id="Path_1242737" data-name="Path 1242737" d="M497.171,199.07H474.533a1.741,1.741,0,0,0,0,3.483h22.638a1.741,1.741,0,0,0,0-3.483" transform="translate(-406.62 -171.208)" fill="#5b1a6e"/>
        <path id="Path_1242738" data-name="Path 1242738" d="M325.23,202.553h13.931a1.741,1.741,0,1,0,0-3.483H325.23a1.741,1.741,0,1,0,0,3.483" transform="translate(-278.213 -171.208)" fill="#5b1a6e"/>
        <path id="Path_1242739" data-name="Path 1242739" d="M604.177,248.838h-5.224a1.741,1.741,0,1,0,0,3.483h5.224a1.741,1.741,0,1,0,0-3.483" transform="translate(-513.625 -214.01)" fill="#5b1a6e"/>
        <path id="Path_1242740" data-name="Path 1242740" d="M325.23,252.321h31.345a1.741,1.741,0,1,0,0-3.483H325.23a1.741,1.741,0,1,0,0,3.483" transform="translate(-278.213 -214.01)" fill="#5b1a6e"/>
        <path id="Path_1242741" data-name="Path 1242741" d="M465.07,298.605H437.208a1.741,1.741,0,1,0,0,3.483H465.07a1.741,1.741,0,1,0,0-3.483" transform="translate(-374.519 -256.812)" fill="#5b1a6e"/>
        <path id="Path_1242742" data-name="Path 1242742" d="M325.23,302.088h8.707a1.741,1.741,0,0,0,0-3.483H325.23a1.741,1.741,0,1,0,0,3.483" transform="translate(-278.213 -256.812)" fill="#5b1a6e"/>
        <path id="Path_1242743" data-name="Path 1242743" d="M74.4,398.141a12.19,12.19,0,1,0,12.19,12.19,12.189,12.189,0,0,0-12.19-12.19m0,20.9a8.707,8.707,0,1,1,8.707-8.707,8.707,8.707,0,0,1-8.707,8.707" transform="translate(-53.503 -342.417)" fill="#5b1a6e"/>
        <path id="Path_1242744" data-name="Path 1242744" d="M285.912,398.141a12.19,12.19,0,1,0,12.19,12.19,12.189,12.189,0,0,0-12.19-12.19m0,20.9a8.707,8.707,0,1,1,8.707-8.707,8.707,8.707,0,0,1-8.707,8.707" transform="translate(-235.412 -342.417)" fill="#5b1a6e"/>
        <path id="Path_1242745" data-name="Path 1242745" d="M497.425,398.141a12.19,12.19,0,1,0,12.19,12.19,12.189,12.189,0,0,0-12.19-12.19m0,20.9a8.707,8.707,0,1,1,8.707-8.707,8.707,8.707,0,0,1-8.707,8.707" transform="translate(-417.321 -342.417)" fill="#5b1a6e"/>
        <path id="Path_1242746" data-name="Path 1242746" d="M77.882,149.3a15.672,15.672,0,1,0,15.672,15.672A15.672,15.672,0,0,0,77.882,149.3m0,27.862a12.19,12.19,0,1,1,12.19-12.19,12.189,12.189,0,0,1-12.19,12.19" transform="translate(-53.503 -128.406)" fill="#5b1a6e"/>
      </g>
    </g>
  </g>
</svg>
