<svg xmlns="http://www.w3.org/2000/svg" xmlns:xlink="http://www.w3.org/1999/xlink" width="90" height="90" viewBox="0 0 90 90">
  <defs>
    <clipPath id="clip-path">
      <rect id="Rectangle_412465" data-name="Rectangle 412465" width="88" height="88" fill="none"/>
    </clipPath>
  </defs>
  <g id="Group_1220858" data-name="Group 1220858" transform="translate(1618 3164)">
    <rect id="Rectangle_412448" data-name="Rectangle 412448" width="90" height="90" transform="translate(-1618 -3164)" fill="none"/>
    <g id="Group_1220851" data-name="Group 1220851" transform="translate(-1616 -3163)">
      <g id="Group_1220850" data-name="Group 1220850" transform="translate(0 0)" clip-path="url(#clip-path)">
        <path id="Path_1242931" data-name="Path 1242931" d="M336.467,379.937a17.283,17.283,0,0,1,3.26-1.764L344.934,376a14.914,14.914,0,0,1,11.289,14.465v5.292H328a18.934,18.934,0,0,1,3.443-10.908,18.7,18.7,0,0,1,5.024-4.911" transform="translate(-270.142 -309.214)" fill="#e6e9ed"/>
        <path id="Path_1242932" data-name="Path 1242932" d="M183.788,393.414a18.934,18.934,0,0,0-3.443,10.908H152.121a18.961,18.961,0,0,0-3.4-10.852,16,16,0,0,1,4.953-5.108,15.688,15.688,0,0,1,4.5-1.962l2.413,10.866,5.645-5.645,5.645,5.645L174.29,386.4a15.48,15.48,0,0,1,4.417,1.919,15.66,15.66,0,0,1,4.925,4.981Z" transform="translate(-122.486 -317.78)" fill="#4fc1e9"/>
        <path id="Path_1242933" data-name="Path 1242933" d="M256.058,384.357l-2.413,10.866L248,389.579l5.645-5.659a14.869,14.869,0,0,1,2.413.437" transform="translate(-204.254 -315.737)" fill="#3bafda"/>
        <path id="Path_1242934" data-name="Path 1242934" d="M204.733,383.92l5.645,5.659-5.645,5.645-2.413-10.866A14.87,14.87,0,0,1,204.733,383.92Z" transform="translate(-166.631 -315.737)" fill="#3bafda"/>
        <path id="Path_1242935" data-name="Path 1242935" d="M16.467,395.756H8v-5.292A14.928,14.928,0,0,1,19.289,376l1.411,5.645,7.056,4.234L29.9,381.6a18.077,18.077,0,0,1,2.921,3.3,18.961,18.961,0,0,1,3.4,10.852Z" transform="translate(-6.589 -309.214)" fill="#b4dd7f"/>
        <path id="Path_1242936" data-name="Path 1242936" d="M80.467,379.937a15.073,15.073,0,0,1,2.145,1.665l-2.145,4.276-7.056-4.234L72,376l5.207,2.173a17.283,17.283,0,0,1,3.26,1.764" transform="translate(-59.299 -309.214)" fill="#a0d468"/>
        <path id="Path_1242937" data-name="Path 1242937" d="M19.289,246.112v7.056l-1.651-.818A17.481,17.481,0,0,1,8,236.742V232H19.289v7.056a2.831,2.831,0,0,0-2.822,2.822v.24a2.831,2.831,0,0,0,.833,2Z" transform="translate(-6.589 -190.615)" fill="#656d78"/>
        <path id="Path_1242938" data-name="Path 1242938" d="M435.289,232v4.742a17.481,17.481,0,0,1-9.638,15.608l-1.651.818v-7.056l1.99-1.99a2.831,2.831,0,0,0,.833-2v-.24A2.831,2.831,0,0,0,424,239.056V232Z" transform="translate(-349.208 -190.615)" fill="#fcd770"/>
        <path id="Path_1242939" data-name="Path 1242939" d="M336.467,253.168h-.833a4.818,4.818,0,0,1-4.812-4.812V244.7l-.818-.409a3.622,3.622,0,0,1-2-3.232,3.463,3.463,0,0,1,.183-1.143L330.822,232h14.112v7.056a2.831,2.831,0,0,1,2.822,2.822v.24a2.831,2.831,0,0,1-.833,2l-1.99,1.99V257.4l-5.207,2.173a17.281,17.281,0,0,0-3.26,1.764Z" transform="translate(-270.142 -190.615)" fill="#f0d0b4"/>
        <path id="Path_1242940" data-name="Path 1242940" d="M225.878,359.92l1.411,4.234-5.645,5.659L216,364.154l1.411-4.234Z" transform="translate(-177.898 -295.971)" fill="#f0d0b4"/>
        <path id="Path_1242941" data-name="Path 1242941" d="M206.579,241.06v6.449a7.058,7.058,0,0,1-7.056,7.056h-8.467A7.058,7.058,0,0,1,184,247.509V232h22.579Z" transform="translate(-151.543 -190.615)" fill="#f0d0b4"/>
        <path id="Path_1242942" data-name="Path 1242942" d="M67.289,253.168v8.171a17.282,17.282,0,0,0-3.26-1.764L58.822,257.4V246.112l-1.99-1.99a2.831,2.831,0,0,1-.833-2v-.24a2.831,2.831,0,0,1,2.822-2.822V232H72.934l2.639,7.917a3.464,3.464,0,0,1,.183,1.143,3.622,3.622,0,0,1-2,3.232l-.818.409v3.655a4.818,4.818,0,0,1-4.812,4.812Z" transform="translate(-46.122 -190.615)" fill="#f0d0b4"/>
        <path id="Path_1242943" data-name="Path 1242943" d="M40.467,88v25.4H32V88Z" transform="translate(-26.355 -72.016)" fill="#69d6f4"/>
        <rect id="Rectangle_412464" data-name="Rectangle 412464" width="8" height="26.667" transform="translate(14.222 15.111)" fill="#ef7385"/>
        <path id="Path_1242944" data-name="Path 1242944" d="M42.513,9.256l6.421,12.856H32L38.421,9.256a2.295,2.295,0,0,1,4.092,0" transform="translate(-26.355 -6.128)" fill="#969faa"/>
        <path id="Path_1242945" data-name="Path 1242945" d="M222.112,200v5.645H208V200h14.112Z" transform="translate(-171.31 -164.26)" fill="#aab2bd"/>
        <path id="Path_1242946" data-name="Path 1242946" d="M173.753,8.1a15.519,15.519,0,0,0-8.03,27.433,7.265,7.265,0,0,1,2.766,5.588v.748H182.6v-.748a7.147,7.147,0,0,1,2.709-5.546A15.517,15.517,0,0,0,173.753,8.1" transform="translate(-131.799 -6.124)" fill="#ffeaa7"/>
        <path id="Path_1242947" data-name="Path 1242947" d="M267.1,80.833a2.759,2.759,0,0,1,.833,1.99,2.831,2.831,0,0,1-2.822,2.822H261.92l.2-3.006A2.822,2.822,0,0,1,264.926,80h.183a2.759,2.759,0,0,1,1.99.833" transform="translate(-215.718 -65.428)" fill="#fcd770"/>
        <path id="Path_1242948" data-name="Path 1242948" d="M394.822,168A2.822,2.822,0,1,1,392,170.822,2.822,2.822,0,0,1,394.822,168" transform="translate(-322.853 -137.905)" fill="#ef7385"/>
        <path id="Path_1242949" data-name="Path 1242949" d="M205.814,82.639l.2,3.006h-3.189A2.843,2.843,0,0,1,200,82.822,2.831,2.831,0,0,1,202.822,80h.183A2.822,2.822,0,0,1,205.814,82.639Z" transform="translate(-164.721 -65.428)" fill="#fcd770"/>
        <path id="Path_1242950" data-name="Path 1242950" d="M77.07,62.532A18.752,18.752,0,0,0,87.493,45.667V39.513H59.663L56.7,48.389a5.069,5.069,0,0,0-.257,1.589,5,5,0,0,0,2.779,4.5l.044,2.8a6.169,6.169,0,0,0,5.645,6.172V69.51a20.409,20.409,0,0,0-3.6,3.322,16.95,16.95,0,0,0-10.863-6.4l-.584-1.754a8.476,8.476,0,0,0,6.582-8.248V39.513H52.213V34.531a5.725,5.725,0,0,1,2.179-4.444A16.917,16.917,0,0,0,55.033,4.31,16.936,16.936,0,0,0,27.02,14.25a16.86,16.86,0,0,0,6.009,15.78,5.868,5.868,0,0,1,2.251,4.506v4.977H31.046V56.427a8.476,8.476,0,0,0,6.582,8.248l-.586,1.756a17.221,17.221,0,0,0-10.858,6.408,20.434,20.434,0,0,0-3.607-3.329V63.446a6.174,6.174,0,0,0,5.646-6.172V54.5l.044-.021a5.028,5.028,0,0,0,2.52-6.088L27.83,39.513H23.99V15.19L17.417,2.043a3.695,3.695,0,0,0-6.61,0L4.234,15.19V39.513H0v6.154A18.752,18.752,0,0,0,10.423,62.532l.866.433v2.307A16.284,16.284,0,0,0,0,80.785v6.707H87.493V80.784A16.284,16.284,0,0,0,76.2,65.271V62.964Zm7.6-16.865A15.922,15.922,0,0,1,76.2,59.773V55.62l1.582-1.582a4.2,4.2,0,0,0,1.24-2.995V50.8A4.242,4.242,0,0,0,76.2,46.81V42.335H84.67ZM67.736,63.5h2.822V60.68H65.5a3.38,3.38,0,0,1-2.406-1,3.425,3.425,0,0,1-1-2.409V52.752l-1.6-.8a2.2,2.2,0,0,1-1.106-2.669L61.7,42.335H73.381v7.056h1.411A1.413,1.413,0,0,1,76.2,50.8v.241a1.4,1.4,0,0,1-.413,1l-2.409,2.409V65.384l-4.342,1.809q-.665.277-1.3.6Zm-23.99,7.879-4.03-4.046.814-2.443h6.432l.814,2.443Zm-6.136-2.158,4.142,4.156L38.922,76.21l-1.544-6.95.233-.037m12.273,0,.233.037-1.545,6.951L45.74,73.378ZM34.815,27.845a14.069,14.069,0,0,1-5.007-13.166A14.215,14.215,0,0,1,42.114,2.913a14.105,14.105,0,0,1,10.5,24.981,8.553,8.553,0,0,0-3.189,5.975H46.666l.847-12.7h1.878a4.234,4.234,0,1,0,0-8.467h-.182a4.245,4.245,0,0,0-4.224,3.953l-.113,1.692H42.62l-.113-1.693A4.245,4.245,0,0,0,38.284,12.7H38.1a4.234,4.234,0,0,0,0,8.467H39.98l.847,12.7H38.062A8.725,8.725,0,0,0,34.815,27.845Zm8.84,6.023-.847-12.7h1.875l-.847,12.7ZM47.7,18.345l.1-1.5a1.416,1.416,0,0,1,1.408-1.318h.182a1.411,1.411,0,0,1,0,2.822Zm-7.908,0H38.1a1.411,1.411,0,0,1,0-2.822h.182a1.416,1.416,0,0,1,1.408,1.318ZM38.1,36.69H49.391v2.822H38.1ZM33.868,56.427V42.335H53.625V56.427a5.65,5.65,0,0,1-5.645,5.645H39.513A5.651,5.651,0,0,1,33.868,56.427ZM21.558,72.266l-.972,1.943-5.248-3.148-.588-2.352L17.367,69.8a17.661,17.661,0,0,1,4.191,2.467M28.111,49.28A2.208,2.208,0,0,1,27,51.951l-1.6.8v4.521A3.4,3.4,0,0,1,22,60.68H16.934V63.5h2.822v4.289q-.637-.32-1.3-.6l-4.342-1.811V54.451L11.7,52.043a1.4,1.4,0,0,1-.413-1V50.8A1.414,1.414,0,0,1,12.7,49.391h1.411V42.335H25.795ZM15.523,16.934h5.645V39.513H15.523ZM13.331,3.3a.9.9,0,0,1,1.559,0l5.4,10.808H7.928ZM7.056,16.934H12.7V39.513H7.056ZM2.822,45.667V42.335h8.467V46.81A4.242,4.242,0,0,0,8.467,50.8v.241a4.208,4.208,0,0,0,1.24,2.995l1.582,1.582v4.153A15.923,15.923,0,0,1,2.822,45.667m8.467,39V76.2H8.467V84.67H2.822V80.784a13.466,13.466,0,0,1,8.871-12.671l1.191,4.766L21.748,78.2,23.7,74.29A17.568,17.568,0,0,1,28.167,84.67ZM31,84.67a20.408,20.408,0,0,0-3.052-9.432,14.366,14.366,0,0,1,6.7-5.25l2.633,11.852,6.465-6.465,6.465,6.465,2.636-11.864a14.147,14.147,0,0,1,6.7,5.258,20.4,20.4,0,0,0-3.054,9.435ZM84.67,80.784V84.67H79.026V76.2H76.2V84.67H59.326A17.588,17.588,0,0,1,70.125,69.8l4.767-1.986A13.473,13.473,0,0,1,84.67,80.784" transform="translate(0 0.461)"/>
        <path id="Path_1242951" data-name="Path 1242951" d="M233.878,296h-2.822a1.413,1.413,0,0,1-1.411,1.411H224v2.822h5.645A4.239,4.239,0,0,0,233.878,296" transform="translate(-184.487 -243.326)"/>
        <path id="Path_1242952" data-name="Path 1242952" d="M384,164.234A4.234,4.234,0,1,0,388.233,160,4.239,4.239,0,0,0,384,164.234m5.645,0a1.411,1.411,0,1,1-1.411-1.411,1.414,1.414,0,0,1,1.411,1.411" transform="translate(-316.264 -131.316)"/>
        <path id="Path_1242953" data-name="Path 1242953" d="M362.822,24.083a5.266,5.266,0,0,1,5.261-5.261h.769a5.261,5.261,0,0,1,3.285,9.369l-5.082,4.066v6.322h2.822V33.611l4.022-3.217A8.082,8.082,0,0,0,368.851,16h-.769A8.091,8.091,0,0,0,360,24.083v.384h2.822Z" transform="translate(-296.497 -12.717)"/>
      </g>
    </g>
  </g>
</svg>
