<svg xmlns="http://www.w3.org/2000/svg" xmlns:xlink="http://www.w3.org/1999/xlink" width="90" height="90" viewBox="0 0 90 90">
  <defs>
    <clipPath id="clip-path">
      <rect id="Rectangle_412454" data-name="Rectangle 412454" width="88.319" height="88.319" fill="none"/>
    </clipPath>
  </defs>
  <g id="Group_1220855" data-name="Group 1220855" transform="translate(2053 3164)">
    <rect id="Rectangle_412450" data-name="Rectangle 412450" width="90" height="90" transform="translate(-2053 -3164)" fill="none"/>
    <g id="Group_1220844" data-name="Group 1220844" transform="translate(-2052.403 -3163.403)">
      <path id="Path_1242883" data-name="Path 1242883" d="M414.828,0,399.473,44.4l15.355,44.4h6.581V0Z" transform="translate(-332.603 0)" fill="#eee"/>
      <rect id="Rectangle_412451" data-name="Rectangle 412451" width="82.225" height="88.806" transform="translate(0 0)" fill="#fff"/>
      <path id="Path_1242884" data-name="Path 1242884" d="M426.774,33.758v6.581h-6.581l-5.882-3.29,5.882-3.29Z" transform="translate(-344.549 -27.177)" fill="#fe5f1a"/>
      <rect id="Rectangle_412452" data-name="Rectangle 412452" width="69.064" height="6.581" transform="translate(6.581 6.581)" fill="#fe834d"/>
      <path id="Path_1242885" data-name="Path 1242885" d="M426.774,361.964V384.63h-6.581L414.312,373.3l5.882-11.333Z" transform="translate(-344.549 -302.405)" fill="#81e3e2"/>
      <rect id="Rectangle_412453" data-name="Rectangle 412453" width="69.064" height="22.666" transform="translate(6.581 59.559)" fill="#abecec"/>
      <g id="Group_1220843" data-name="Group 1220843" transform="translate(0 0.487)">
        <g id="Group_1220842" data-name="Group 1220842" transform="translate(0 0)" clip-path="url(#clip-path)">
          <path id="Path_1242886" data-name="Path 1242886" d="M207.977,255.175H186.2a1.463,1.463,0,0,1,0-2.926h21.781a1.463,1.463,0,1,1,0,2.926" transform="translate(-152.711 -208.956)" fill="#969696"/>
          <path id="Path_1242887" data-name="Path 1242887" d="M367.391,255.175H345.609a1.463,1.463,0,0,1,0-2.926h21.782a1.463,1.463,0,0,1,0,2.926" transform="translate(-284.491 -208.956)" fill="#969696"/>
          <path id="Path_1242888" data-name="Path 1242888" d="M48.563,255.175H26.781a1.463,1.463,0,0,1,0-2.926H48.563a1.463,1.463,0,0,1,0,2.926" transform="translate(-20.929 -208.956)" fill="#969696"/>
          <path id="Path_1242889" data-name="Path 1242889" d="M207.977,288.933H186.2a1.463,1.463,0,1,1,0-2.926h21.781a1.463,1.463,0,1,1,0,2.926" transform="translate(-152.711 -236.862)" fill="#969696"/>
          <path id="Path_1242890" data-name="Path 1242890" d="M367.391,288.933H345.609a1.463,1.463,0,1,1,0-2.926h21.782a1.463,1.463,0,0,1,0,2.926" transform="translate(-284.491 -236.862)" fill="#969696"/>
          <path id="Path_1242891" data-name="Path 1242891" d="M48.563,288.933H26.781a1.463,1.463,0,1,1,0-2.926H48.563a1.463,1.463,0,1,1,0,2.926" transform="translate(-20.929 -236.862)" fill="#969696"/>
          <path id="Path_1242892" data-name="Path 1242892" d="M197.119,322.691H186.2a1.463,1.463,0,0,1,0-2.926h10.923a1.463,1.463,0,0,1,0,2.926" transform="translate(-152.711 -264.769)" fill="#969696"/>
          <path id="Path_1242893" data-name="Path 1242893" d="M356.532,322.691H345.609a1.463,1.463,0,0,1,0-2.926h10.923a1.463,1.463,0,0,1,0,2.926" transform="translate(-284.491 -264.769)" fill="#969696"/>
          <path id="Path_1242894" data-name="Path 1242894" d="M37.7,322.691H26.781a1.463,1.463,0,0,1,0-2.926H37.7a1.463,1.463,0,0,1,0,2.926" transform="translate(-20.929 -264.769)" fill="#969696"/>
          <path id="Path_1242895" data-name="Path 1242895" d="M209.435,94.152c0-.02-.006-.039-.008-.059s-.007-.056-.013-.083-.011-.046-.017-.069-.011-.047-.018-.07-.015-.045-.023-.067-.016-.045-.025-.068-.019-.041-.028-.061-.021-.046-.033-.068-.022-.038-.033-.057-.026-.045-.04-.066-.029-.039-.043-.059-.027-.038-.042-.056-.053-.061-.081-.09l-.015-.017L209,93.248c-.029-.028-.059-.056-.091-.082s-.035-.026-.053-.039-.041-.032-.063-.046-.041-.025-.062-.037-.04-.025-.061-.036-.041-.02-.062-.03-.045-.022-.068-.031l-.06-.022c-.025-.009-.05-.019-.075-.026l-.059-.015c-.027-.007-.053-.014-.08-.02s-.044-.007-.065-.01-.05-.009-.076-.011-.072,0-.109-.006l-.035,0H186.2l-.036,0c-.036,0-.072,0-.107.006s-.051.007-.077.011l-.065.01c-.027.005-.053.012-.079.019s-.04.009-.06.015-.05.017-.074.026l-.061.022c-.023.01-.045.02-.067.031s-.042.019-.063.03-.041.024-.062.036-.041.024-.061.037-.042.031-.063.046-.036.025-.053.039-.062.054-.091.082l-.016.015-.015.017c-.028.029-.056.059-.081.09s-.028.037-.042.056-.03.038-.043.059-.027.044-.04.066-.023.037-.033.057-.022.046-.033.069-.02.04-.028.061-.017.045-.025.068-.016.044-.023.067-.012.046-.018.07-.012.045-.017.069-.009.055-.013.083-.006.039-.008.059a1.412,1.412,0,0,0-.007.146v21.78c0,.049,0,.1.007.146,0,.02.006.039.008.059s.007.056.013.083.011.046.017.069.011.047.018.07.015.045.023.067.016.046.025.068.019.041.028.061.021.046.033.069.022.038.033.057.026.045.04.066.029.039.043.059.027.038.042.056.053.061.081.09l.015.017.016.015c.029.028.059.056.091.082s.035.026.053.039.041.032.063.046.041.025.062.038.04.025.061.036l.064.031c.022.01.043.021.066.031s.042.016.063.023.047.018.072.025l.064.016c.025.006.05.013.075.018s.05.008.075.011.044.007.066.01c.048,0,.1.007.144.007h21.781c.048,0,.1,0,.144-.007.022,0,.044-.006.066-.01s.05-.006.075-.011.05-.012.075-.018.043-.01.064-.016.048-.016.072-.025.042-.014.063-.023.044-.02.066-.031.043-.02.064-.031.041-.024.061-.036.042-.024.062-.038.042-.031.063-.046.036-.025.053-.039.062-.054.091-.082l.016-.015.015-.017c.028-.029.056-.059.081-.09s.028-.037.042-.056.03-.038.043-.059.027-.044.04-.066.023-.037.033-.057.022-.045.033-.068.02-.04.028-.061.017-.045.025-.068.017-.044.023-.067.012-.046.018-.07.012-.045.017-.069.009-.055.013-.083.006-.039.008-.059a1.407,1.407,0,0,0,.007-.146V94.3c0-.049,0-.1-.007-.146m-14.415,11.036-7.359,7.359V97.829Zm-5.29-9.428h14.717l-7.359,7.359Zm7.359,11.5,7.359,7.359H189.73Zm2.069-2.069,7.359-7.359v14.718Z" transform="translate(-152.712 -77.175)" fill="#42c8c6"/>
          <path id="Path_1242896" data-name="Path 1242896" d="M368.565,116.949c.014-.02.03-.038.043-.059s.027-.044.04-.066.023-.037.033-.057.022-.045.033-.068.02-.04.028-.061.017-.045.025-.068.017-.044.023-.067.012-.046.018-.07.012-.045.017-.069.009-.055.013-.083.006-.039.008-.059c0-.049.007-.1.007-.146V94.3c0-.049,0-.1-.007-.146,0-.02-.006-.039-.008-.059s-.007-.056-.013-.083-.011-.046-.017-.069-.011-.047-.018-.07-.015-.045-.023-.067-.016-.045-.025-.068-.019-.041-.028-.061-.021-.046-.033-.068-.022-.038-.033-.057-.026-.045-.04-.066-.029-.039-.043-.059-.027-.038-.042-.056-.053-.061-.081-.09l-.015-.017-.016-.015c-.029-.028-.059-.056-.091-.082s-.035-.026-.053-.039-.041-.032-.063-.046-.041-.025-.062-.037-.04-.025-.061-.036-.041-.02-.062-.03-.045-.022-.068-.031l-.06-.022c-.025-.009-.05-.019-.075-.026l-.059-.015c-.027-.007-.053-.014-.08-.02s-.043-.007-.065-.01-.05-.009-.076-.011-.072,0-.109-.006l-.035,0H345.611l-.035,0c-.036,0-.072,0-.109.006s-.051.007-.076.011l-.065.01c-.027.005-.053.013-.08.02s-.04.009-.059.015-.05.017-.075.026l-.06.022c-.023.01-.045.021-.068.031s-.042.019-.062.03-.041.024-.061.036-.042.024-.062.037-.042.031-.063.046-.035.025-.052.039-.062.054-.091.082l-.016.015-.015.017c-.028.029-.056.059-.081.09s-.028.037-.042.056-.03.038-.043.059-.027.044-.04.066-.023.037-.033.057-.022.046-.033.069-.02.04-.028.061-.017.045-.025.068-.016.044-.023.067-.012.046-.018.07-.012.045-.017.069-.009.055-.013.083-.006.039-.008.059a1.421,1.421,0,0,0-.007.146v21.78c0,.049,0,.1.007.146,0,.02.006.039.008.059s.007.056.013.083.011.046.017.069.011.047.018.07.015.045.023.067.016.046.025.068.019.041.028.061.021.046.033.069.022.038.033.057.026.045.04.066.029.039.043.059.027.038.042.056.053.061.081.09l.015.017.016.015c.029.028.059.056.091.082s.035.026.053.039.041.032.063.046.041.025.062.038.04.025.061.036l.064.031c.022.01.043.021.066.031s.042.016.063.023.047.018.072.025l.064.016c.025.006.05.013.075.018s.05.008.075.011.044.007.066.01c.048,0,.1.007.144.007h21.782c.048,0,.1,0,.144-.007.022,0,.044-.006.066-.01s.05-.006.075-.011.05-.012.075-.018.043-.01.064-.016.048-.016.072-.025.042-.014.063-.023.044-.02.066-.031.043-.02.064-.031.041-.024.061-.036.042-.024.062-.038.042-.031.063-.046.036-.025.053-.039.062-.054.091-.082l.016-.015.015-.017c.028-.029.056-.059.081-.09s.028-.038.042-.057m-14.133-11.762-7.359,7.359V97.828Zm-5.29-9.428H363.86l-7.359,7.359Zm7.359,11.5,7.359,7.359H349.143Zm2.069-2.069,7.359-7.359v14.718Z" transform="translate(-284.492 -77.174)" fill="#42c8c6"/>
          <path id="Path_1242897" data-name="Path 1242897" d="M50.02,94.152c0-.02-.006-.039-.008-.059S50,94.038,50,94.011s-.011-.046-.017-.069-.011-.047-.018-.07-.015-.045-.023-.067-.016-.045-.025-.068-.019-.041-.028-.061-.021-.046-.033-.068-.022-.038-.033-.057-.026-.045-.04-.066-.029-.039-.043-.059-.027-.038-.042-.056-.053-.061-.081-.09l-.015-.017-.016-.015c-.029-.028-.059-.056-.091-.082s-.035-.026-.053-.039-.041-.032-.063-.046-.041-.025-.062-.037-.04-.025-.061-.036-.041-.02-.062-.03-.045-.022-.068-.031l-.06-.022c-.025-.009-.05-.019-.075-.026l-.059-.015c-.027-.007-.053-.014-.08-.02s-.044-.007-.065-.01-.05-.009-.076-.011-.072,0-.109-.006l-.035,0H26.783l-.035,0c-.036,0-.072,0-.109.006s-.051.007-.076.011l-.065.01c-.027.005-.053.013-.08.02s-.04.009-.059.015-.05.017-.075.026l-.06.022c-.023.01-.045.021-.068.031s-.042.019-.062.03-.041.024-.061.036-.042.024-.062.037-.042.031-.063.046-.036.025-.053.039-.062.054-.091.082l-.016.015-.015.017c-.028.029-.056.059-.081.09s-.028.037-.042.056-.03.038-.043.059-.027.044-.04.066-.023.037-.033.057-.022.046-.033.069-.02.04-.028.061-.017.045-.025.068-.016.044-.023.067-.012.046-.018.07-.012.045-.017.069-.009.055-.013.083-.006.039-.008.059a1.413,1.413,0,0,0-.007.146v21.78c0,.049,0,.1.007.146,0,.02.006.039.008.059s.007.056.013.083.011.046.017.069.011.047.018.07.015.045.023.067.016.046.025.068.019.041.028.061.021.046.033.069.022.038.033.057.026.045.04.066.029.039.043.059.027.038.042.056.053.061.081.09l.015.017.016.015c.029.028.059.056.091.082s.035.026.053.039.041.032.063.046.041.025.062.038.04.025.061.036l.064.031c.022.01.043.021.066.031s.042.016.063.023.047.018.072.025l.064.016c.025.006.05.013.075.018s.05.008.075.011.044.007.066.01c.048,0,.1.007.144.007H48.564c.048,0,.1,0,.144-.007.022,0,.044-.006.066-.01s.05-.006.075-.011.05-.012.075-.018.043-.01.064-.016.048-.016.072-.025.042-.014.063-.023.044-.02.066-.031.043-.02.064-.031.041-.024.061-.036.042-.024.062-.038.042-.031.063-.046.036-.025.053-.039.062-.054.091-.082l.016-.015.015-.017c.028-.029.056-.059.081-.09s.028-.037.042-.056.03-.038.043-.059.027-.044.04-.066.023-.037.033-.057.022-.045.033-.068.02-.04.028-.061.017-.045.025-.068.017-.044.023-.067.012-.046.018-.07.012-.045.017-.069.009-.055.013-.083.006-.039.008-.059a1.414,1.414,0,0,0,.007-.146V94.3a1.413,1.413,0,0,0-.007-.146M35.6,105.188l-7.359,7.359V97.829Zm-5.29-9.428H45.032l-7.359,7.359Zm7.359,11.5,7.359,7.359H30.315Zm2.069-2.069L47.1,97.829v14.718Z" transform="translate(-20.931 -77.175)" fill="#42c8c6"/>
        </g>
      </g>
    </g>
  </g>
</svg>
