<svg xmlns="http://www.w3.org/2000/svg" xmlns:xlink="http://www.w3.org/1999/xlink" width="90" height="90" viewBox="0 0 90 90">
  <defs>
    <clipPath id="clip-path">
      <rect id="Rectangle_412463" data-name="Rectangle 412463" width="88" height="88" fill="none"/>
    </clipPath>
  </defs>
  <g id="Group_1220859" data-name="Group 1220859" transform="translate(1473 3164)">
    <rect id="Rectangle_412445" data-name="Rectangle 412445" width="90" height="90" transform="translate(-1473 -3164)" fill="none"/>
    <g id="Group_1220849" data-name="Group 1220849" transform="translate(-1472 -3163)">
      <g id="Group_1220848" data-name="Group 1220848" clip-path="url(#clip-path)">
        <path id="Path_1242914" data-name="Path 1242914" d="M43.369,45a1.369,1.369,0,1,0,0,2.739H63.911a1.369,1.369,0,0,0,0-2.739Zm0,5.478a1.369,1.369,0,1,0,0,2.739H63.911a1.369,1.369,0,0,0,0-2.739Zm0,5.478a1.369,1.369,0,1,0,0,2.739H63.911a1.369,1.369,0,0,0,0-2.739Z" transform="translate(15.516 16.625)" fill="#cfd8dc" fill-rule="evenodd"/>
        <path id="Path_1242915" data-name="Path 1242915" d="M6.369,38a1.369,1.369,0,1,0,0,2.739H26.911a1.369,1.369,0,1,0,0-2.739Zm0,5.478a1.369,1.369,0,1,0,0,2.739H26.911a1.369,1.369,0,1,0,0-2.739Zm0,5.478a1.369,1.369,0,0,0,0,2.739H26.911a1.369,1.369,0,0,0,0-2.739Z" transform="translate(1.847 14.038)" fill="#cfd8dc" fill-rule="evenodd"/>
        <path id="Path_1242916" data-name="Path 1242916" d="M53.64,17a6.847,6.847,0,1,0,6.847,6.847A6.867,6.867,0,0,0,53.64,17m-.514,16.433A11.147,11.147,0,0,0,42,44.56v2.568a4.129,4.129,0,0,0,4.108,4.108H61.172a4.129,4.129,0,0,0,4.108-4.108V44.56A11.147,11.147,0,0,0,54.154,33.433Z" transform="translate(15.516 6.28)" fill="#42a5f5" fill-rule="evenodd"/>
        <path id="Path_1242917" data-name="Path 1242917" d="M20.529,22.34a3.032,3.032,0,0,0-2.565,1.4l-2.688,4.3L14.7,26.881a3.133,3.133,0,0,0-5.379-.253L5.208,33.2A1.378,1.378,0,0,0,5,33.969v1.6A4.129,4.129,0,0,0,9.11,39.677H24.174a4.129,4.129,0,0,0,4.108-4.108v-1.38a1.374,1.374,0,0,0-.144-.6Q25.74,28.8,23.346,24a3.048,3.048,0,0,0-2.617-1.658h-.2Z" transform="translate(1.848 8.253)" fill="#69f0ae" fill-rule="evenodd"/>
        <path id="Path_1242918" data-name="Path 1242918" d="M9.108,17A4.129,4.129,0,0,0,5,21.108V35.917a1.4,1.4,0,0,1,.208-.744L9.316,28.6a3.133,3.133,0,0,1,5.379.253l.581,1.164,2.688-4.3a3.133,3.133,0,0,1,5.379.257q2.393,4.794,4.793,9.586l.144.6V21.108A4.129,4.129,0,0,0,24.172,17Z" transform="translate(1.847 6.28)" fill="#42a5f5" fill-rule="evenodd"/>
        <path id="Path_1242919" data-name="Path 1242919" d="M54.054,5.5a2.054,2.054,0,1,0,2.054,2.054A2.055,2.055,0,0,0,54.054,5.5" transform="translate(19.211 2.032)" fill="#69f0ae" fill-rule="evenodd"/>
        <path id="Path_1242920" data-name="Path 1242920" d="M49.054,5.5a2.054,2.054,0,1,0,2.054,2.054A2.055,2.055,0,0,0,49.054,5.5" transform="translate(17.363 2.032)" fill="#ffee58" fill-rule="evenodd"/>
        <path id="Path_1242921" data-name="Path 1242921" d="M44.054,5.5a2.054,2.054,0,1,0,2.054,2.054A2.055,2.055,0,0,0,44.054,5.5" transform="translate(15.516 2.032)" fill="#ef5350" fill-rule="evenodd"/>
        <path id="Path_1242922" data-name="Path 1242922" d="M16.054,5.5a2.054,2.054,0,1,0,2.054,2.054A2.055,2.055,0,0,0,16.054,5.5" transform="translate(5.172 2.032)" fill="#69f0ae" fill-rule="evenodd"/>
        <path id="Path_1242923" data-name="Path 1242923" d="M11.054,5.5a2.054,2.054,0,1,0,2.054,2.054A2.055,2.055,0,0,0,11.054,5.5" transform="translate(3.325 2.032)" fill="#ffee58" fill-rule="evenodd"/>
        <path id="Path_1242924" data-name="Path 1242924" d="M6.054,5.5A2.054,2.054,0,1,0,8.108,7.554,2.055,2.055,0,0,0,6.054,5.5" transform="translate(1.478 2.032)" fill="#ef5350" fill-rule="evenodd"/>
        <path id="Path_1242925" data-name="Path 1242925" d="M37,12V79.1a4.129,4.129,0,0,0,4.108,4.108H69.866A4.129,4.129,0,0,0,73.975,79.1V12Zm18.487,6.847a6.847,6.847,0,1,1-6.847,6.847,6.867,6.867,0,0,1,6.847-6.847M54.974,35.28H56A11.147,11.147,0,0,1,67.128,46.407v2.568a4.129,4.129,0,0,1-4.108,4.108H47.955a4.129,4.129,0,0,1-4.108-4.108V46.407A11.147,11.147,0,0,1,54.974,35.28M45.217,57.191H65.758a1.369,1.369,0,0,1,0,2.739H45.217a1.369,1.369,0,1,1,0-2.739m0,5.478H65.758a1.369,1.369,0,0,1,0,2.739H45.217a1.369,1.369,0,1,1,0-2.739m0,5.478H65.758a1.369,1.369,0,0,1,0,2.739H45.217a1.369,1.369,0,1,1,0-2.739" transform="translate(13.669 4.433)" fill="#f5f5f5" fill-rule="evenodd"/>
        <path id="Path_1242926" data-name="Path 1242926" d="M41.108,0A4.129,4.129,0,0,0,37,4.108V16.433H73.975V4.108A4.129,4.129,0,0,0,69.866,0ZM45.9,7.532a2.054,2.054,0,1,1-2.054,2.054A2.055,2.055,0,0,1,45.9,7.532m6.847,0a2.054,2.054,0,1,1-2.054,2.054,2.055,2.055,0,0,1,2.054-2.054m6.847,0a2.054,2.054,0,1,1-2.054,2.054A2.055,2.055,0,0,1,59.6,7.532" transform="translate(13.669)" fill="#cfd8dc" fill-rule="evenodd"/>
        <rect id="Rectangle_412462" data-name="Rectangle 412462" width="24" height="11.556" rx="3" transform="translate(7.111 69.333)" fill="#ef5350"/>
        <path id="Path_1242927" data-name="Path 1242927" d="M38.433,17a4.129,4.129,0,0,0-4.108,4.108V66.3a1.349,1.349,0,0,1-1.369,1.369H22v2.739H32.955A4.129,4.129,0,0,0,37.064,66.3V21.108a1.349,1.349,0,0,1,1.369-1.369h4.108V17Z" transform="translate(8.128 6.28)" fill="#cfd8dc" fill-rule="evenodd"/>
        <path id="Path_1242928" data-name="Path 1242928" d="M0,12V79.1a4.129,4.129,0,0,0,4.108,4.108H32.866A4.129,4.129,0,0,0,36.975,79.1V72.255H30.128a4.129,4.129,0,0,1-4.108,4.108H10.955a4.129,4.129,0,0,1-4.108-4.108V69.516a4.129,4.129,0,0,1,4.108-4.108H26.019a4.129,4.129,0,0,1,4.108,4.108h6.847V12Zm10.955,6.847H26.019a4.129,4.129,0,0,1,4.108,4.108V39.389A4.129,4.129,0,0,1,26.019,43.5H10.955a4.129,4.129,0,0,1-4.108-4.108V22.955a4.129,4.129,0,0,1,4.108-4.108M8.217,47.605H28.758a1.369,1.369,0,0,1,0,2.739H8.217a1.369,1.369,0,0,1,0-2.739m0,5.478H28.758a1.369,1.369,0,1,1,0,2.739H8.217a1.369,1.369,0,1,1,0-2.739m0,5.478H28.758a1.369,1.369,0,0,1,0,2.739H8.217a1.369,1.369,0,0,1,0-2.739" transform="translate(0 4.433)" fill="#f5f5f5" fill-rule="evenodd"/>
        <path id="Path_1242929" data-name="Path 1242929" d="M4.108,0A4.129,4.129,0,0,0,0,4.108V16.433H36.975V4.108A4.129,4.129,0,0,0,32.866,0ZM7.532,7.532A2.054,2.054,0,1,1,5.478,9.586,2.055,2.055,0,0,1,7.532,7.532m6.847,0a2.054,2.054,0,1,1-2.054,2.054,2.055,2.055,0,0,1,2.054-2.054m6.847,0a2.054,2.054,0,1,1-2.054,2.054,2.055,2.055,0,0,1,2.054-2.054" fill="#cfd8dc" fill-rule="evenodd"/>
        <path id="Path_1242930" data-name="Path 1242930" d="M4.108,0A4.129,4.129,0,0,0,0,4.108V83.535a4.129,4.129,0,0,0,4.108,4.108H32.866a4.129,4.129,0,0,0,4.108-4.108V76.688h4.108a4.129,4.129,0,0,0,4.108-4.108V27.389a1.349,1.349,0,0,1,1.369-1.369h4.108V83.535a4.129,4.129,0,0,0,4.108,4.108H83.535a4.129,4.129,0,0,0,4.108-4.108V4.108A4.129,4.129,0,0,0,83.535,0H54.777a4.129,4.129,0,0,0-4.108,4.108V23.28H46.561a4.129,4.129,0,0,0-4.108,4.108V72.58a1.349,1.349,0,0,1-1.369,1.369H36.975V4.108A4.129,4.129,0,0,0,32.866,0Zm0,2.739H32.866a1.349,1.349,0,0,1,1.369,1.369V16.433H2.739V4.108A1.349,1.349,0,0,1,4.108,2.739m50.669,0H83.535A1.349,1.349,0,0,1,84.9,4.108V16.433h-31.5V4.108a1.349,1.349,0,0,1,1.369-1.369M2.739,19.172h31.5V73.949H30.128a4.129,4.129,0,0,0-4.108-4.108H10.955a4.129,4.129,0,0,0-4.108,4.108v2.739A4.129,4.129,0,0,0,10.955,80.8H26.019a4.129,4.129,0,0,0,4.108-4.108h4.108v6.847A1.349,1.349,0,0,1,32.866,84.9H4.108a1.349,1.349,0,0,1-1.369-1.369Zm50.669,0H84.9V83.535A1.349,1.349,0,0,1,83.535,84.9H54.777a1.349,1.349,0,0,1-1.369-1.369ZM10.955,23.28a4.129,4.129,0,0,0-4.108,4.108V43.822a4.129,4.129,0,0,0,4.108,4.108H26.019a4.129,4.129,0,0,0,4.108-4.108V27.389a4.129,4.129,0,0,0-4.108-4.108Zm58.2,0A6.847,6.847,0,1,0,76,30.128a6.867,6.867,0,0,0-6.847-6.847m-58.2,2.739H26.019a1.349,1.349,0,0,1,1.369,1.369v9.266l-2.2-4.4A3.133,3.133,0,0,0,19.812,32l-2.688,4.3-.581-1.161a3.134,3.134,0,0,0-5.379-.253L9.586,37.4V27.389a1.349,1.349,0,0,1,1.369-1.369m58.2,0a4.108,4.108,0,1,1-4.108,4.108,4.087,4.087,0,0,1,4.108-4.108M22.739,33.479l3.336,6.673,1.313,2.624v1.046a1.349,1.349,0,0,1-1.369,1.369H21.571l-3.011-6.02,3.573-5.721c.186-.3.459-.268.607.029M14.093,36.36l4.416,8.831H10.955a1.349,1.349,0,0,1-1.369-1.369V42.57l3.9-6.241C13.671,36.033,13.944,36.063,14.093,36.36Zm54.55,3.354A11.148,11.148,0,0,0,57.516,50.84v2.568a4.129,4.129,0,0,0,4.108,4.108H76.688A4.129,4.129,0,0,0,80.8,53.408V50.84A11.147,11.147,0,0,0,69.67,39.714Zm0,2.739H69.67a8.366,8.366,0,0,1,8.388,8.388v2.568a1.349,1.349,0,0,1-1.369,1.369H61.625a1.349,1.349,0,0,1-1.369-1.369V50.84a8.366,8.366,0,0,1,8.388-8.388M10.955,72.58H26.019a1.349,1.349,0,0,1,1.369,1.369v2.739a1.349,1.349,0,0,1-1.369,1.369H10.955a1.349,1.349,0,0,1-1.369-1.369V73.949a1.349,1.349,0,0,1,1.369-1.369" fill-rule="evenodd"/>
      </g>
    </g>
  </g>
</svg>
