<svg id="Group_1220828" data-name="Group 1220828" xmlns="http://www.w3.org/2000/svg" xmlns:xlink="http://www.w3.org/1999/xlink" width="101" height="101" viewBox="0 0 101 101">
  <defs>
    <clipPath id="clip-path">
      <rect id="Rectangle_412420" data-name="Rectangle 412420" width="96.096" height="101" fill="none"/>
    </clipPath>
  </defs>
  <rect id="Rectangle_412414" data-name="Rectangle 412414" width="101" height="101" fill="none"/>
  <g id="Group_1220820" data-name="Group 1220820" transform="translate(3.452)">
    <g id="Group_1220819" data-name="Group 1220819" clip-path="url(#clip-path)">
      <path id="Path_1242764" data-name="Path 1242764" d="M100.624,407.364l-8.23-16.353a1.635,1.635,0,0,0-1.46-.9h-73.2a1.635,1.635,0,0,0-1.472.908L8.141,407.372a1.635,1.635,0,0,0,1.47,2.363H99.164a1.635,1.635,0,0,0,1.46-2.371" transform="translate(-6.34 -310.37)" fill="#2488ff"/>
      <path id="Path_1242765" data-name="Path 1242765" d="M75.916,263.02l-8.135,16.353a1.635,1.635,0,0,0,1.464,2.363h65.024a1.635,1.635,0,0,0,1.462-2.37l-8.217-16.353a1.635,1.635,0,0,0-1.467-.9H77.38a1.635,1.635,0,0,0-1.464.908" transform="translate(-53.79 -208.534)" fill="#7ed63e"/>
      <path id="Path_1242766" data-name="Path 1242766" d="M135.574,135.02l-8.121,16.353a1.635,1.635,0,0,0,1.464,2.363h40.5a1.635,1.635,0,0,0,1.46-2.371l-8.23-16.353a1.635,1.635,0,0,0-1.46-.9H137.039A1.635,1.635,0,0,0,135.574,135.02Z" transform="translate(-101.265 -106.699)" fill="#ffcd00"/>
      <path id="Path_1242767" data-name="Path 1242767" d="M204.483,27.224a1.635,1.635,0,0,0,1.462-2.369L197.912,8.887a1.635,1.635,0,0,0-2.925,0l-7.934,15.967a1.635,1.635,0,0,0,1.472,2.363Z" transform="translate(-148.681 -6.351)" fill="#ed1c24"/>
      <path id="Path_1242768" data-name="Path 1242768" d="M100.651,407.364l-8.23-16.353a1.635,1.635,0,0,0-1.46-.9H87.073L94.1,404.093a1.635,1.635,0,0,1-1.455,2.371H8.623l-.449.908a1.635,1.635,0,0,0,1.463,2.363H99.19a1.635,1.635,0,0,0,1.46-2.371" transform="translate(-6.367 -310.37)" fill="#006df0"/>
      <path id="Path_1242769" data-name="Path 1242769" d="M135.731,279.366l-8.217-16.353a1.635,1.635,0,0,0-1.467-.9h-3.884l7.032,13.983a1.635,1.635,0,0,1-1.467,2.369h-59.5l-.451.908a1.635,1.635,0,0,0,1.464,2.363h65.024a1.635,1.635,0,0,0,1.462-2.37" transform="translate(-53.79 -208.534)" fill="#5eac24"/>
      <path id="Path_1242770" data-name="Path 1242770" d="M170.853,151.364l-8.23-16.353a1.635,1.635,0,0,0-1.46-.9h-3.887l7.032,13.981a1.635,1.635,0,0,1-1.455,2.371H127.878l-.45.908a1.635,1.635,0,0,0,1.468,2.363h40.5a1.635,1.635,0,0,0,1.46-2.371Z" transform="translate(-101.245 -106.699)" fill="#ebbf00"/>
      <path id="Path_1242771" data-name="Path 1242771" d="M205.945,24.854,197.912,8.887a1.635,1.635,0,0,0-2.925,0l-.981,1.962,5.4,10.722a1.635,1.635,0,0,1-1.46,2.381H187.5l-.451.908a1.635,1.635,0,0,0,1.472,2.363h15.965a1.635,1.635,0,0,0,1.455-2.369" transform="translate(-148.681 -6.351)" fill="#d80027"/>
      <path id="Path_1242772" data-name="Path 1242772" d="M92.824,405.006H3.271A3.27,3.27,0,0,1,.342,400.28l8.122-16.353a3.249,3.249,0,0,1,2.929-1.815h73.2a3.257,3.257,0,0,1,2.922,1.8l8.23,16.353a3.271,3.271,0,0,1-2.922,4.742M11.393,385.382,3.271,401.735H92.824l-8.23-16.353Z" transform="translate(0 -304.005)" fill="#231f20"/>
      <path id="Path_1242773" data-name="Path 1242773" d="M127.9,277.005H62.876a3.271,3.271,0,0,1-2.929-4.728l8.137-16.353a3.249,3.249,0,0,1,2.927-1.814h48.667a3.259,3.259,0,0,1,2.922,1.8l8.215,16.353a3.27,3.27,0,0,1-2.915,4.742Zm-8.222-19.623H71.012l-8.135,16.353H127.9l1.462-.734-1.462.734Z" transform="translate(-47.421 -202.169)" fill="#231f20"/>
      <path id="Path_1242774" data-name="Path 1242774" d="M163.045,149.005h-40.5a3.27,3.27,0,0,1-2.929-4.726l8.122-16.353a3.245,3.245,0,0,1,2.929-1.815h24.143a3.257,3.257,0,0,1,2.922,1.8l8.23,16.353a3.271,3.271,0,0,1-2.922,4.742m-8.23-19.623H130.672l-8.126,16.353h40.5Z" transform="translate(-94.897 -100.334)" fill="#231f20"/>
      <path id="Path_1242775" data-name="Path 1242775" d="M198.123,22.508H182.158a3.27,3.27,0,0,1-2.929-4.726l7.933-15.967A3.265,3.265,0,0,1,193,1.8l8.041,15.967a3.271,3.271,0,0,1-2.922,4.742m-15.965-3.271h15.965L190.09,3.27Z" transform="translate(-142.321 0)" fill="#231f20"/>
    </g>
  </g>
</svg>
