<svg xmlns="http://www.w3.org/2000/svg" xmlns:xlink="http://www.w3.org/1999/xlink" width="101" height="101" viewBox="0 0 101 101">
  <defs>
    <clipPath id="clip-path">
      <rect id="Rectangle_412422" data-name="Rectangle 412422" width="101" height="87" transform="translate(0 0)" fill="none"/>
    </clipPath>
  </defs>
  <g id="Group_1220825" data-name="Group 1220825" transform="translate(5932 7934)">
    <rect id="Rectangle_412417" data-name="Rectangle 412417" width="101" height="101" transform="translate(-5932 -7934)" fill="none"/>
    <g id="Group_1220824" data-name="Group 1220824" transform="translate(-5932.471 -7927.495)">
      <g id="Group_1220823" data-name="Group 1220823" transform="translate(0.47 0.495)" clip-path="url(#clip-path)">
        <path id="Path_1242786" data-name="Path 1242786" d="M101.237,65.745A1.746,1.746,0,0,0,99.491,64H1.745A1.746,1.746,0,0,0,0,65.745v62.837a8.737,8.737,0,0,0,8.727,8.727H92.509a8.737,8.737,0,0,0,8.727-8.727Z" transform="translate(-0.236 -50.383)" fill="#f5f5f5"/>
        <path id="Path_1242787" data-name="Path 1242787" d="M101.237,8.727A8.737,8.737,0,0,0,92.509,0H8.727A8.737,8.737,0,0,0,0,8.727v8.727H101.237Z" transform="translate(-0.236 -0.346)" fill="#b857cf"/>
        <path id="Path_1242788" data-name="Path 1242788" d="M33.754,35.469a1.754,1.754,0,1,1,1.754-1.754,1.754,1.754,0,0,1-1.754,1.754" transform="translate(-25.254 -25.334)" fill="#e1b5ec"/>
        <path id="Path_1242789" data-name="Path 1242789" d="M65.714,35.508a1.754,1.754,0,1,1,1.754-1.745,1.755,1.755,0,0,1-1.754,1.745" transform="translate(-50.241 -25.365)" fill="#e1b5ec"/>
        <path id="Path_1242790" data-name="Path 1242790" d="M97.762,35.507a1.754,1.754,0,1,1,1.745-1.745,1.752,1.752,0,0,1-1.745,1.745" transform="translate(-75.29 -25.364)" fill="#e1b5ec"/>
        <path id="Path_1242791" data-name="Path 1242791" d="M35.491,240h80.291a3.491,3.491,0,0,1,3.491,3.491v20.946a3.491,3.491,0,0,1-3.491,3.491H35.491A3.491,3.491,0,0,1,32,264.436V243.491A3.491,3.491,0,0,1,35.491,240" transform="translate(-25.254 -187.983)" fill="#ff73af"/>
        <path id="Path_1242792" data-name="Path 1242792" d="M35.491,96H70.4a3.491,3.491,0,0,1,3.491,3.491v20.946a3.491,3.491,0,0,1-3.491,3.491H35.491A3.491,3.491,0,0,1,32,120.436V99.491A3.491,3.491,0,0,1,35.491,96" transform="translate(-25.254 -75.401)" fill="#ffb74f"/>
        <path id="Path_1242793" data-name="Path 1242793" d="M314.473,123.491h-8.727a1.745,1.745,0,0,1,0-3.491h8.727a1.745,1.745,0,1,1,0,3.491" transform="translate(-237.909 -94.165)" fill="#57555c"/>
        <path id="Path_1242794" data-name="Path 1242794" d="M386.473,123.491h-8.727a1.745,1.745,0,0,1,0-3.491h8.727a1.745,1.745,0,0,1,0,3.491" transform="translate(-294.199 -94.165)" fill="#57555c"/>
        <path id="Path_1242795" data-name="Path 1242795" d="M405.236,155.491h-3.491a1.745,1.745,0,0,1,0-3.491h3.491a1.745,1.745,0,0,1,0,3.491" transform="translate(-312.963 -119.183)" fill="#57555c"/>
        <path id="Path_1242796" data-name="Path 1242796" d="M269.673,155.491H241.745a1.745,1.745,0,0,1,0-3.491h27.927a1.745,1.745,0,0,1,0,3.491" transform="translate(-187.872 -119.183)" fill="#57555c"/>
        <path id="Path_1242797" data-name="Path 1242797" d="M330.182,187.491H305.745a1.745,1.745,0,0,1,0-3.491h24.436a1.745,1.745,0,1,1,0,3.491" transform="translate(-237.909 -144.201)" fill="#57555c"/>
        <path id="Path_1242798" data-name="Path 1242798" d="M248.727,123.491h-6.982a1.745,1.745,0,0,1,0-3.491h6.982a1.745,1.745,0,1,1,0,3.491" transform="translate(-187.872 -94.165)" fill="#57555c"/>
        <path id="Path_1242799" data-name="Path 1242799" d="M248.727,187.491h-6.982a1.745,1.745,0,0,1,0-3.491h6.982a1.745,1.745,0,1,1,0,3.491" transform="translate(-187.872 -144.201)" fill="#57555c"/>
        <path id="Path_1242800" data-name="Path 1242800" d="M92.509,0H8.727A8.737,8.737,0,0,0,0,8.727V78.546a8.737,8.737,0,0,0,8.727,8.727H92.509a8.737,8.737,0,0,0,8.727-8.727V8.727A8.737,8.737,0,0,0,92.509,0M8.727,3.491H92.509a5.237,5.237,0,0,1,5.236,5.236v5.236H3.491V8.727A5.237,5.237,0,0,1,8.727,3.491M92.509,83.782H8.727a5.237,5.237,0,0,1-5.236-5.236V17.455H97.746V78.546a5.237,5.237,0,0,1-5.236,5.236" transform="translate(-0.236 -0.346)" fill="#5b1a6e"/>
        <path id="Path_1242801" data-name="Path 1242801" d="M35.508,33.715a1.754,1.754,0,1,1-1.754-1.754,1.754,1.754,0,0,1,1.754,1.754" transform="translate(-25.254 -25.334)" fill="#5b1a6e"/>
        <path id="Path_1242802" data-name="Path 1242802" d="M67.469,33.754A1.754,1.754,0,1,1,65.715,32a1.754,1.754,0,0,1,1.754,1.754" transform="translate(-50.242 -25.365)" fill="#5b1a6e"/>
        <path id="Path_1242803" data-name="Path 1242803" d="M99.548,33.754A1.754,1.754,0,1,1,97.793,32a1.754,1.754,0,0,1,1.755,1.754" transform="translate(-75.321 -25.365)" fill="#5b1a6e"/>
        <path id="Path_1242804" data-name="Path 1242804" d="M115.782,240H35.491A3.491,3.491,0,0,0,32,243.491v20.946a3.491,3.491,0,0,0,3.491,3.491h80.291a3.491,3.491,0,0,0,3.491-3.491V243.491A3.491,3.491,0,0,0,115.782,240m0,24.436H35.491V243.491h80.291Z" transform="translate(-25.254 -187.983)" fill="#5b1a6e"/>
        <path id="Path_1242805" data-name="Path 1242805" d="M35.491,123.927H70.4a3.491,3.491,0,0,0,3.491-3.491V99.491A3.491,3.491,0,0,0,70.4,96H35.491A3.491,3.491,0,0,0,32,99.491v20.946a3.491,3.491,0,0,0,3.491,3.491m0-24.436H70.4v20.946H35.491Z" transform="translate(-25.254 -75.401)" fill="#5b1a6e"/>
        <path id="Path_1242806" data-name="Path 1242806" d="M305.745,123.491h8.727a1.745,1.745,0,1,0,0-3.491h-8.727a1.745,1.745,0,0,0,0,3.491" transform="translate(-237.909 -94.165)" fill="#5b1a6e"/>
        <path id="Path_1242807" data-name="Path 1242807" d="M386.473,120h-8.727a1.745,1.745,0,0,0,0,3.491h8.727a1.745,1.745,0,0,0,0-3.491" transform="translate(-294.199 -94.165)" fill="#5b1a6e"/>
        <path id="Path_1242808" data-name="Path 1242808" d="M405.236,152h-3.491a1.745,1.745,0,0,0,0,3.491h3.491a1.745,1.745,0,0,0,0-3.491" transform="translate(-312.963 -119.183)" fill="#5b1a6e"/>
        <path id="Path_1242809" data-name="Path 1242809" d="M241.745,155.491h27.927a1.745,1.745,0,0,0,0-3.491H241.745a1.745,1.745,0,0,0,0,3.491" transform="translate(-187.872 -119.183)" fill="#5b1a6e"/>
        <path id="Path_1242810" data-name="Path 1242810" d="M330.182,184H305.745a1.745,1.745,0,0,0,0,3.491h24.436a1.745,1.745,0,1,0,0-3.491" transform="translate(-237.909 -144.201)" fill="#5b1a6e"/>
        <path id="Path_1242811" data-name="Path 1242811" d="M241.745,123.491h6.982a1.745,1.745,0,1,0,0-3.491h-6.982a1.745,1.745,0,0,0,0,3.491" transform="translate(-187.872 -94.165)" fill="#5b1a6e"/>
        <path id="Path_1242812" data-name="Path 1242812" d="M241.745,187.491h6.982a1.745,1.745,0,1,0,0-3.491h-6.982a1.745,1.745,0,0,0,0,3.491" transform="translate(-187.872 -144.201)" fill="#5b1a6e"/>
      </g>
    </g>
  </g>
</svg>
