<svg id="Group_1220829" data-name="Group 1220829" xmlns="http://www.w3.org/2000/svg" xmlns:xlink="http://www.w3.org/1999/xlink" width="101" height="101" viewBox="0 0 101 101">
  <defs>
    <clipPath id="clip-path">
      <rect id="Rectangle_412418" data-name="Rectangle 412418" width="101" height="87.069" fill="none"/>
    </clipPath>
  </defs>
  <rect id="Rectangle_412413" data-name="Rectangle 412413" width="101" height="101" fill="none"/>
  <g id="Group_1220816" data-name="Group 1220816" transform="translate(0 6.966)">
    <g id="Group_1220815" data-name="Group 1220815" clip-path="url(#clip-path)">
      <path id="Path_1242747" data-name="Path 1242747" d="M76.721,124.117v15.707A38.323,38.323,0,0,1,35.694,77.03l9.856,9.856a24.372,24.372,0,0,0,31.171,37.231" transform="translate(-19.256 -60.591)" fill="#f45151"/>
      <path id="Path_1242748" data-name="Path 1242748" d="M142.436,62.79a38.542,38.542,0,0,1-2.612,13.931H124.117a24,24,0,0,0,4.388-13.931,24.381,24.381,0,0,0-41.619-17.24L77.03,35.694a38.319,38.319,0,0,1,65.406,27.1" transform="translate(-60.591 -19.256)" fill="#f45151"/>
      <path id="Path_1242749" data-name="Path 1242749" d="M114.139,89.76a24.379,24.379,0,1,0,13.931,44.37v-2.577a3.493,3.493,0,0,1,3.483-3.483h2.577a24,24,0,0,0,4.388-13.931A24.362,24.362,0,0,0,114.139,89.76m0,34.828a10.448,10.448,0,1,1,10.448-10.448,10.434,10.434,0,0,1-10.448,10.448" transform="translate(-70.605 -70.605)" fill="#ffc943"/>
      <path id="Path_1242750" data-name="Path 1242750" d="M269.493,269.28H310.86a.213.213,0,0,1,.213.213v27.435a.213.213,0,0,1-.213.213H269.493a.213.213,0,0,1-.213-.213V269.493a.213.213,0,0,1,.213-.213" transform="translate(-211.815 -211.815)" fill="#43b3ff"/>
      <path id="Path_1242751" data-name="Path 1242751" d="M175.937,165.488a10.442,10.442,0,1,1-10.448-10.448,10.434,10.434,0,0,1,10.448,10.448" transform="translate(-121.954 -121.954)" fill="#f2f2f2"/>
      <path id="Path_1242752" data-name="Path 1242752" d="M301.172,261.12H266.344a5.23,5.23,0,0,0-5.224,5.224v20.9a5.23,5.23,0,0,0,5.224,5.224h34.828a5.23,5.23,0,0,0,5.224-5.224v-20.9a5.23,5.23,0,0,0-5.224-5.224m1.741,26.121a1.745,1.745,0,0,1-1.741,1.741H266.344a1.745,1.745,0,0,1-1.741-1.741v-20.9a1.745,1.745,0,0,1,1.741-1.741h34.828a1.745,1.745,0,0,1,1.741,1.741Z" transform="translate(-205.396 -205.396)"/>
      <path id="Path_1242753" data-name="Path 1242753" d="M324.028,293.881a1.745,1.745,0,0,0-.665-.134l-6.966,0a1.741,1.741,0,1,0,0,3.483l2.763,0-6.246,6.246-5.738-5.734a1.741,1.741,0,0,0-2.462,0L294.27,308.189a1.741,1.741,0,1,0,2.462,2.462l9.214-9.217,5.738,5.734a1.741,1.741,0,0,0,2.462,0l7.474-7.474,0,2.76a1.741,1.741,0,0,0,3.483,0l0-6.965a1.747,1.747,0,0,0-1.076-1.608" transform="translate(-231.07 -231.058)"/>
      <path id="Path_1242754" data-name="Path 1242754" d="M351.125,126.023a1.689,1.689,0,0,0,.32.031,1.736,1.736,0,0,0,1.707-1.425,39.755,39.755,0,0,0,.579-5.541h1.819a1.741,1.741,0,0,0,0-3.483h-1.807a39.58,39.58,0,0,0-7.04-21.019,1.74,1.74,0,0,0-2.857,1.986,36.151,36.151,0,0,1,6.414,19.033h-1.676a1.741,1.741,0,0,0,0,3.483h1.664a36.417,36.417,0,0,1-.518,4.908,1.737,1.737,0,0,0,1.394,2.027" transform="translate(-270.222 -73.812)"/>
      <path id="Path_1242755" data-name="Path 1242755" d="M3.571,41.793H1.741a1.741,1.741,0,0,0,0,3.483h1.83A40.04,40.04,0,0,0,41.793,83.5v1.83a1.741,1.741,0,0,0,3.483,0V83.508a39.758,39.758,0,0,0,5.54-.579,1.74,1.74,0,1,0-.633-3.422,36.378,36.378,0,0,1-4.908.518V78.362a1.741,1.741,0,1,0-3.483,0v1.653A36.555,36.555,0,0,1,7.054,45.276H8.707a1.741,1.741,0,0,0,0-3.483H7.054a36.369,36.369,0,0,1,9.462-22.815L23.9,26.363A26.11,26.11,0,0,0,51,68.574,1.742,1.742,0,0,0,50,65.234,22.617,22.617,0,0,1,26.362,28.825l7.444,7.444a12.073,12.073,0,0,0-2.461,7.266,12.19,12.19,0,1,0,12.19-12.19,12.073,12.073,0,0,0-7.266,2.461l-7.444-7.444A22.63,22.63,0,0,1,65.234,50a1.742,1.742,0,0,0,3.34.993A26.092,26.092,0,0,0,26.363,23.9l-7.385-7.385A36.369,36.369,0,0,1,41.793,7.054V8.707a1.741,1.741,0,0,0,3.483,0V7.031a36.15,36.15,0,0,1,19.033,6.414,1.74,1.74,0,1,0,1.986-2.857,39.581,39.581,0,0,0-21.019-7.04V1.741a1.741,1.741,0,0,0-3.483,0v1.83A39.839,39.839,0,0,0,16.517,14.055L10.448,7.986V1.741a1.741,1.741,0,0,0-3.483,0V6.966H1.741a1.741,1.741,0,0,0,0,3.483H7.986l6.069,6.069A39.839,39.839,0,0,0,3.571,41.793m39.964-6.966a8.731,8.731,0,1,1-7.257,3.913L42.3,44.766A1.741,1.741,0,0,0,44.766,42.3L38.74,36.278a8.65,8.65,0,0,1,4.794-1.45"/>
      <path id="Path_1242756" data-name="Path 1242756" d="M325.753,71.873a1.741,1.741,0,1,0-2.463,0,1.741,1.741,0,0,0,2.463,0" transform="translate(-253.898 -54.196)"/>
    </g>
  </g>
</svg>
