<svg xmlns="http://www.w3.org/2000/svg" xmlns:xlink="http://www.w3.org/1999/xlink" width="90" height="90" viewBox="0 0 90 90">
  <defs>
    <clipPath id="clip-path">
      <rect id="Rectangle_412528" data-name="Rectangle 412528" width="90" height="85.78" fill="none" stroke="#000" stroke-width="3"/>
    </clipPath>
  </defs>
  <g id="Group_1220874" data-name="Group 1220874" transform="translate(-3099 7520)">
    <rect id="Rectangle_412499" data-name="Rectangle 412499" width="90" height="90" transform="translate(3099 -7520)" fill="none"/>
    <g id="Group_1220865" data-name="Group 1220865" transform="translate(3099 -7520)">
      <g id="Group_1220864" data-name="Group 1220864" clip-path="url(#clip-path)">
        <g id="Path_1242997" data-name="Path 1242997" fill="#7850ff">
          <path d="M 8.78813362121582 44.69255447387695 C 6.644685745239258 42.41886901855469 4.93104362487793 39.73464584350586 3.684741497039795 36.69496917724609 C 2.23505163192749 33.15925598144531 1.500001549720764 29.34395790100098 1.500001549720764 25.35505676269531 C 1.500001549720764 25.16833686828613 1.501851558685303 24.97962760925293 1.505511522293091 24.79416847229004 C 1.617271542549133 18.53467750549316 4.182671546936035 12.67214775085449 8.729171752929688 8.283727645874023 C 13.26107120513916 3.909157514572144 19.23712158203125 1.499997615814209 25.55648231506348 1.499997615814209 L 39.72546768188477 1.499997615814209 L 41.1610221862793 7.819344043731689 L 39.57720565795898 13.74373722076416 L 8.78813362121582 44.69255447387695 Z" stroke="none"/>
          <path d="M 25.55648231506348 2.999996185302734 C 19.62781143188477 2.999996185302734 14.02174186706543 5.259727478027344 9.770900726318359 9.36297607421875 C 5.512611389160156 13.47320938110352 3.109882354736328 18.96196746826172 3.005321502685547 24.81816673278809 L 3.005222320556641 24.82372665405273 C 3.001762390136719 24.9993782043457 3 25.17814826965332 3 25.35505676269531 C 3 29.1478271484375 3.697330474853516 32.77167892456055 5.072612762451172 36.12592697143555 C 6.041919708251953 38.49001693725586 7.308887481689453 40.624267578125 8.853824615478516 42.49969482421875 L 38.23147964477539 12.96961212158203 L 39.61616516113281 7.790088653564453 L 38.52800750732422 2.999996185302734 L 25.55648231506348 2.999996185302734 M 25.55648231506348 -3.814697265625e-06 L 40.92293167114258 -3.814697265625e-06 L 42.70588302612305 7.848587036132812 L 40.92293167114258 14.51784896850586 L 8.791522979736328 46.81597900390625 C 3.194473266601562 41.54302597045898 0 33.77066802978516 0 25.35505676269531 C 0 25.15712738037109 0.00193023681640625 24.96095848083496 0.005802154541015625 24.76460838317871 C 0.1246299743652344 18.10932731628418 2.852752685546875 11.87105941772461 7.687442779541016 7.2044677734375 C 12.50051116943359 2.558498382568359 18.84656143188477 -3.814697265625e-06 25.55648231506348 -3.814697265625e-06 Z" stroke="none" fill="#000"/>
        </g>
        <path id="Path_1242998" data-name="Path 1242998" d="M248.388,0H232.807V14.342l20.312,11.586,20.467-4.916A25.512,25.512,0,0,0,248.388,0" transform="translate(-191.884)" fill="#6228d5" stroke="#000" stroke-width="3"/>
        <g id="Path_1242999" data-name="Path 1242999" transform="translate(-37.234 -67.638)" fill="#ff646e">
          <path d="M 68.89108276367188 133.4689788818359 C 62.91318130493164 133.4357604980469 57.30979537963867 130.6768188476562 53.11265563964844 125.6996994018555 C 48.96127319335938 120.7766571044922 46.67499542236328 114.2508850097656 46.67499542236328 107.3245391845703 C 46.67499542236328 107.1396179199219 46.67668533325195 106.9521865844727 46.68002319335938 106.767448425293 C 46.79172515869141 100.5070877075195 49.35718536376953 94.64263916015625 53.90381622314453 90.25407409667969 C 58.43609619140625 85.87929534912109 64.41233062744141 83.47000885009766 70.73165130615234 83.47000885009766 L 84.80146789550781 83.47000885009766 L 86.55384826660156 109.7088470458984 L 84.81045532226562 133.3675384521484 L 68.89108276367188 133.4689788818359 Z" stroke="none"/>
          <path d="M 70.73165893554688 84.97000122070312 C 64.80302429199219 84.97000122070312 59.19674682617188 87.22987365722656 54.94554901123047 91.33332061767578 C 50.68712615966797 95.44368743896484 48.28432464599609 100.9343566894531 48.17977905273438 106.7945251464844 C 48.17659759521484 106.9706497192383 48.17498779296875 107.1489639282227 48.17498779296875 107.3245391845703 C 48.17498779296875 113.8974761962891 50.33580017089844 120.079833984375 54.25934600830078 124.7326965332031 C 58.16680908203125 129.3663024902344 63.36205291748047 131.9357299804688 68.89057922363281 131.9689331054688 L 83.416259765625 131.8764038085938 L 85.05016326904297 109.7035980224609 L 83.3983154296875 84.97000122070312 L 70.73165893554688 84.97000122070312 M 70.73165893554688 81.97000122070312 L 86.20463562011719 81.97000122070312 L 88.05754089355469 109.7139587402344 L 86.20463562011719 134.8586883544922 L 68.89192962646484 134.968994140625 C 62.46396636962891 134.9361267089844 56.45311737060547 131.9877319335938 51.96595001220703 126.6666870117188 C 47.58688354492188 121.4736404418945 45.17498779296875 114.6043548583984 45.17498779296875 107.3245391845703 C 45.17498779296875 107.12939453125 45.1767578125 106.934814453125 45.18026733398438 106.7403793334961 C 45.29909515380859 100.0800247192383 48.02721405029297 93.84157562255859 52.86208343505859 89.1748046875 C 57.67550659179688 84.52867126464844 64.02173614501953 81.97000122070312 70.73165893554688 81.97000122070312 Z" stroke="none" fill="#000"/>
        </g>
        <g id="Path_1243000" data-name="Path 1243000" transform="translate(-229.617 -67.638)" fill="#eb2d8c">
          <path d="M 286.8324279785156 150.0560455322266 L 286.067626953125 134.7457427978516 L 285.9959716796875 133.3114471435547 L 284.5599365234375 133.3206024169922 L 280.0880126953125 133.3491058349609 L 280.0880126953125 83.47001647949219 L 294.0620422363281 83.47001647949219 C 300.3814392089844 83.47001647949219 306.3573913574219 85.87928009033203 310.8890991210938 90.25400543212891 C 315.4354248046875 94.642578125 318.0007629394531 100.5070037841797 318.1126098632812 106.7669906616211 C 318.1158142089844 106.9527816772461 318.1174621582031 107.1406402587891 318.1174621582031 107.3245391845703 C 318.1174621582031 113.8203506469727 316.0724792480469 120.0468292236328 312.3591918945312 124.8569793701172 C 310.6756286621094 127.0377807617188 308.7126159667969 128.85595703125 306.524658203125 130.2610321044922 C 304.3563537597656 131.6534423828125 302.0191345214844 132.6066436767578 299.5778503417969 133.0941772460938 L 298.7615661621094 133.2571868896484 L 298.4679870605469 134.0361328125 C 296.5701293945312 139.0718383789062 293.2677917480469 143.8733367919922 288.6527099609375 148.3072662353516 L 286.8324279785156 150.0560455322266 Z" stroke="none"/>
          <path d="M 281.5880126953125 84.97000122070312 L 281.5880126953125 131.8395080566406 L 287.4224548339844 131.8023071289062 L 288.1659851074219 146.6865692138672 C 292.3299560546875 142.5608825683594 295.3220825195312 138.1300811767578 297.0643615722656 133.5071411132812 L 297.6514892578125 131.9492492675781 L 299.2841186523438 131.6232147216797 C 301.5408325195312 131.1725311279297 303.7041931152344 130.2895812988281 305.714111328125 128.9988708496094 C 307.7572326660156 127.6868133544922 309.5934753417969 125.9848861694336 311.1718139648438 123.9403762817383 C 314.6834716796875 119.3913803100586 316.6174621582031 113.4904251098633 316.6174621582031 107.3245391845703 C 316.6174621582031 107.1491546630859 316.6159057617188 106.9700317382812 316.6128540039062 106.7937927246094 C 316.5081787109375 100.9342651367188 314.10546875 95.44361877441406 309.8473205566406 91.33317565917969 C 305.5966796875 87.22982788085938 299.9906921386719 84.97000122070312 294.0620422363281 84.97000122070312 L 281.5880126953125 84.97000122070312 M 278.5880126953125 81.97000122070312 L 294.0620422363281 81.97000122070312 C 300.77197265625 81.97000122070312 307.1180419921875 84.52867126464844 311.930908203125 89.1748046875 C 316.7654113769531 93.84158325195312 319.4933776855469 100.0798645019531 319.6123657226562 106.7402038574219 C 319.61572265625 106.9337463378906 319.6174621582031 107.1290588378906 319.6174621582031 107.3245391845703 C 319.6174621582031 114.1504592895508 317.4613342285156 120.7024002075195 313.5465393066406 125.7735900878906 C 309.9472351074219 130.4359893798828 305.1405029296875 133.5129089355469 299.8716125488281 134.5651245117188 C 297.8937072753906 139.813232421875 294.4753112792969 144.7933197021484 289.6919250488281 149.3889312744141 L 285.4985046386719 153.4176940917969 L 284.5694885253906 134.820556640625 L 278.5880126953125 134.8586730957031 L 278.5880126953125 81.97000122070312 Z" stroke="none" fill="#000"/>
        </g>
      </g>
    </g>
  </g>
</svg>
