<svg id="Group_1220909" data-name="Group 1220909" xmlns="http://www.w3.org/2000/svg" xmlns:xlink="http://www.w3.org/1999/xlink" width="90" height="90" viewBox="0 0 90 90">
  <defs>
    <clipPath id="clip-path">
      <rect id="Rectangle_412563" data-name="Rectangle 412563" width="89.796" height="90" fill="none"/>
    </clipPath>
  </defs>
  <rect id="Rectangle_412513" data-name="Rectangle 412513" width="90" height="90" fill="none"/>
  <g id="Group_1220900" data-name="Group 1220900" transform="translate(0.204)">
    <g id="Group_1220899" data-name="Group 1220899" clip-path="url(#clip-path)">
      <path id="Path_1243125" data-name="Path 1243125" d="M44.469,22.354s1.354,5.031,5.253,5.264c0,0-5.2,1.8-5.293,5.644,0,0-1.025-5.394-5.135-5.587,0,0,4.788-.725,5.175-5.321" transform="translate(-31.488 -17.912)" fill="#d7e057"/>
      <path id="Path_1243126" data-name="Path 1243126" d="M42.025,31.457a.6.6,0,0,1-.585-.484c-.01-.049-.991-4.935-4.578-5.1a.6.6,0,0,1-.061-1.185c.175-.027,4.328-.722,4.671-4.782A.6.6,0,0,1,42.64,19.8c.013.046,1.295,4.62,4.714,4.825a.6.6,0,0,1,.16,1.158c-.048.017-4.815,1.713-4.892,5.095a.6.6,0,0,1-.546.58l-.05,0m-3.076-6.251a6.947,6.947,0,0,1,3.015,3.528,8.475,8.475,0,0,1,3.556-3.349,7.277,7.277,0,0,1-3.311-3.467,6.4,6.4,0,0,1-3.259,3.288" transform="translate(-29.084 -15.51)" fill="#3a312a"/>
      <path id="Path_1243127" data-name="Path 1243127" d="M7.18,56.316s.958,3.559,3.716,3.723c0,0-3.682,1.272-3.744,3.992,0,0-.725-3.815-3.632-3.952,0,0,3.387-.513,3.66-3.764" transform="translate(-2.821 -45.125)" fill="#d7e057"/>
      <path id="Path_1243128" data-name="Path 1243128" d="M4.746,62.221a.6.6,0,0,1-.585-.485c-.006-.033-.677-3.355-3.075-3.468a.6.6,0,0,1-.061-1.185,3.733,3.733,0,0,0,3.156-3.225.6.6,0,0,1,1.169-.106c.008.031.885,3.148,3.176,3.284a.6.6,0,0,1,.159,1.159c-.032.011-3.291,1.174-3.342,3.442a.6.6,0,0,1-.547.581A.341.341,0,0,1,4.746,62.221Zm-1.8-4.581a5.093,5.093,0,0,1,1.767,2.1,6.232,6.232,0,0,1,2.131-1.976,5.321,5.321,0,0,1-1.963-2.076A4.749,4.749,0,0,1,2.951,57.64" transform="translate(-0.415 -42.718)" fill="#3a312a"/>
      <path id="Path_1243129" data-name="Path 1243129" d="M7.18,3S8.138,6.559,10.9,6.723c0,0-3.682,1.272-3.744,3.992,0,0-.725-3.815-3.632-3.952,0,0,3.387-.513,3.66-3.764" transform="translate(-2.821 -2.404)" fill="#d7e057"/>
      <path id="Path_1243130" data-name="Path 1243130" d="M4.748,8.908a.6.6,0,0,1-.585-.485c-.006-.033-.677-3.355-3.075-3.468a.6.6,0,0,1-.061-1.185A3.733,3.733,0,0,0,4.183.546.6.6,0,0,1,5.352.441c.017.06.9,3.148,3.176,3.284a.6.6,0,0,1,.159,1.158C8.655,4.894,5.4,6.057,5.344,8.326a.6.6,0,0,1-.547.581Zm-1.8-4.581a5.091,5.091,0,0,1,1.767,2.1A6.228,6.228,0,0,1,6.851,4.449,5.319,5.319,0,0,1,4.887,2.373,4.753,4.753,0,0,1,2.953,4.327" transform="translate(-0.417 0)" fill="#3a312a"/>
      <rect id="Rectangle_412562" data-name="Rectangle 412562" width="11.371" height="6.991" transform="translate(39.212 77.239)" fill="#87796f"/>
      <path id="Path_1243131" data-name="Path 1243131" d="M206.347,393.879H194.976a.6.6,0,0,1-.6-.6v-6.991a.6.6,0,0,1,.6-.6h11.371a.6.6,0,0,1,.6.6v6.991a.6.6,0,0,1-.6.6m-10.775-1.192h10.18v-5.8h-10.18Z" transform="translate(-155.764 -309.053)" fill="#3a312a"/>
      <path id="Path_1243132" data-name="Path 1243132" d="M159.53,423.874H122.587a2.587,2.587,0,0,0,0,5.175H159.53a2.587,2.587,0,0,0,0-5.175" transform="translate(-96.16 -339.645)" fill="#87796f"/>
      <path id="Path_1243133" data-name="Path 1243133" d="M157.126,427.24H120.183a3.184,3.184,0,0,1,0-6.368h36.943a3.184,3.184,0,0,1,0,6.368m-36.943-5.175a1.992,1.992,0,0,0,0,3.983h36.943a1.992,1.992,0,0,0,0-3.983Z" transform="translate(-93.756 -337.239)" fill="#3a312a"/>
      <path id="Path_1243134" data-name="Path 1243134" d="M66.716,108.686H7.281A4.281,4.281,0,0,0,3,112.968v47.076a4.281,4.281,0,0,0,4.281,4.282H87.323a4.282,4.282,0,0,0,4.281-4.282V112.968a4.281,4.281,0,0,0-4.281-4.282H66.716Z" transform="translate(-2.404 -87.089)" fill="#87796f"/>
      <path id="Path_1243135" data-name="Path 1243135" d="M84.919,162.519H4.876A4.883,4.883,0,0,1,0,157.641V110.566a4.882,4.882,0,0,1,4.876-4.878H64.312a.6.6,0,0,1,0,1.192H4.876a3.689,3.689,0,0,0-3.684,3.685v47.076a3.689,3.689,0,0,0,3.684,3.686H84.919a3.689,3.689,0,0,0,3.684-3.686V110.566a3.689,3.689,0,0,0-3.684-3.685h-15.2a.6.6,0,0,1,0-1.192h15.2a4.882,4.882,0,0,1,4.876,4.878v47.076A4.883,4.883,0,0,1,84.919,162.519Z" transform="translate(0 -84.686)" fill="#3a312a"/>
      <path id="Path_1243136" data-name="Path 1243136" d="M25.34,149.413v25.955a2.152,2.152,0,0,0,2.152,2.153h75.422a2.152,2.152,0,0,0,2.152-2.153V132.737a2.152,2.152,0,0,0-2.152-2.153H27.493a2.152,2.152,0,0,0-2.152,2.153v16.676Z" transform="translate(-20.306 -104.635)" fill="#8ac6dd"/>
      <path id="Path_1243137" data-name="Path 1243137" d="M100.511,175.712H25.088a2.752,2.752,0,0,1-2.748-2.749V147.007a.6.6,0,1,1,1.192,0v25.955a1.558,1.558,0,0,0,1.556,1.557h75.422a1.558,1.558,0,0,0,1.556-1.557V130.331a1.559,1.559,0,0,0-1.556-1.557H25.088a1.558,1.558,0,0,0-1.556,1.557v11.077a.6.6,0,1,1-1.192,0V130.331a2.752,2.752,0,0,1,2.748-2.749h75.422a2.752,2.752,0,0,1,2.748,2.749v42.631A2.751,2.751,0,0,1,100.511,175.712Z" transform="translate(-17.902 -102.23)" fill="#3a312a"/>
      <path id="Path_1243138" data-name="Path 1243138" d="M393.337,135.134v42.632a1.56,1.56,0,0,1-1.558,1.558h-5.96a1.56,1.56,0,0,0,1.558-1.558V135.134a1.56,1.56,0,0,0-1.558-1.558h5.96a1.56,1.56,0,0,1,1.558,1.558" transform="translate(-309.172 -107.033)" fill="#6ca8bf"/>
      <path id="Path_1243139" data-name="Path 1243139" d="M79.656,158.458a18.083,18.083,0,1,1-18.078,18.083,18.081,18.081,0,0,1,18.078-18.083" transform="translate(-49.345 -126.97)" fill="#d7e057"/>
      <path id="Path_1243140" data-name="Path 1243140" d="M77.252,192.816a18.679,18.679,0,1,1,18.674-18.679,18.7,18.7,0,0,1-18.674,18.679m0-36.166a17.487,17.487,0,1,0,17.482,17.487A17.5,17.5,0,0,0,77.252,156.65" transform="translate(-46.941 -124.567)" fill="#3a312a"/>
      <path id="Path_1243141" data-name="Path 1243141" d="M125.148,182.012a3.617,3.617,0,1,1-3.616,3.617,3.616,3.616,0,0,1,3.616-3.617" transform="translate(-97.388 -145.844)" fill="#87796f"/>
      <path id="Path_1243142" data-name="Path 1243142" d="M122.744,187.437a4.213,4.213,0,1,1,4.212-4.213,4.217,4.217,0,0,1-4.212,4.213m0-7.234a3.02,3.02,0,1,0,3.02,3.02,3.023,3.023,0,0,0-3.02-3.02" transform="translate(-94.984 -143.44)" fill="#3a312a"/>
      <path id="Path_1243143" data-name="Path 1243143" d="M178.676,203.422a3.617,3.617,0,1,1-3.616,3.617,3.616,3.616,0,0,1,3.616-3.617" transform="translate(-140.282 -162.999)" fill="#87796f"/>
      <path id="Path_1243144" data-name="Path 1243144" d="M176.272,208.849a4.213,4.213,0,1,1,4.212-4.213,4.217,4.217,0,0,1-4.212,4.213m0-7.234a3.02,3.02,0,1,0,3.02,3.02,3.023,3.023,0,0,0-3.02-3.02" transform="translate(-137.878 -160.597)" fill="#3a312a"/>
      <path id="Path_1243145" data-name="Path 1243145" d="M172.252,263.376a3.617,3.617,0,1,1-3.616,3.617,3.616,3.616,0,0,1,3.616-3.617" transform="translate(-135.134 -211.04)" fill="#87796f"/>
      <path id="Path_1243146" data-name="Path 1243146" d="M169.85,268.8a4.213,4.213,0,1,1,4.212-4.213,4.217,4.217,0,0,1-4.212,4.213m0-7.233a3.02,3.02,0,1,0,3.02,3.02,3.023,3.023,0,0,0-3.02-3.02" transform="translate(-132.732 -208.636)" fill="#3a312a"/>
      <path id="Path_1243147" data-name="Path 1243147" d="M85.242,237.765a5.529,5.529,0,1,1,4.109,6.654,5.529,5.529,0,0,1-4.109-6.654" transform="translate(-68.188 -187.105)" fill="#87796f"/>
      <path id="Path_1243148" data-name="Path 1243148" d="M88.256,242.656a6.127,6.127,0,1,1,6.126-6.127,6.133,6.133,0,0,1-6.126,6.127m0-11.062a4.935,4.935,0,1,0,4.934,4.935,4.94,4.94,0,0,0-4.934-4.935" transform="translate(-65.814 -184.618)" fill="#3a312a"/>
      <path id="Path_1243149" data-name="Path 1243149" d="M316.76,315.224a.594.594,0,0,1-.422-.174l-5.957-5.959a.6.6,0,0,1,.843-.843l5.957,5.959a.6.6,0,0,1-.421,1.017" transform="translate(-248.58 -246.855)" fill="#3a312a"/>
      <path id="Path_1243150" data-name="Path 1243150" d="M325.869,300.718a.594.594,0,0,1-.422-.174l-3.258-3.259a.6.6,0,1,1,.843-.843l3.258,3.258a.6.6,0,0,1-.421,1.017" transform="translate(-258.042 -237.395)" fill="#3a312a"/>
      <path id="Path_1243151" data-name="Path 1243151" d="M339.481,290.716a.594.594,0,0,1-.422-.174L334,285.477a.6.6,0,1,1,.843-.843L339.9,289.7a.6.6,0,0,1-.421,1.017" transform="translate(-267.503 -227.933)" fill="#3a312a"/>
      <path id="Path_1243152" data-name="Path 1243152" d="M348.33,275.949a.594.594,0,0,1-.422-.174l-2.106-2.106a.6.6,0,1,1,.843-.843l2.105,2.106a.6.6,0,0,1-.421,1.017Z" transform="translate(-276.965 -218.472)" fill="#3a312a"/>
      <path id="Path_1243153" data-name="Path 1243153" d="M363.988,268a.594.594,0,0,1-.422-.174l-5.957-5.959a.6.6,0,0,1,.843-.843l5.957,5.959a.6.6,0,0,1-.421,1.017" transform="translate(-286.426 -209.012)" fill="#3a312a"/>
      <path id="Path_1243154" data-name="Path 1243154" d="M271.378,207.537l-4.421-1.972a1.41,1.41,0,0,0-1.572.291l-10.164,10.166a1.411,1.411,0,0,0-.291,1.572l1.972,4.422a1.41,1.41,0,0,0,2.285.423L271.8,209.822A1.41,1.41,0,0,0,271.378,207.537Z" transform="translate(-204.187 -164.618)" fill="#ef6d7a"/>
      <path id="Path_1243155" data-name="Path 1243155" d="M255.794,221.054a2.028,2.028,0,0,1-.365-.033,2.007,2.007,0,0,1-1.468-1.156l-1.972-4.423a2.018,2.018,0,0,1,.414-2.237l10.164-10.166a2.016,2.016,0,0,1,2.236-.414l4.421,1.972a2.007,2.007,0,0,1,.6,3.252l-12.613,12.616A2,2,0,0,1,255.794,221.054Zm8.194-17.409a.817.817,0,0,0-.578.238l-10.164,10.166a.819.819,0,0,0-.168.908l1.972,4.422a.815.815,0,0,0,1.32.244l12.613-12.616a.815.815,0,0,0-.244-1.32l-4.421-1.972a.8.8,0,0,0-.33-.07" transform="translate(-201.791 -162.223)" fill="#3a312a"/>
      <path id="Path_1243156" data-name="Path 1243156" d="M237.144,181.1a27.152,27.152,0,0,0-6.652-10.01c-6.167-6.169-13.416-8.921-16.189-6.147s-.022,10.024,6.145,16.193a27.14,27.14,0,0,0,10.008,6.654Z" transform="translate(-170.863 -131.297)" fill="#f8e4c8"/>
      <path id="Path_1243157" data-name="Path 1243157" d="M228.053,185.974a.6.6,0,0,1-.187-.03,27.936,27.936,0,0,1-10.242-6.8c-6.5-6.5-9.2-13.983-6.145-17.036,1.517-1.517,4.165-1.665,7.455-.416a28.612,28.612,0,0,1,9.577,6.563,27.951,27.951,0,0,1,6.8,10.245.6.6,0,0,1-.145.608l-6.688,6.69A.6.6,0,0,1,228.053,185.974Zm-13.107-23.923a3.6,3.6,0,0,0-2.624.9c-2.494,2.494.321,9.524,6.145,15.35a27.251,27.251,0,0,0,9.428,6.391l6.162-6.163a30.308,30.308,0,0,0-15.546-15.722,10.277,10.277,0,0,0-3.565-.757" transform="translate(-168.461 -128.889)" fill="#3a312a"/>
      <path id="Path_1243158" data-name="Path 1243158" d="M311.024,251.838a7.5,7.5,0,0,0-4.383-1.251l-6.688,6.69a7.507,7.507,0,0,0,1.251,4.384Z" transform="translate(-240.36 -200.789)" fill="#ef6d7a"/>
      <path id="Path_1243159" data-name="Path 1243159" d="M298.8,259.854a.6.6,0,0,1-.5-.267,8.057,8.057,0,0,1-1.349-4.733.6.6,0,0,1,.174-.4l6.688-6.69a.594.594,0,0,1,.4-.174,8.053,8.053,0,0,1,4.732,1.349.6.6,0,0,1,.093.919l-9.821,9.823A.593.593,0,0,1,298.8,259.854Zm-.659-4.729a6.836,6.836,0,0,0,.781,3.168l8.733-8.735a6.824,6.824,0,0,0-3.167-.781Z" transform="translate(-237.955 -198.385)" fill="#3a312a"/>
      <path id="Path_1243160" data-name="Path 1243160" d="M222.655,165.326c-3.572-1.737-6.726-2.007-8.349-.384s-1.352,4.777.384,8.351Z" transform="translate(-170.866 -131.301)" fill="#ef6d7a"/>
      <path id="Path_1243161" data-name="Path 1243161" d="M212.281,171.482a.6.6,0,0,1-.536-.336c-1.933-3.978-2.032-7.27-.269-9.033s5.054-1.664,9.03.269a.6.6,0,0,1,.161.958l-7.964,7.966A.594.594,0,0,1,212.281,171.482Zm2.655-9.428a3.584,3.584,0,0,0-2.618.9c-1.258,1.258-1.193,3.8.147,6.9l6.754-6.756a11.161,11.161,0,0,0-4.283-1.049" transform="translate(-168.458 -128.894)" fill="#3a312a"/>
      <path id="Path_1243162" data-name="Path 1243162" d="M253.1,199.464a4.27,4.27,0,1,1-4.268,4.27,4.269,4.269,0,0,1,4.268-4.27" transform="translate(-199.395 -159.828)" fill="#d7e057"/>
      <path id="Path_1243163" data-name="Path 1243163" d="M250.692,206.2a4.865,4.865,0,1,1,3.44-1.425,4.831,4.831,0,0,1-3.44,1.425m0-8.537a3.671,3.671,0,1,0,2.6,1.074A3.662,3.662,0,0,0,250.692,197.667Z" transform="translate(-196.991 -157.433)" fill="#3a312a"/>
    </g>
  </g>
</svg>
