<svg id="Group_1220902" data-name="Group 1220902" xmlns="http://www.w3.org/2000/svg" xmlns:xlink="http://www.w3.org/1999/xlink" width="90" height="90" viewBox="0 0 90 90">
  <defs>
    <clipPath id="clip-path">
      <rect id="Rectangle_412534" data-name="Rectangle 412534" width="90" height="66.79" fill="none"/>
    </clipPath>
  </defs>
  <rect id="Rectangle_412436" data-name="Rectangle 412436" width="90" height="90" fill="none"/>
  <g id="Group_1220880" data-name="Group 1220880" transform="translate(0 11.676)">
    <g id="Group_1220879" data-name="Group 1220879" clip-path="url(#clip-path)">
      <path id="Path_1243029" data-name="Path 1243029" d="M95.355,68.533V11.517a3.1,3.1,0,0,0-2.9-3.258H11.161a3.1,3.1,0,0,0-2.9,3.258V68.533a3.1,3.1,0,0,0,2.9,3.258h81.29a3.1,3.1,0,0,0,2.9-3.258" transform="translate(-6.806 -6.63)" fill="#0087ff"/>
      <rect id="Rectangle_412533" data-name="Rectangle 412533" width="63.786" height="48.871" transform="translate(13.107 8.96)" fill="#d7f4ff"/>
      <path id="Path_1243030" data-name="Path 1243030" d="M131.545,89.291H67.76a1.549,1.549,0,0,1-1.452-1.629V38.791a1.549,1.549,0,0,1,1.452-1.629h63.786A1.549,1.549,0,0,1,133,38.791V87.662a1.549,1.549,0,0,1-1.452,1.629M69.211,86.033h60.883V40.42H69.211Z" transform="translate(-54.652 -29.831)" fill="#2b1100"/>
      <path id="Path_1243031" data-name="Path 1243031" d="M463.66,145.477a1.549,1.549,0,0,1-1.452-1.629V132.933a1.461,1.461,0,1,1,2.9,0v10.915a1.547,1.547,0,0,1-1.452,1.629" transform="translate(-380.96 -105.402)" fill="#2b1100"/>
      <line id="Line_636" data-name="Line 636" y2="7.438" transform="translate(7.258 29.269)" fill="#fff"/>
      <path id="Path_1243032" data-name="Path 1243032" d="M34.484,150.81a1.549,1.549,0,0,1-1.452-1.629v-7.437a1.461,1.461,0,1,1,2.9,0v7.437a1.548,1.548,0,0,1-1.452,1.629" transform="translate(-27.226 -112.475)" fill="#2b1100"/>
      <path id="Path_1243033" data-name="Path 1243033" d="M464.683,219.492v-.009a1.752,1.752,0,1,0,0,.009" transform="translate(-380.417 -174.795)" fill="#2b1100"/>
      <path id="Path_1243034" data-name="Path 1243034" d="M464.683,100.8v-.009a1.752,1.752,0,1,0,0,.009Z" transform="translate(-380.417 -79.512)" fill="#2b1100"/>
      <path id="Path_1243035" data-name="Path 1243035" d="M386.464,12.332H365.546a1.549,1.549,0,0,1-1.452-1.629c0-.9.65-2.444,1.452-2.444h20.919c.8,0,1.452,1.544,1.452,2.444a1.549,1.549,0,0,1-1.452,1.629" transform="translate(-300.093 -6.63)" fill="#26a7ff"/>
      <path id="Path_1243036" data-name="Path 1243036" d="M39.548,313.751H13.839c-.8,0-1.452-1.544-1.452-2.444a1.549,1.549,0,0,1,1.452-1.629h25.71A1.549,1.549,0,0,1,41,311.307c0,.9-.65,2.444-1.452,2.444" transform="translate(-10.21 -248.589)" fill="#005deb"/>
      <path id="Path_1243037" data-name="Path 1243037" d="M85.645,66.79H4.355A4.649,4.649,0,0,1,0,61.9a1.549,1.549,0,0,1,1.452-1.629A1.548,1.548,0,0,1,2.9,61.9a1.55,1.55,0,0,0,1.452,1.629h81.29A1.55,1.55,0,0,0,87.1,61.9V4.887a1.55,1.55,0,0,0-1.452-1.629h-10.2a1.549,1.549,0,0,1-1.452-1.629A1.549,1.549,0,0,1,75.441,0h10.2A4.649,4.649,0,0,1,90,4.887V61.9a4.649,4.649,0,0,1-4.355,4.887" fill="#2b1100"/>
      <path id="Path_1243038" data-name="Path 1243038" d="M1.452,56.62A1.549,1.549,0,0,1,0,54.991V4.888A4.649,4.649,0,0,1,4.355,0H67.861A1.549,1.549,0,0,1,69.312,1.63a1.549,1.549,0,0,1-1.452,1.629H4.355A1.55,1.55,0,0,0,2.9,4.888v50.1A1.549,1.549,0,0,1,1.452,56.62" transform="translate(0 -0.001)" fill="#2b1100"/>
      <path id="Path_1243039" data-name="Path 1243039" d="M144.649,240.012h-2.81a1.549,1.549,0,0,1-1.452-1.629v-2.7a1.461,1.461,0,1,1,2.9,0v1.071h1.359a1.64,1.64,0,0,1,0,3.258" transform="translate(-115.71 -187.883)" fill="#2b1100"/>
      <path id="Path_1243040" data-name="Path 1243040" d="M343.371,240.012h-2.81a1.64,1.64,0,0,1,0-3.258h1.359v-1.071a1.461,1.461,0,1,1,2.9,0v2.7a1.549,1.549,0,0,1-1.452,1.629" transform="translate(-279.5 -187.883)" fill="#2b1100"/>
      <path id="Path_1243041" data-name="Path 1243041" d="M343.371,80.749a1.549,1.549,0,0,1-1.452-1.629V77.581h-1.359a1.64,1.64,0,0,1,0-3.258h2.81a1.549,1.549,0,0,1,1.452,1.629V79.12a1.549,1.549,0,0,1-1.452,1.629" transform="translate(-279.5 -59.662)" fill="#2b1100"/>
      <path id="Path_1243042" data-name="Path 1243042" d="M141.839,80.749a1.549,1.549,0,0,1-1.452-1.629V75.952a1.549,1.549,0,0,1,1.452-1.629h2.81a1.64,1.64,0,0,1,0,3.258H143.29V79.12a1.549,1.549,0,0,1-1.452,1.629" transform="translate(-115.71 -59.662)" fill="#2b1100"/>
      <path id="Path_1243043" data-name="Path 1243043" d="M157.8,135.957l-10.137,13.906h12.172l4.178-5.693Z" transform="translate(-121.71 -109.137)" fill="#44ac3d"/>
      <path id="Path_1243044" data-name="Path 1243044" d="M221.088,127.365l-4.178,5.693h25.742l-12.509-18.036Z" transform="translate(-178.781 -92.333)" fill="#44ac3d"/>
      <path id="Path_1243045" data-name="Path 1243045" d="M186.49,149.52a1.385,1.385,0,0,1-1.107-.575l-3.542-4.682-2.461,3.376a1.347,1.347,0,0,1-2.042.229,1.769,1.769,0,0,1-.2-2.292l3.564-4.889a1.4,1.4,0,0,1,1.11-.6h.014a1.39,1.39,0,0,1,1.106.575l4.669,6.172a1.769,1.769,0,0,1-.167,2.3A1.359,1.359,0,0,1,186.49,149.52Z" transform="translate(-145.727 -112.455)" fill="#64c35b"/>
      <path id="Path_1243046" data-name="Path 1243046" d="M286.3,149.675H272.2a1.64,1.64,0,0,1,0-3.258h8.954l-5.592-8.064a1.766,1.766,0,0,1,.254-2.286,1.348,1.348,0,0,1,2.037.285l8.868,12.323C287.065,149.166,286.859,149.675,286.3,149.675Z" transform="translate(-223.16 -108.949)" fill="#237f19"/>
      <path id="Path_1243047" data-name="Path 1243047" d="M180.084,125.43l-12.509-18.035a1.356,1.356,0,0,0-2.266-.035L157.357,118.2l-5.089-6.728a1.353,1.353,0,0,0-2.23.022l-2.868,3.934a1.769,1.769,0,0,0,.2,2.292,1.347,1.347,0,0,0,2.042-.229l1.765-2.422,4.3,5.685-2.97,4.049h-8.424l1.987-2.727a1.769,1.769,0,0,0-.2-2.292,1.346,1.346,0,0,0-2.042.229L139.9,125.4q-.939,2.128,1.123,2.661h37.913q2.036-.513,1.145-2.63Zm-23.812-.628L166.4,111l9.571,13.8Z" transform="translate(-115.068 -85.705)" fill="#2b1100"/>
      <path id="Path_1243048" data-name="Path 1243048" d="M224.792,89.6a3.69,3.69,0,1,1-3.266,3.665,3.483,3.483,0,0,1,3.266-3.665" transform="translate(-182.586 -71.922)" fill="#f9b43a"/>
      <path id="Path_1243049" data-name="Path 1243049" d="M217.982,91.923a5.33,5.33,0,1,1,4.718-5.294,5.037,5.037,0,0,1-4.718,5.294m0-7.331a2.05,2.05,0,1,0,1.815,2.036,1.937,1.937,0,0,0-1.815-2.036" transform="translate(-175.776 -65.29)" fill="#2b1100"/>
    </g>
  </g>
</svg>
