<svg xmlns="http://www.w3.org/2000/svg" xmlns:xlink="http://www.w3.org/1999/xlink" width="74" height="74" viewBox="0 0 74 74">
  <defs>
    <clipPath id="clip-path">
      <rect id="Rectangle_410646" data-name="Rectangle 410646" width="74" height="74" transform="translate(792.781 1954)" fill="#e8bad8" opacity="0.41"/>
    </clipPath>
    <clipPath id="clip-path-2">
      <path id="path6129" d="M0-682.665H70.9v70.9H0Z" transform="translate(0 682.665)"/>
    </clipPath>
  </defs>
  <g id="Mask_Group_1099300" data-name="Mask Group 1099300" transform="translate(-792.781 -1954)" clip-path="url(#clip-path)">
    <g id="Group_1200460" data-name="Group 1200460" transform="translate(793.424 1958.498)">
      <g id="Group_1200459" data-name="Group 1200459">
        <ellipse id="Ellipse_12383" data-name="Ellipse 12383" cx="18.416" cy="18.416" rx="18.416" ry="18.416" transform="translate(36.325 28.461)" fill="#c8a0e6"/>
        <ellipse id="Ellipse_12384" data-name="Ellipse 12384" cx="13.394" cy="13.394" rx="13.394" ry="13.394" fill="#c8a0e6"/>
      </g>
    </g>
    <g id="g6123" transform="translate(794.831 1955.693)">
      <g id="g6125" transform="translate(0)">
        <g id="g6127" clip-path="url(#clip-path-2)">
          <g id="g6133" transform="translate(13.98 1.039)">
            <path id="path6135" d="M-306.989-593.839h-31.426a4.155,4.155,0,0,1-4.154-4.155v-60.517a4.155,4.155,0,0,1,4.154-4.154h31.426a4.155,4.155,0,0,1,4.155,4.154v60.517a4.155,4.155,0,0,1-4.155,4.155" transform="translate(342.57 662.665)" fill="#8379c1"/>
          </g>
          <g id="g6137" transform="translate(13.981 1.039)">
            <path id="path6139" d="M-50.238-557.993V-618.51a4.155,4.155,0,0,1,4.155-4.155h-5.823a4.155,4.155,0,0,0-4.155,4.155v60.517a4.155,4.155,0,0,0,4.155,4.155h5.823a4.155,4.155,0,0,1-4.155-4.155" transform="translate(56.061 622.665)" fill="#6e61b6"/>
          </g>
          <g id="g6141" transform="translate(13.98 1.039)">
            <path id="path6143" d="M-306.989-593.839h-31.426a4.155,4.155,0,0,1-4.154-4.155v-60.517a4.155,4.155,0,0,1,4.154-4.154h31.426a4.155,4.155,0,0,1,4.155,4.154v60.517A4.155,4.155,0,0,1-306.989-593.839Z" transform="translate(342.57 662.665)" fill="none" stroke="#000" stroke-linecap="round" stroke-linejoin="round" stroke-miterlimit="10" stroke-width="1"/>
          </g>
          <g id="g6145" transform="translate(17.723 4.781)">
            <path id="path6147" d="M-264.631,0h-7.048a1.58,1.58,0,0,0-1.5,1.091l-.493,1.516a1.385,1.385,0,0,1-1.317.957h-8.372a1.385,1.385,0,0,1-1.317-.957l-.493-1.516A1.579,1.579,0,0,0-286.674,0h-7.048A1.579,1.579,0,0,0-295.3,1.579V59.763a1.579,1.579,0,0,0,1.579,1.579h29.092a1.579,1.579,0,0,0,1.579-1.579V1.579A1.579,1.579,0,0,0-264.631,0" transform="translate(295.302)" fill="#fff"/>
          </g>
          <g id="g6149" transform="translate(17.723 4.781)">
            <path id="path6151" d="M-39.6-515.635v-58.183A1.579,1.579,0,0,1-38.02-575.4H-42.61a1.58,1.58,0,0,0-1.579,1.579v58.183a1.579,1.579,0,0,0,1.579,1.579h4.589a1.579,1.579,0,0,1-1.579-1.579" transform="translate(44.189 575.397)" fill="#eaf6ff"/>
          </g>
          <g id="g6153" transform="translate(17.723 4.781)">
            <path id="path6155" d="M-264.631,0h-7.048a1.58,1.58,0,0,0-1.5,1.091l-.493,1.516a1.385,1.385,0,0,1-1.317.957h-8.372a1.385,1.385,0,0,1-1.317-.957l-.493-1.516A1.579,1.579,0,0,0-286.674,0h-7.048A1.579,1.579,0,0,0-295.3,1.579V59.763a1.579,1.579,0,0,0,1.579,1.579h29.092a1.579,1.579,0,0,0,1.579-1.579V1.579A1.579,1.579,0,0,0-264.631,0Z" transform="translate(295.302)" fill="none" stroke="#000" stroke-linecap="round" stroke-linejoin="round" stroke-miterlimit="10" stroke-width="1"/>
          </g>
          <g id="g6157" transform="translate(32.186 4.847)">
            <path id="path6159" d="M0,0H3.324" fill="none" stroke="#000" stroke-linecap="round" stroke-linejoin="round" stroke-miterlimit="10" stroke-width="1"/>
          </g>
          <g id="g6161" transform="translate(21.731 13.156)">
            <path id="path6163" d="M-203.124-189.981h-22.85a.692.692,0,0,1-.692-.692v-20.634a.692.692,0,0,1,.692-.692h22.85a.692.692,0,0,1,.692.692v20.634a.692.692,0,0,1-.692.692" transform="translate(226.666 211.999)" fill="#d8ecfe"/>
          </g>
          <g id="g6165" transform="translate(21.731 13.156)">
            <path id="path6167" d="M-38.333-184.006V-204.64a.692.692,0,0,1,.692-.692h-4.443a.692.692,0,0,0-.692.692v20.634a.692.692,0,0,0,.692.692h4.443a.692.692,0,0,1-.692-.692" transform="translate(42.776 205.333)" fill="#c4e2ff"/>
          </g>
          <g id="g6169" transform="translate(21.731 13.156)">
            <path id="path6171" d="M-203.124-189.981h-22.85a.692.692,0,0,1-.692-.692v-20.634a.692.692,0,0,1,.692-.692h22.85a.692.692,0,0,1,.692.692v20.634A.692.692,0,0,1-203.124-189.981Z" transform="translate(226.666 211.999)" fill="none" stroke="#000" stroke-linecap="round" stroke-linejoin="round" stroke-miterlimit="10" stroke-width="1"/>
          </g>
          <g id="g6173" transform="translate(25.4 24.592)">
            <path id="path6175" d="M-61.447-2.574-68.569,7.711h15.382L-60.309-2.574a.692.692,0,0,0-1.139,0" transform="translate(68.569 2.872)" fill="#0ed290"/>
          </g>
          <g id="g6177" transform="translate(25.4 24.592)">
            <path id="path6179" d="M-71.27-2.574a.692.692,0,0,0-1.139,0L-79.53,7.711H-76l5.925-8.556Z" transform="translate(79.53 2.872)" fill="#00c285"/>
          </g>
          <g id="g6181" transform="translate(25.4 24.592)">
            <path id="path6183" d="M-61.447-2.574-68.569,7.711h15.382L-60.309-2.574A.692.692,0,0,0-61.447-2.574Z" transform="translate(68.569 2.872)" fill="none" stroke="#000" stroke-linecap="round" stroke-linejoin="round" stroke-miterlimit="10" stroke-width="1"/>
          </g>
          <g id="g6185" transform="translate(34.259 27.246)">
            <path id="path6187" d="M-45.588-2.573l-5.284,7.63h11.706l-5.284-7.63a.693.693,0,0,0-1.139,0" transform="translate(50.872 2.871)" fill="#00c285"/>
          </g>
          <g id="g6189" transform="translate(34.259 27.246)">
            <path id="path6191" d="M-55.412-2.573a.693.693,0,0,0-1.139,0l-5.284,7.63h3.473l4.116-5.944Z" transform="translate(61.835 2.871)" fill="#07b17b"/>
          </g>
          <g id="g6193" transform="translate(34.259 27.246)">
            <path id="path6195" d="M-45.588-2.573l-5.284,7.63h11.706l-5.284-7.63A.693.693,0,0,0-45.588-2.573Z" transform="translate(50.872 2.871)" fill="none" stroke="#000" stroke-linecap="round" stroke-linejoin="round" stroke-miterlimit="10" stroke-width="1"/>
          </g>
          <g id="g6197" transform="translate(25.262 16.618)">
            <path id="path6199" d="M-50.184-25.092a2.908,2.908,0,0,1-2.908,2.908A2.908,2.908,0,0,1-56-25.092,2.908,2.908,0,0,1-53.092-28a2.908,2.908,0,0,1,2.908,2.908" transform="translate(56 28)" fill="#fed402"/>
          </g>
          <g id="g6201" transform="translate(25.262 16.618)">
            <path id="path6203" d="M-50.184-25.092a2.908,2.908,0,0,1-2.908,2.908A2.908,2.908,0,0,1-56-25.092,2.908,2.908,0,0,1-53.092-28,2.908,2.908,0,0,1-50.184-25.092Z" transform="translate(56 28)" fill="none" stroke="#000" stroke-linecap="round" stroke-linejoin="round" stroke-miterlimit="10" stroke-width="1"/>
          </g>
          <g id="g6205" transform="translate(45.065 6.924)">
            <path id="path6207" d="M-17.923-8.961a1.039,1.039,0,0,1-1.039,1.039A1.039,1.039,0,0,1-20-8.961,1.039,1.039,0,0,1-18.961-10a1.039,1.039,0,0,1,1.039,1.039" transform="translate(20 10)"/>
          </g>
          <g id="g6209" transform="translate(23.739 6.924)">
            <path id="path6211" d="M-17.923-8.961a1.039,1.039,0,0,1-1.039,1.039A1.039,1.039,0,0,1-20-8.961,1.039,1.039,0,0,1-18.961-10a1.039,1.039,0,0,1,1.039,1.039" transform="translate(20 10)"/>
          </g>
          <g id="g6213" transform="translate(20.554 6.924)">
            <path id="path6215" d="M-17.923-8.961a1.039,1.039,0,0,1-1.039,1.039A1.039,1.039,0,0,1-20-8.961,1.039,1.039,0,0,1-18.961-10a1.039,1.039,0,0,1,1.039,1.039" transform="translate(20 10)"/>
          </g>
          <g id="g6217" transform="translate(42.854 24.512)">
            <path id="path6219" d="M-133.8-64.515a2.2,2.2,0,0,0-2.28,2.2,2.2,2.2,0,0,0-2.2-2.2,2.2,2.2,0,0,0-2.2,2.2,2.2,2.2,0,0,0-2.2-2.2,2.2,2.2,0,0,0-2.2,2.2v-7.476a2.2,2.2,0,0,0-2.28-2.2,2.242,2.242,0,0,0-2.129,2.261v16.763a3.653,3.653,0,0,0,3.653,3.653v3.853h10.128v-3.853h.2a3.653,3.653,0,0,0,3.653-3.653v-9.286a2.243,2.243,0,0,0-2.129-2.261" transform="translate(149.31 71.992)" fill="#ffe5c2"/>
          </g>
          <g id="g6221" transform="translate(42.854 24.512)">
            <path id="path6223" d="M-53.684-228.911V-234.2a.686.686,0,0,0-.571-.681,3.654,3.654,0,0,1-3.082-3.609v-16.763c0-.052,0-.1.007-.153a2.217,2.217,0,0,0-.739,0,2.246,2.246,0,0,0-1.837,2.232v16.763a3.653,3.653,0,0,0,3.653,3.653v3.853Z" transform="translate(59.907 255.441)" fill="#fed2a4"/>
          </g>
          <g id="g6225" transform="translate(42.854 24.512)">
            <path id="path6227" d="M-152.172-108.731v-2.864a2.242,2.242,0,0,0-2.129-2.261,2.2,2.2,0,0,0-2.28,2.2,2.2,2.2,0,0,0-2.2-2.2,2.2,2.2,0,0,0-2.2,2.2,2.2,2.2,0,0,0-2.2-2.2,2.2,2.2,0,0,0-2.2,2.2v-7.476a2.2,2.2,0,0,0-2.28-2.2,2.242,2.242,0,0,0-2.129,2.261v16.763a3.653,3.653,0,0,0,3.653,3.653V-94.8h10.128v-3.853h.2a3.653,3.653,0,0,0,3.653-3.653v-1.576" transform="translate(169.809 121.333)" fill="none" stroke="#000" stroke-linecap="round" stroke-linejoin="round" stroke-miterlimit="10" stroke-width="1"/>
          </g>
          <g id="g6229" transform="translate(44.728 49.583)">
            <path id="path6231" d="M-113.85-40.285h-12.5a.692.692,0,0,1-.692-.692v-3.284a.692.692,0,0,1,.692-.692h12.5a.692.692,0,0,1,.692.692v3.284a.692.692,0,0,1-.692.692" transform="translate(127.045 44.955)" fill="#60b8fe"/>
          </g>
          <g id="g6233" transform="translate(44.728 49.583)">
            <path id="path6235" d="M-40.3-34.31v-3.284a.692.692,0,0,1,.692-.692h-4.671a.692.692,0,0,0-.692.692v3.284a.692.692,0,0,0,.692.692h4.671a.692.692,0,0,1-.692-.692" transform="translate(44.972 38.287)" fill="#27a5fe"/>
          </g>
          <g id="g6237" transform="translate(44.728 49.583)">
            <path id="path6239" d="M-113.85-40.285h-12.5a.692.692,0,0,1-.692-.692v-3.284a.692.692,0,0,1,.692-.692h12.5a.692.692,0,0,1,.692.692v3.284A.692.692,0,0,1-113.85-40.285Z" transform="translate(127.045 44.955)" fill="none" stroke="#000" stroke-linecap="round" stroke-linejoin="round" stroke-miterlimit="10" stroke-width="1"/>
          </g>
          <g id="g6241" transform="translate(11.753 38.637)">
            <path id="path6243" d="M-5.974-189.981H20.2a.693.693,0,0,0,.692-.692v-20.634A.692.692,0,0,0,20.2-212H-5.974a.692.692,0,0,0-.692.692v20.634a.692.692,0,0,0,.692.692" transform="translate(6.667 211.999)" fill="#fed402"/>
          </g>
          <g id="g6245" transform="translate(11.753 38.637)">
            <path id="path6247" d="M-38.393-184.006V-204.64a.692.692,0,0,1,.692-.692h-4.45a.692.692,0,0,0-.692.692v20.634a.692.692,0,0,0,.692.692h4.45a.692.692,0,0,1-.692-.692" transform="translate(42.843 205.333)" fill="#fac600"/>
          </g>
          <g id="g6249" transform="translate(11.753 38.637)">
            <path id="path6251" d="M-237.774-112.316v-12.325a.692.692,0,0,0-.692-.692H-264.64a.692.692,0,0,0-.692.692v20.634a.692.692,0,0,0,.692.692h26.174a.693.693,0,0,0,.692-.692v-3.462" transform="translate(265.333 125.333)" fill="none" stroke="#000" stroke-linecap="round" stroke-linejoin="round" stroke-miterlimit="10" stroke-width="1"/>
          </g>
          <g id="g6253" transform="translate(20.009 42.376)">
            <path id="path6255" d="M-42.3-3.33l-1.17,2.372a.693.693,0,0,1-.521.379l-2.617.38A.692.692,0,0,0-46.991.982L-45.1,2.828a.692.692,0,0,1,.2.613l-.447,2.606a.692.692,0,0,0,1,.73L-42,5.546a.692.692,0,0,1,.645,0l2.341,1.231a.693.693,0,0,0,1-.73l-.447-2.606a.692.692,0,0,1,.2-.613L-36.364.982A.692.692,0,0,0-36.747-.2l-2.617-.38a.693.693,0,0,1-.521-.379l-1.17-2.372a.693.693,0,0,0-1.242,0" transform="translate(47.201 3.716)" fill="#fe7701"/>
          </g>
          <g id="g6257" transform="translate(20.009 45.372)">
            <path id="path6259" d="M-46.5-48.4l.447-2.606a.693.693,0,0,0-.2-.613l-1.894-1.846a.68.68,0,0,1-.207-.545.691.691,0,0,1-.326.14l-2.617.38a.692.692,0,0,0-.384,1.181l1.894,1.846a.692.692,0,0,1,.2.613l-.447,2.606a.692.692,0,0,0,1,.73l2.341-1.231a.69.69,0,0,1,.356-.077A.679.679,0,0,1-46.5-48.4" transform="translate(51.889 54.012)" fill="#f46700"/>
          </g>
          <g id="g6261" transform="translate(20.009 42.376)">
            <path id="path6263" d="M-42.3-3.33l-1.17,2.372a.693.693,0,0,1-.521.379l-2.617.38A.692.692,0,0,0-46.991.982L-45.1,2.828a.692.692,0,0,1,.2.613l-.447,2.606a.692.692,0,0,0,1,.73L-42,5.546a.692.692,0,0,1,.645,0l2.341,1.231a.693.693,0,0,0,1-.73l-.447-2.606a.692.692,0,0,1,.2-.613L-36.364.982A.692.692,0,0,0-36.747-.2l-2.617-.38a.693.693,0,0,1-.521-.379l-1.17-2.372A.693.693,0,0,0-42.3-3.33Z" transform="translate(47.201 3.716)" fill="none" stroke="#000" stroke-linecap="round" stroke-linejoin="round" stroke-miterlimit="10" stroke-width="1"/>
          </g>
          <g id="g6265" transform="translate(21.724 56.64)">
            <path id="path6267" d="M-65.717,0h-7.617" transform="translate(73.333)" fill="none" stroke="#000" stroke-linecap="round" stroke-linejoin="round" stroke-miterlimit="10" stroke-width="1"/>
          </g>
          <g id="g6269" transform="translate(1.957 47.5)">
            <path id="path6271" d="M-72.717-1.728l-1.564,2.7a.4.4,0,0,1-.484.176L-77.7.085a.4.4,0,0,0-.532.447l.537,3.073a.4.4,0,0,1-.258.446l-2.929,1.072A.4.4,0,0,0-81,5.807l2.386,2.009a.4.4,0,0,1,.09.508l-1.555,2.7a.4.4,0,0,0,.347.6l3.119,0a.4.4,0,0,1,.395.331l.547,3.071a.4.4,0,0,0,.653.238l2.393-2a.4.4,0,0,1,.515,0l2.393,2a.4.4,0,0,0,.653-.238l.547-3.071a.4.4,0,0,1,.395-.331l3.119,0a.4.4,0,0,0,.347-.6l-1.555-2.7a.4.4,0,0,1,.089-.508l2.386-2.009a.4.4,0,0,0-.121-.684l-2.93-1.072a.4.4,0,0,1-.258-.446l.537-3.073a.4.4,0,0,0-.532-.447l-2.933,1.062a.4.4,0,0,1-.484-.176l-1.564-2.7a.4.4,0,0,0-.695,0" transform="translate(81.145 1.928)" fill="#0ed290"/>
          </g>
          <g id="g6273" transform="translate(1.957 49.489)">
            <path id="path6275" d="M-48.831-28.843a9.218,9.218,0,0,1,.318-2.4l-2.531-.917a.4.4,0,0,0-.532.447l.537,3.073a.4.4,0,0,1-.258.446l-2.929,1.072a.4.4,0,0,0-.121.684l2.386,2.009a.4.4,0,0,1,.09.508l-1.555,2.7a.4.4,0,0,0,.347.6l3.12,0a.4.4,0,0,1,.395.331l.547,3.071a.4.4,0,0,0,.653.238l2.393-2a.4.4,0,0,1,.515,0l2.393,2a.4.4,0,0,0,.653-.238l.483-2.716a9.213,9.213,0,0,1-6.9-8.918" transform="translate(54.49 32.186)" fill="#00c285"/>
          </g>
          <g id="g6277" transform="translate(1.957 47.5)">
            <path id="path6279" d="M-72.717-1.728l-1.564,2.7a.4.4,0,0,1-.484.176L-77.7.085a.4.4,0,0,0-.532.447l.537,3.073a.4.4,0,0,1-.258.446l-2.929,1.072A.4.4,0,0,0-81,5.807l2.386,2.009a.4.4,0,0,1,.09.508l-1.555,2.7a.4.4,0,0,0,.347.6l3.119,0a.4.4,0,0,1,.395.331l.547,3.071a.4.4,0,0,0,.653.238l2.393-2a.4.4,0,0,1,.515,0l2.393,2a.4.4,0,0,0,.653-.238l.547-3.071a.4.4,0,0,1,.395-.331l3.119,0a.4.4,0,0,0,.347-.6l-1.555-2.7a.4.4,0,0,1,.089-.508l2.386-2.009a.4.4,0,0,0-.121-.684l-2.93-1.072a.4.4,0,0,1-.258-.446l.537-3.073a.4.4,0,0,0-.532-.447l-2.933,1.062a.4.4,0,0,1-.484-.176l-1.564-2.7A.4.4,0,0,0-72.717-1.728Z" transform="translate(81.145 1.928)" fill="none" stroke="#000" stroke-linecap="round" stroke-linejoin="round" stroke-miterlimit="10" stroke-width="1"/>
          </g>
          <g id="g6281" transform="translate(8.863 54.519)">
            <path id="path6283" d="M0,0H3.739" transform="translate(0 0)" fill="none" stroke="#000" stroke-linecap="round" stroke-linejoin="round" stroke-miterlimit="10" stroke-width="1"/>
          </g>
          <g id="g6285" transform="translate(7.931 57.729)">
            <path id="path6287" d="M-48.335,0h-5.6" transform="translate(53.937 0)" fill="none" stroke="#000" stroke-linecap="round" stroke-linejoin="round" stroke-miterlimit="10" stroke-width="1"/>
          </g>
          <g id="g6289" transform="translate(49.349 8.877)">
            <path id="path6291" d="M-169.086-132.983v-14.775a.638.638,0,0,0-.638-.637H-184.5a.637.637,0,0,0-.637.637v4.732a.637.637,0,0,1-.319.552l-3.021,1.744a.415.415,0,0,0,0,.72l3.021,1.744a.637.637,0,0,1,.319.552v4.732a.637.637,0,0,0,.637.637h14.775a.638.638,0,0,0,.638-.637" transform="translate(188.683 148.396)" fill="#fff3de"/>
          </g>
          <g id="g6293" transform="translate(49.349 8.877)">
            <path id="path6295" d="M-67.682-132.983v-14.775a.637.637,0,0,1,.637-.637h-4.3a.637.637,0,0,0-.637.637v4.732a.637.637,0,0,1-.319.552l-3.02,1.744a.415.415,0,0,0,0,.72l3.02,1.744a.637.637,0,0,1,.319.552v4.732a.637.637,0,0,0,.637.637h4.3a.637.637,0,0,1-.637-.637" transform="translate(75.526 148.396)" fill="#ffe5c2"/>
          </g>
          <g id="g6297" transform="translate(49.349 8.877)">
            <path id="path6299" d="M-99.943,0h-7.4a.637.637,0,0,0-.637.637V5.369a.637.637,0,0,1-.319.552l-3.02,1.744a.415.415,0,0,0,0,.72l3.02,1.744a.637.637,0,0,1,.319.552v4.732a.637.637,0,0,0,.637.637h14.776a.637.637,0,0,0,.637-.637V.637A.637.637,0,0,0-92.566,0H-95.1" transform="translate(111.526)" fill="none" stroke="#000" stroke-linecap="round" stroke-linejoin="round" stroke-miterlimit="10" stroke-width="1"/>
          </g>
          <g id="g6301" transform="translate(56.574 13.536)">
            <path id="path6303" d="M-70.727-5.074h0a2.008,2.008,0,0,0-2.839,0l-.965.965-.965-.965a2.008,2.008,0,0,0-2.839,0,2.008,2.008,0,0,0,0,2.839l3.8,3.8,3.8-3.8a2.008,2.008,0,0,0,0-2.839" transform="translate(78.924 5.662)" fill="#fd4755"/>
          </g>
          <g id="g6305" transform="translate(56.574 13.536)">
            <path id="path6307" d="M-70.727-5.074h0a2.008,2.008,0,0,0-2.839,0l-.965.965-.965-.965a2.008,2.008,0,0,0-2.839,0,2.008,2.008,0,0,0,0,2.839l3.8,3.8,3.8-3.8A2.008,2.008,0,0,0-70.727-5.074Z" transform="translate(78.924 5.662)" fill="none" stroke="#000" stroke-linecap="round" stroke-linejoin="round" stroke-miterlimit="10" stroke-width="1"/>
          </g>
        </g>
      </g>
    </g>
  </g>
</svg>
