<svg xmlns="http://www.w3.org/2000/svg" xmlns:xlink="http://www.w3.org/1999/xlink" width="295" height="372" viewBox="0 0 295 372">
  <defs>
    <clipPath id="clip-path">
      <rect id="Rectangle_412688" data-name="Rectangle 412688" width="31.051" height="25.902" transform="translate(0 0)" fill="none"/>
    </clipPath>
  </defs>
  <g id="Group_1220950" data-name="Group 1220950" transform="translate(-600.051 -9298)">
    <rect id="Rectangle_412692" data-name="Rectangle 412692" width="295" height="372" transform="translate(600.051 9298)" fill="none"/>
    <g id="Group_1220949" data-name="Group 1220949" transform="translate(45.263)">
      <g id="Group_1220923" data-name="Group 1220923" transform="translate(604.525 9312.88)">
        <g id="Group_1220922" data-name="Group 1220922" transform="translate(0 -0.003)" clip-path="url(#clip-path)">
          <path id="Path_1243304" data-name="Path 1243304" d="M14.008,2.044,12.834.588A1.607,1.607,0,0,0,11.586,0h-10A1.573,1.573,0,0,0,0,1.546V24.355A1.566,1.566,0,0,0,1.584,25.9H29.463a1.563,1.563,0,0,0,1.584-1.544V4.179a1.566,1.566,0,0,0-1.584-1.544H15.256a1.606,1.606,0,0,1-1.249-.591" transform="translate(0 0.003)" fill="#fcb63f"/>
          <rect id="Rectangle_412686" data-name="Rectangle 412686" width="30.243" height="7.072" transform="translate(0.401 3.746)" fill="#e6e6e6"/>
          <rect id="Rectangle_412687" data-name="Rectangle 412687" width="30.243" height="6.543" transform="translate(0.401 5.091)" fill="#fff"/>
          <path id="Path_1243305" data-name="Path 1243305" d="M2.025,301.645h27a2.028,2.028,0,0,1,2.025,2.025v15.636a1.418,1.418,0,0,1-1.416,1.416H1.416A1.418,1.418,0,0,1,0,319.306V303.67a2.028,2.028,0,0,1,2.025-2.025" transform="translate(0 -294.824)" fill="#f7cc4f"/>
        </g>
      </g>
      <g id="Group_1220925" data-name="Group 1220925" transform="translate(604.525 9468.88)">
        <g id="Group_1220922-2" data-name="Group 1220922" transform="translate(0 -0.003)" clip-path="url(#clip-path)">
          <path id="Path_1243304-2" data-name="Path 1243304" d="M14.008,2.044,12.834.588A1.607,1.607,0,0,0,11.586,0h-10A1.573,1.573,0,0,0,0,1.546V24.355A1.566,1.566,0,0,0,1.584,25.9H29.463a1.563,1.563,0,0,0,1.584-1.544V4.179a1.566,1.566,0,0,0-1.584-1.544H15.256a1.606,1.606,0,0,1-1.249-.591" transform="translate(0 0.003)" fill="#fcb63f"/>
          <rect id="Rectangle_412686-2" data-name="Rectangle 412686" width="30.243" height="7.072" transform="translate(0.401 3.746)" fill="#e6e6e6"/>
          <rect id="Rectangle_412687-2" data-name="Rectangle 412687" width="30.243" height="6.543" transform="translate(0.401 5.091)" fill="#fff"/>
          <path id="Path_1243305-2" data-name="Path 1243305" d="M2.025,301.645h27a2.028,2.028,0,0,1,2.025,2.025v15.636a1.418,1.418,0,0,1-1.416,1.416H1.416A1.418,1.418,0,0,1,0,319.306V303.67a2.028,2.028,0,0,1,2.025-2.025" transform="translate(0 -294.824)" fill="#f7cc4f"/>
        </g>
      </g>
      <g id="Group_1220927" data-name="Group 1220927" transform="translate(604.525 9624.88)">
        <g id="Group_1220922-3" data-name="Group 1220922" transform="translate(0 -0.003)" clip-path="url(#clip-path)">
          <path id="Path_1243304-3" data-name="Path 1243304" d="M14.008,2.044,12.834.588A1.607,1.607,0,0,0,11.586,0h-10A1.573,1.573,0,0,0,0,1.546V24.355A1.566,1.566,0,0,0,1.584,25.9H29.463a1.563,1.563,0,0,0,1.584-1.544V4.179a1.566,1.566,0,0,0-1.584-1.544H15.256a1.606,1.606,0,0,1-1.249-.591" transform="translate(0 0.003)" fill="#fcb63f"/>
          <rect id="Rectangle_412686-3" data-name="Rectangle 412686" width="30.243" height="7.072" transform="translate(0.401 3.746)" fill="#e6e6e6"/>
          <rect id="Rectangle_412687-3" data-name="Rectangle 412687" width="30.243" height="6.543" transform="translate(0.401 5.091)" fill="#fff"/>
          <path id="Path_1243305-3" data-name="Path 1243305" d="M2.025,301.645h27a2.028,2.028,0,0,1,2.025,2.025v15.636a1.418,1.418,0,0,1-1.416,1.416H1.416A1.418,1.418,0,0,1,0,319.306V303.67a2.028,2.028,0,0,1,2.025-2.025" transform="translate(0 -294.824)" fill="#f7cc4f"/>
        </g>
      </g>
      <g id="Group_1220924" data-name="Group 1220924" transform="translate(604.525 9390.88)">
        <g id="Group_1220922-4" data-name="Group 1220922" transform="translate(0 -0.003)" clip-path="url(#clip-path)">
          <path id="Path_1243304-4" data-name="Path 1243304" d="M14.008,2.044,12.834.588A1.607,1.607,0,0,0,11.586,0h-10A1.573,1.573,0,0,0,0,1.546V24.355A1.566,1.566,0,0,0,1.584,25.9H29.463a1.563,1.563,0,0,0,1.584-1.544V4.179a1.566,1.566,0,0,0-1.584-1.544H15.256a1.606,1.606,0,0,1-1.249-.591" transform="translate(0 0.003)" fill="#fcb63f"/>
          <rect id="Rectangle_412686-4" data-name="Rectangle 412686" width="30.243" height="7.072" transform="translate(0.401 3.746)" fill="#e6e6e6"/>
          <rect id="Rectangle_412687-4" data-name="Rectangle 412687" width="30.243" height="6.543" transform="translate(0.401 5.091)" fill="#fff"/>
          <path id="Path_1243305-4" data-name="Path 1243305" d="M2.025,301.645h27a2.028,2.028,0,0,1,2.025,2.025v15.636a1.418,1.418,0,0,1-1.416,1.416H1.416A1.418,1.418,0,0,1,0,319.306V303.67a2.028,2.028,0,0,1,2.025-2.025" transform="translate(0 -294.824)" fill="#f7cc4f"/>
        </g>
      </g>
      <g id="Group_1220926" data-name="Group 1220926" transform="translate(604.525 9546.88)">
        <g id="Group_1220922-5" data-name="Group 1220922" transform="translate(0 -0.003)" clip-path="url(#clip-path)">
          <path id="Path_1243304-5" data-name="Path 1243304" d="M14.008,2.044,12.834.588A1.607,1.607,0,0,0,11.586,0h-10A1.573,1.573,0,0,0,0,1.546V24.355A1.566,1.566,0,0,0,1.584,25.9H29.463a1.563,1.563,0,0,0,1.584-1.544V4.179a1.566,1.566,0,0,0-1.584-1.544H15.256a1.606,1.606,0,0,1-1.249-.591" transform="translate(0 0.003)" fill="#fcb63f"/>
          <rect id="Rectangle_412686-5" data-name="Rectangle 412686" width="30.243" height="7.072" transform="translate(0.401 3.746)" fill="#e6e6e6"/>
          <rect id="Rectangle_412687-5" data-name="Rectangle 412687" width="30.243" height="6.543" transform="translate(0.401 5.091)" fill="#fff"/>
          <path id="Path_1243305-5" data-name="Path 1243305" d="M2.025,301.645h27a2.028,2.028,0,0,1,2.025,2.025v15.636a1.418,1.418,0,0,1-1.416,1.416H1.416A1.418,1.418,0,0,1,0,319.306V303.67a2.028,2.028,0,0,1,2.025-2.025" transform="translate(0 -294.824)" fill="#f7cc4f"/>
        </g>
      </g>
      <path id="Path_1243386" data-name="Path 1243386" d="M-12.371-1.582A4.96,4.96,0,0,1-14.454-.308a8.984,8.984,0,0,1-3.006.483,5.36,5.36,0,0,1-4.017-1.538,6.226,6.226,0,0,1-1.608-4.28l-.009-1.107a7.637,7.637,0,0,1,.668-3.3,4.96,4.96,0,0,1,1.912-2.171,5.407,5.407,0,0,1,2.878-.76,5.669,5.669,0,0,1,3.713,1.094,4.637,4.637,0,0,1,1.542,3.265H-15.35a2.426,2.426,0,0,0-.686-1.529,2.212,2.212,0,0,0-1.494-.457,2.013,2.013,0,0,0-1.793.984,5.256,5.256,0,0,0-.642,2.813v.773A5.145,5.145,0,0,0-19.31-3.16a2.316,2.316,0,0,0,2.061.962,2.592,2.592,0,0,0,1.793-.536V-4.72H-17.6V-6.838h5.229Zm7.321.554a3.054,3.054,0,0,1-2.54,1.2,3,3,0,0,1-2.369-.91,3.826,3.826,0,0,1-.8-2.615V-9.51H-7.8v6.179A1.065,1.065,0,0,0-6.614-2.109a1.548,1.548,0,0,0,1.45-.729V-9.51h2.979V0H-4.961ZM2.562,0H-.409V-9.51H2.562ZM-.584-11.962A1.322,1.322,0,0,1-.127-13a1.724,1.724,0,0,1,1.187-.4,1.724,1.724,0,0,1,1.187.4A1.322,1.322,0,0,1,2.7-11.962a1.322,1.322,0,0,1-.457,1.037,1.724,1.724,0,0,1-1.187.4,1.724,1.724,0,0,1-1.187-.4A1.322,1.322,0,0,1-.584-11.962Zm4.6,7.119a5.613,5.613,0,0,1,.554-2.536A3.96,3.96,0,0,1,6.157-9.088a4.791,4.791,0,0,1,2.435-.6,4.373,4.373,0,0,1,3.366,1.323,5.076,5.076,0,0,1,1.23,3.6v.105a4.925,4.925,0,0,1-1.235,3.529A4.384,4.384,0,0,1,8.609.176,4.434,4.434,0,0,1,5.348-1.042a4.761,4.761,0,0,1-1.327-3.3Zm2.962.185a3.538,3.538,0,0,0,.413,1.934,1.376,1.376,0,0,0,1.222.615q1.582,0,1.617-2.435v-.3q0-2.558-1.635-2.558-1.485,0-1.608,2.206ZM9-13.5h3.129L9.681-10.74H7.264Zm8.218,3.99.1,1.116a3.225,3.225,0,0,1,2.716-1.292,2.713,2.713,0,0,1,2.219.888,4.226,4.226,0,0,1,.76,2.672V0H20.035V-6a1.6,1.6,0,0,0-.29-1.059A1.342,1.342,0,0,0,18.69-7.4a1.413,1.413,0,0,0-1.292.686V0H14.436V-9.51Z" transform="translate(689.051 9335)" fill="#12263f"/>
      <path id="Path_1243388" data-name="Path 1243388" d="M-63.448-2.373h5.37V0h-8.455V-12.8h3.085Zm6.161-2.47a5.613,5.613,0,0,1,.554-2.536,3.96,3.96,0,0,1,1.591-1.709,4.791,4.791,0,0,1,2.435-.6,4.373,4.373,0,0,1,3.366,1.323,5.076,5.076,0,0,1,1.23,3.6v.105a4.925,4.925,0,0,1-1.235,3.529A4.384,4.384,0,0,1-52.69.176a4.434,4.434,0,0,1-3.261-1.217,4.761,4.761,0,0,1-1.327-3.3Zm2.962.185a3.538,3.538,0,0,0,.413,1.934,1.376,1.376,0,0,0,1.222.615q1.582,0,1.617-2.435v-.3q0-2.558-1.635-2.558-1.485,0-1.608,2.206Zm11.54,2.549a1.317,1.317,0,0,0,.967-.338,1.241,1.241,0,0,0,.334-.945h2.777A3.288,3.288,0,0,1-39.828-.826a4.168,4.168,0,0,1-2.887,1,4.22,4.22,0,0,1-3.27-1.3,5.125,5.125,0,0,1-1.2-3.6v-.123A5.792,5.792,0,0,1-46.648-7.4a3.872,3.872,0,0,1,1.534-1.7,4.573,4.573,0,0,1,2.373-.593A4.116,4.116,0,0,1-39.8-8.657a3.647,3.647,0,0,1,1.09,2.786h-2.777A1.626,1.626,0,0,0-41.845-7a1.244,1.244,0,0,0-.967-.4q-1.151,0-1.345,1.468a10.357,10.357,0,0,0-.062,1.283,4.068,4.068,0,0,0,.343,1.986A1.187,1.187,0,0,0-42.785-2.109Zm11,1.081a3.054,3.054,0,0,1-2.54,1.2A3,3,0,0,1-36.7-.734a3.826,3.826,0,0,1-.8-2.615V-9.51h2.962v6.179a1.065,1.065,0,0,0,1.187,1.222,1.548,1.548,0,0,0,1.45-.729V-9.51h2.979V0H-31.7Zm8.508-1.081a1.317,1.317,0,0,0,.967-.338,1.241,1.241,0,0,0,.334-.945H-19.2A3.288,3.288,0,0,1-20.325-.826a4.168,4.168,0,0,1-2.887,1,4.22,4.22,0,0,1-3.27-1.3,5.125,5.125,0,0,1-1.2-3.6v-.123A5.792,5.792,0,0,1-27.145-7.4a3.872,3.872,0,0,1,1.534-1.7,4.573,4.573,0,0,1,2.373-.593,4.116,4.116,0,0,1,2.944,1.028A3.647,3.647,0,0,1-19.2-5.871h-2.777A1.626,1.626,0,0,0-22.342-7a1.244,1.244,0,0,0-.967-.4q-1.151,0-1.345,1.468a10.357,10.357,0,0,0-.062,1.283,4.068,4.068,0,0,0,.343,1.986A1.187,1.187,0,0,0-23.282-2.109ZM-14.827,0H-17.8V-9.51h2.971Zm-3.146-11.962A1.322,1.322,0,0,1-17.517-13a1.724,1.724,0,0,1,1.187-.4,1.724,1.724,0,0,1,1.187.4,1.322,1.322,0,0,1,.457,1.037,1.322,1.322,0,0,1-.457,1.037,1.724,1.724,0,0,1-1.187.4,1.724,1.724,0,0,1-1.187-.4A1.322,1.322,0,0,1-17.974-11.962Zm4.6,7.119a5.613,5.613,0,0,1,.554-2.536,3.96,3.96,0,0,1,1.591-1.709,4.791,4.791,0,0,1,2.435-.6A4.373,4.373,0,0,1-5.432-8.363a5.076,5.076,0,0,1,1.23,3.6v.105A4.925,4.925,0,0,1-5.436-1.129,4.384,4.384,0,0,1-8.78.176a4.434,4.434,0,0,1-3.261-1.217,4.761,4.761,0,0,1-1.327-3.3Zm2.962.185A3.538,3.538,0,0,0-10-2.725a1.376,1.376,0,0,0,1.222.615q1.582,0,1.617-2.435v-.3Q-7.163-7.4-8.8-7.4q-1.485,0-1.608,2.206ZM-8.394-13.5h3.129l-2.443,2.76h-2.417ZM-.176-9.51l.1,1.116A3.225,3.225,0,0,1,2.637-9.686,2.713,2.713,0,0,1,4.856-8.8a4.226,4.226,0,0,1,.76,2.672V0H2.646V-6a1.6,1.6,0,0,0-.29-1.059A1.342,1.342,0,0,0,1.3-7.4a1.413,1.413,0,0,0-1.292.686V0H-2.953V-9.51ZM20.566-4.685a5.735,5.735,0,0,1-1,3.538A3.2,3.2,0,0,1,16.875.176a2.742,2.742,0,0,1-2.153-.958V3.656H11.76V-9.51h2.769l.088.879a2.742,2.742,0,0,1,2.241-1.055,3.224,3.224,0,0,1,2.733,1.3,5.805,5.805,0,0,1,.976,3.564ZM17.6-4.869Q17.6-7.4,16.128-7.4a1.394,1.394,0,0,0-1.406.756V-2.9a1.439,1.439,0,0,0,1.424.791q1.415,0,1.459-2.443Zm10.02-1.96-.976-.07a1.752,1.752,0,0,0-1.793.879V0H21.894V-9.51h2.777l.1,1.222a2.294,2.294,0,0,1,2.083-1.4,2.888,2.888,0,0,1,.826.105Zm6.732,5.8a3.054,3.054,0,0,1-2.54,1.2,3,3,0,0,1-2.369-.91,3.826,3.826,0,0,1-.8-2.615V-9.51h2.962v6.179a1.065,1.065,0,0,0,1.187,1.222,1.548,1.548,0,0,0,1.45-.729V-9.51h2.979V0H34.444Zm9.088,1.2A4.889,4.889,0,0,1,39.9-1.129a4.507,4.507,0,0,1-1.354-3.4v-.246a5.84,5.84,0,0,1,.541-2.575,3.955,3.955,0,0,1,1.578-1.727,4.763,4.763,0,0,1,2.461-.611,4.117,4.117,0,0,1,3.164,1.244,4.887,4.887,0,0,1,1.16,3.467v1.151H41.563a2.135,2.135,0,0,0,.694,1.257,2.066,2.066,0,0,0,1.389.457,2.662,2.662,0,0,0,2.2-.984l1.354,1.6A3.784,3.784,0,0,1,45.628-.277,5.3,5.3,0,0,1,43.444.176ZM43.11-7.4q-1.3,0-1.547,1.723h2.988v-.229a1.467,1.467,0,0,0-.36-1.1A1.434,1.434,0,0,0,43.11-7.4ZM57.472-4.676A5.8,5.8,0,0,1,56.5-1.081,3.238,3.238,0,0,1,53.78.176,2.81,2.81,0,0,1,51.442-.976L51.319,0H48.665V-13.5h2.962v4.755a2.711,2.711,0,0,1,2.136-.94A3.239,3.239,0,0,1,56.5-8.411a5.826,5.826,0,0,1,.967,3.586ZM54.5-4.86a3.878,3.878,0,0,0-.365-1.956A1.229,1.229,0,0,0,53.016-7.4a1.418,1.418,0,0,0-1.389.765v3.779a1.426,1.426,0,0,0,1.406.756A1.258,1.258,0,0,0,54.36-3.12,7.333,7.333,0,0,0,54.5-4.86ZM64.134,0a3.344,3.344,0,0,1-.281-.853A2.754,2.754,0,0,1,61.567.176a3.374,3.374,0,0,1-2.285-.813,2.588,2.588,0,0,1-.94-2.043,2.66,2.66,0,0,1,1.143-2.338,5.821,5.821,0,0,1,3.322-.791h.914v-.5q0-1.31-1.134-1.31a.925.925,0,0,0-1.055,1.037H58.57a2.659,2.659,0,0,1,1.173-2.241,4.927,4.927,0,0,1,2.993-.861A4.323,4.323,0,0,1,65.61-8.8a3.086,3.086,0,0,1,1.081,2.435v4.21a4.311,4.311,0,0,0,.4,2V0ZM62.279-1.934a1.652,1.652,0,0,0,.918-.237,1.487,1.487,0,0,0,.523-.536V-4.228h-.861q-1.547,0-1.547,1.389a.848.848,0,0,0,.272.655A.986.986,0,0,0,62.279-1.934Z" transform="translate(732.051 9491)" fill="#12263f"/>
      <path id="Path_1243390" data-name="Path 1243390" d="M-36.163-3.48l2.549-9.316h3.445L-34.475,0H-37.85l-4.271-12.8H-38.7ZM-26.249,0h-2.971V-9.51h2.971ZM-29.4-11.962A1.322,1.322,0,0,1-28.938-13a1.724,1.724,0,0,1,1.187-.4,1.724,1.724,0,0,1,1.187.4,1.322,1.322,0,0,1,.457,1.037,1.322,1.322,0,0,1-.457,1.037,1.724,1.724,0,0,1-1.187.4,1.724,1.724,0,0,1-1.187-.4A1.322,1.322,0,0,1-29.4-11.962Zm4.6,7.137a5.809,5.809,0,0,1,.976-3.56,3.211,3.211,0,0,1,2.725-1.3,2.731,2.731,0,0,1,2.145,1V-13.5h2.971V0h-2.663L-18.8-1.02a2.8,2.8,0,0,1-2.32,1.2,3.205,3.205,0,0,1-2.689-1.3A5.993,5.993,0,0,1-24.8-4.825Zm2.962.185q0,2.531,1.477,2.531a1.458,1.458,0,0,0,1.406-.826V-6.557A1.419,1.419,0,0,0-20.342-7.4q-1.371,0-1.485,2.215ZM-9.7.176a4.889,4.889,0,0,1-3.542-1.305,4.507,4.507,0,0,1-1.354-3.4v-.246a5.84,5.84,0,0,1,.541-2.575,3.955,3.955,0,0,1,1.578-1.727,4.763,4.763,0,0,1,2.461-.611A4.117,4.117,0,0,1-6.851-8.442a4.887,4.887,0,0,1,1.16,3.467v1.151H-11.58a2.135,2.135,0,0,0,.694,1.257A2.066,2.066,0,0,0-9.5-2.109a2.662,2.662,0,0,0,2.2-.984l1.354,1.6A3.784,3.784,0,0,1-7.515-.277,5.3,5.3,0,0,1-9.7.176ZM-10.033-7.4q-1.3,0-1.547,1.723h2.988v-.229a1.467,1.467,0,0,0-.36-1.1A1.434,1.434,0,0,0-10.033-7.4Zm5.159,2.558A5.613,5.613,0,0,1-4.32-7.378,3.96,3.96,0,0,1-2.729-9.088a4.791,4.791,0,0,1,2.435-.6A4.373,4.373,0,0,1,3.072-8.363a5.076,5.076,0,0,1,1.23,3.6v.105A4.925,4.925,0,0,1,3.067-1.129,4.384,4.384,0,0,1-.277.176,4.434,4.434,0,0,1-3.538-1.042a4.761,4.761,0,0,1-1.327-3.3Zm2.962.185A3.538,3.538,0,0,0-1.5-2.725a1.376,1.376,0,0,0,1.222.615q1.582,0,1.617-2.435v-.3Q1.34-7.4-.294-7.4-1.78-7.4-1.9-5.194ZM13.311-2.373h5.37V0H10.226V-12.8h3.085ZM26.583-3.4A1.268,1.268,0,0,0,26.1-4.456a5.954,5.954,0,0,0-1.683-.782,16.147,16.147,0,0,1-1.969-.782q-2.487-1.222-2.487-3.357a3.011,3.011,0,0,1,.62-1.876,4.008,4.008,0,0,1,1.753-1.266,6.823,6.823,0,0,1,2.549-.453,5.969,5.969,0,0,1,2.474.492,3.917,3.917,0,0,1,1.7,1.4A3.661,3.661,0,0,1,29.667-9H26.591a1.547,1.547,0,0,0-.479-1.213,1.867,1.867,0,0,0-1.3-.431,2.106,2.106,0,0,0-1.305.365,1.119,1.119,0,0,0-.479.927,1.127,1.127,0,0,0,.527.892,6.65,6.65,0,0,0,1.854.826,11.36,11.36,0,0,1,2.18.918,3.663,3.663,0,0,1,2.074,3.3A3.125,3.125,0,0,1,28.4-.782,5.629,5.629,0,0,1,24.93.176a6.888,6.888,0,0,1-2.817-.558,4.247,4.247,0,0,1-1.9-1.529,3.985,3.985,0,0,1-.637-2.237h3.094A1.963,1.963,0,0,0,23.2-2.632a2.513,2.513,0,0,0,1.727.488,1.985,1.985,0,0,0,1.208-.33A1.088,1.088,0,0,0,26.583-3.4ZM41.6-4.333a4.673,4.673,0,0,1-.721,2.36,4.35,4.35,0,0,1-1.85,1.586,6.3,6.3,0,0,1-2.72.563,5.025,5.025,0,0,1-3.973-1.644,6.786,6.786,0,0,1-1.45-4.641v-.633a7.746,7.746,0,0,1,.655-3.292,4.961,4.961,0,0,1,1.885-2.18,5.26,5.26,0,0,1,2.848-.769,5.516,5.516,0,0,1,3.744,1.226,4.844,4.844,0,0,1,1.608,3.379H38.553a2.292,2.292,0,0,0-.589-1.679,2.422,2.422,0,0,0-1.687-.51,1.843,1.843,0,0,0-1.687.861,5.536,5.536,0,0,0-.562,2.751v.905a6.126,6.126,0,0,0,.514,2.927,1.882,1.882,0,0,0,1.771.879,2.369,2.369,0,0,0,1.626-.5,2.126,2.126,0,0,0,.6-1.591Z" transform="translate(707.051 9647)" fill="#12263f"/>
      <path id="Path_1243387" data-name="Path 1243387" d="M-32.911-2.373h5.37V0H-36V-12.8h3.085Zm6.161-2.47A5.613,5.613,0,0,1-26.2-7.378,3.96,3.96,0,0,1-24.6-9.088a4.791,4.791,0,0,1,2.435-.6A4.373,4.373,0,0,1-18.8-8.363a5.076,5.076,0,0,1,1.23,3.6v.105a4.925,4.925,0,0,1-1.235,3.529A4.384,4.384,0,0,1-22.153.176a4.434,4.434,0,0,1-3.261-1.217,4.761,4.761,0,0,1-1.327-3.3Zm2.962.185a3.538,3.538,0,0,0,.413,1.934,1.376,1.376,0,0,0,1.222.615q1.582,0,1.617-2.435v-.3q0-2.558-1.635-2.558-1.485,0-1.608,2.206Zm11.54,2.549a1.317,1.317,0,0,0,.967-.338,1.241,1.241,0,0,0,.334-.945h2.777A3.288,3.288,0,0,1-9.29-.826a4.168,4.168,0,0,1-2.887,1,4.22,4.22,0,0,1-3.27-1.3,5.125,5.125,0,0,1-1.2-3.6v-.123A5.792,5.792,0,0,1-16.11-7.4a3.872,3.872,0,0,1,1.534-1.7A4.573,4.573,0,0,1-12.2-9.686,4.116,4.116,0,0,1-9.259-8.657a3.647,3.647,0,0,1,1.09,2.786h-2.777A1.626,1.626,0,0,0-11.307-7a1.244,1.244,0,0,0-.967-.4q-1.151,0-1.345,1.468a10.357,10.357,0,0,0-.062,1.283,4.068,4.068,0,0,0,.343,1.986A1.187,1.187,0,0,0-12.248-2.109Zm11,1.081a3.054,3.054,0,0,1-2.54,1.2,3,3,0,0,1-2.369-.91,3.826,3.826,0,0,1-.8-2.615V-9.51H-4v6.179A1.065,1.065,0,0,0-2.817-2.109a1.548,1.548,0,0,0,1.45-.729V-9.51H1.613V0H-1.165ZM7.255-2.109a1.317,1.317,0,0,0,.967-.338,1.241,1.241,0,0,0,.334-.945h2.777A3.288,3.288,0,0,1,10.213-.826a4.168,4.168,0,0,1-2.887,1,4.22,4.22,0,0,1-3.27-1.3,5.125,5.125,0,0,1-1.2-3.6v-.123A5.792,5.792,0,0,1,3.393-7.4a3.872,3.872,0,0,1,1.534-1.7A4.573,4.573,0,0,1,7.3-9.686a4.116,4.116,0,0,1,2.944,1.028,3.647,3.647,0,0,1,1.09,2.786H8.556A1.626,1.626,0,0,0,8.2-7a1.244,1.244,0,0,0-.967-.4q-1.151,0-1.345,1.468a10.357,10.357,0,0,0-.062,1.283,4.068,4.068,0,0,0,.343,1.986A1.187,1.187,0,0,0,7.255-2.109ZM15.71,0H12.74V-9.51H15.71ZM12.564-11.962A1.322,1.322,0,0,1,13.021-13a1.724,1.724,0,0,1,1.187-.4,1.724,1.724,0,0,1,1.187.4,1.322,1.322,0,0,1,.457,1.037,1.322,1.322,0,0,1-.457,1.037,1.724,1.724,0,0,1-1.187.4,1.724,1.724,0,0,1-1.187-.4A1.322,1.322,0,0,1,12.564-11.962Zm4.6,7.119a5.613,5.613,0,0,1,.554-2.536,3.96,3.96,0,0,1,1.591-1.709,4.791,4.791,0,0,1,2.435-.6,4.373,4.373,0,0,1,3.366,1.323,5.076,5.076,0,0,1,1.23,3.6v.105A4.925,4.925,0,0,1,25.1-1.129,4.384,4.384,0,0,1,21.757.176,4.434,4.434,0,0,1,18.5-1.042a4.761,4.761,0,0,1-1.327-3.3Zm2.962.185a3.538,3.538,0,0,0,.413,1.934,1.376,1.376,0,0,0,1.222.615q1.582,0,1.617-2.435v-.3q0-2.558-1.635-2.558-1.485,0-1.608,2.206ZM22.144-13.5h3.129L22.83-10.74H20.413Zm8.218,3.99.1,1.116a3.225,3.225,0,0,1,2.716-1.292,2.713,2.713,0,0,1,2.219.888,4.226,4.226,0,0,1,.76,2.672V0H33.183V-6a1.6,1.6,0,0,0-.29-1.059A1.342,1.342,0,0,0,31.838-7.4a1.413,1.413,0,0,0-1.292.686V0H27.584V-9.51Z" transform="translate(702.051 9413)" fill="#12263f"/>
      <path id="Path_1243389" data-name="Path 1243389" d="M-37.793-3.48l2.549-9.316H-31.8L-36.105,0H-39.48l-4.271-12.8h3.419ZM-27.879,0H-30.85V-9.51h2.971Zm-3.146-11.962A1.322,1.322,0,0,1-30.568-13a1.724,1.724,0,0,1,1.187-.4A1.724,1.724,0,0,1-28.2-13a1.322,1.322,0,0,1,.457,1.037,1.322,1.322,0,0,1-.457,1.037,1.724,1.724,0,0,1-1.187.4,1.724,1.724,0,0,1-1.187-.4A1.322,1.322,0,0,1-31.025-11.962Zm4.6,7.137a5.809,5.809,0,0,1,.976-3.56,3.211,3.211,0,0,1,2.725-1.3,2.731,2.731,0,0,1,2.145,1V-13.5h2.971V0h-2.663l-.149-1.02a2.8,2.8,0,0,1-2.32,1.2,3.205,3.205,0,0,1-2.689-1.3A5.993,5.993,0,0,1-26.429-4.825Zm2.962.185q0,2.531,1.477,2.531a1.458,1.458,0,0,0,1.406-.826V-6.557A1.419,1.419,0,0,0-21.973-7.4q-1.371,0-1.485,2.215ZM-11.329.176a4.889,4.889,0,0,1-3.542-1.305,4.507,4.507,0,0,1-1.354-3.4v-.246a5.84,5.84,0,0,1,.541-2.575,3.955,3.955,0,0,1,1.578-1.727,4.763,4.763,0,0,1,2.461-.611A4.117,4.117,0,0,1-8.481-8.442a4.887,4.887,0,0,1,1.16,3.467v1.151H-13.21a2.135,2.135,0,0,0,.694,1.257,2.066,2.066,0,0,0,1.389.457,2.662,2.662,0,0,0,2.2-.984l1.354,1.6A3.784,3.784,0,0,1-9.145-.277,5.3,5.3,0,0,1-11.329.176ZM-11.663-7.4q-1.3,0-1.547,1.723h2.988v-.229a1.467,1.467,0,0,0-.36-1.1A1.434,1.434,0,0,0-11.663-7.4ZM-6.5-4.843A5.613,5.613,0,0,1-5.95-7.378,3.96,3.96,0,0,1-4.359-9.088a4.791,4.791,0,0,1,2.435-.6A4.373,4.373,0,0,1,1.441-8.363a5.076,5.076,0,0,1,1.23,3.6v.105A4.925,4.925,0,0,1,1.437-1.129,4.384,4.384,0,0,1-1.907.176,4.434,4.434,0,0,1-5.168-1.042,4.761,4.761,0,0,1-6.5-4.342Zm2.962.185a3.538,3.538,0,0,0,.413,1.934,1.376,1.376,0,0,0,1.222.615q1.582,0,1.617-2.435v-.3Q-.29-7.4-1.925-7.4q-1.485,0-1.608,2.206ZM9.149,0V-7.453H7.77V-9.51h1.38v-.316A3.631,3.631,0,0,1,10.4-12.735a4.987,4.987,0,0,1,3.243-.949,11.509,11.509,0,0,1,3.094.51l-.4,2.338-.492-.132a7.832,7.832,0,0,0-2.021-.255q-1.7,0-1.7,1.547v.167h1.863v2.057H12.12V0ZM18.1,0H15.117V-9.51H18.1Zm4.526-9.51.1,1.116a3.225,3.225,0,0,1,2.716-1.292,2.713,2.713,0,0,1,2.219.888,4.226,4.226,0,0,1,.76,2.672V0H25.444V-6a1.6,1.6,0,0,0-.29-1.059A1.342,1.342,0,0,0,24.1-7.4a1.413,1.413,0,0,0-1.292.686V0H19.846V-9.51ZM35.411,0a3.344,3.344,0,0,1-.281-.853A2.754,2.754,0,0,1,32.845.176,3.374,3.374,0,0,1,30.56-.637a2.588,2.588,0,0,1-.94-2.043,2.66,2.66,0,0,1,1.143-2.338,5.821,5.821,0,0,1,3.322-.791H35v-.5q0-1.31-1.134-1.31A.925.925,0,0,0,32.81-6.583H29.848a2.659,2.659,0,0,1,1.173-2.241,4.927,4.927,0,0,1,2.993-.861,4.323,4.323,0,0,1,2.874.888,3.086,3.086,0,0,1,1.081,2.435v4.21a4.311,4.311,0,0,0,.4,2V0ZM33.557-1.934a1.652,1.652,0,0,0,.918-.237A1.487,1.487,0,0,0,35-2.707V-4.228h-.861q-1.547,0-1.547,1.389a.848.848,0,0,0,.272.655A.986.986,0,0,0,33.557-1.934ZM42.732,0H39.762V-13.5h2.971Z" transform="translate(709.051 9569)" fill="#12263f"/>
    </g>
  </g>
</svg>
