<svg id="Group_1220908" data-name="Group 1220908" xmlns="http://www.w3.org/2000/svg" xmlns:xlink="http://www.w3.org/1999/xlink" width="90" height="90" viewBox="0 0 90 90">
  <defs>
    <clipPath id="clip-path">
      <rect id="Rectangle_412561" data-name="Rectangle 412561" width="90" height="90" fill="none" stroke="#000" stroke-width="1"/>
    </clipPath>
  </defs>
  <rect id="Rectangle_412510" data-name="Rectangle 412510" width="90" height="90" fill="none"/>
  <g id="Group_1220898" data-name="Group 1220898" transform="translate(0 0)">
    <g id="Group_1220897" data-name="Group 1220897" clip-path="url(#clip-path)">
      <path id="Path_1243122" data-name="Path 1243122" d="M272.156,68.6l-4.8,4.8V69.239a18.388,18.388,0,0,0-18.366-18.366h-4.161l4.8-4.8-3.71-3.71L234.789,53.5l11.13,11.13,3.71-3.71-4.8-4.8h4.161a13.134,13.134,0,0,1,13.118,13.118V73.4l-4.8-4.8-3.71,3.71,11.13,11.13,11.13-11.13Z" transform="translate(-193.722 -34.957)" fill="#47568c" stroke="#000" stroke-width="1"/>
      <path id="Path_1243123" data-name="Path 1243123" d="M0,0V42.154L5.247,47.4H31.659l5.247-5.247V0Z" transform="translate(0 0)" fill="#47568c" stroke="#000" stroke-width="1"/>
      <rect id="Rectangle_412557" data-name="Rectangle 412557" width="25.842" height="42.772" transform="translate(5.347 5.347)" fill="#25d9f8" stroke="#000" stroke-width="1"/>
      <rect id="Rectangle_412558" data-name="Rectangle 412558" width="36.535" height="10.693" transform="translate(0 41.881)" fill="#61729b" stroke="#000" stroke-width="1"/>
      <path id="Path_1243124" data-name="Path 1243124" d="M288.4,337.906H246.247L241,332.484V306.247L246.247,301H288.4Z" transform="translate(-198.846 -248.352)" fill="#2c3b73" stroke="#000" stroke-width="1"/>
      <rect id="Rectangle_412559" data-name="Rectangle 412559" width="42.772" height="26.733" transform="translate(41.881 57.921)" fill="#00c0f1" stroke="#000" stroke-width="1"/>
      <rect id="Rectangle_412560" data-name="Rectangle 412560" width="11.584" height="37.426" transform="translate(36.535 52.574)" fill="#47568c" stroke="#000" stroke-width="1"/>
    </g>
  </g>
</svg>
