<svg xmlns="http://www.w3.org/2000/svg" width="400" height="144.351" viewBox="0 0 400 144.351">
  <g id="Group_1220600" data-name="Group 1220600" transform="translate(-27.875 -60.335)">
    <path id="Path_1242352" data-name="Path 1242352" d="M0,0H400V144.351H0Z" transform="translate(27.875 60.335)" fill="#e6f8f7"/>
    <rect id="Rectangle_412233" data-name="Rectangle 412233" width="191.891" height="115.135" transform="translate(41.413 71.826)" fill="#fff"/>
    <rect id="Rectangle_412234" data-name="Rectangle 412234" width="27.007" height="5.578" transform="translate(200.887 75.792)" fill="#c6c6c6"/>
    <rect id="Rectangle_412235" data-name="Rectangle 412235" width="73.007" height="73.007" transform="translate(46.799 87.106)" fill="#9700f9"/>
    <rect id="Rectangle_412236" data-name="Rectangle 412236" width="101.876" height="72.898" transform="translate(126.019 87.455)" fill="#c6c6c6"/>
    <rect id="Rectangle_412237" data-name="Rectangle 412237" width="181.096" height="10.771" transform="translate(46.799 166.582)" fill="#c6c6c6"/>
    <rect id="Rectangle_412238" data-name="Rectangle 412238" width="79.686" height="113.936" transform="translate(247.351 72.425)" fill="#fff"/>
    <rect id="Rectangle_412239" data-name="Rectangle 412239" width="34.935" height="22.957" transform="translate(250.913 150.078)" fill="#c6c6c6"/>
    <rect id="Rectangle_412240" data-name="Rectangle 412240" width="34.935" height="22.957" transform="translate(288.325 150.078)" fill="#c6c6c6"/>
    <rect id="Rectangle_412241" data-name="Rectangle 412241" width="40.151" height="30.874" transform="translate(283.109 87.053)" fill="#c6c6c6"/>
    <rect id="Rectangle_412242" data-name="Rectangle 412242" width="72.346" height="27.588" transform="translate(250.913 119.949)" fill="#c6c6c6"/>
    <rect id="Rectangle_412243" data-name="Rectangle 412243" width="72.346" height="3.665" transform="translate(250.913 175.521)" fill="#c6c6c6"/>
    <rect id="Rectangle_412244" data-name="Rectangle 412244" width="20.717" height="4.936" transform="translate(302.543 75.908)" fill="#c6c6c6"/>
    <rect id="Rectangle_412245" data-name="Rectangle 412245" width="29.933" height="30.874" transform="translate(250.914 87.053)" fill="#9700f9"/>
    <rect id="Rectangle_412246" data-name="Rectangle 412246" width="69.215" height="113.342" transform="translate(343.715 72.723)" fill="#fff"/>
    <rect id="Rectangle_412247" data-name="Rectangle 412247" width="18.707" height="4.663" transform="translate(391.556 75.908)" fill="#c6c6c6"/>
    <rect id="Rectangle_412248" data-name="Rectangle 412248" width="30.394" height="19.973" transform="translate(347.32 138.253)" fill="#c6c6c6"/>
    <rect id="Rectangle_412249" data-name="Rectangle 412249" width="30.394" height="19.973" transform="translate(379.869 138.253)" fill="#c6c6c6"/>
    <rect id="Rectangle_412250" data-name="Rectangle 412250" width="34.932" height="26.861" transform="translate(375.331 83.327)" fill="#c6c6c6"/>
    <rect id="Rectangle_412251" data-name="Rectangle 412251" width="62.943" height="24.002" transform="translate(347.32 111.947)" fill="#c6c6c6"/>
    <rect id="Rectangle_412252" data-name="Rectangle 412252" width="62.943" height="18.833" transform="translate(346.85 160.353)" fill="#c6c6c6"/>
    <rect id="Rectangle_412253" data-name="Rectangle 412253" width="26.043" height="26.861" transform="translate(347.32 83.327)" fill="#9700f9"/>
  </g>
</svg>
