<svg xmlns="http://www.w3.org/2000/svg" xmlns:xlink="http://www.w3.org/1999/xlink" width="90" height="90" viewBox="0 0 90 90">
  <defs>
    <clipPath id="clip-path">
      <rect id="Rectangle_412553" data-name="Rectangle 412553" width="89" height="89" fill="none"/>
    </clipPath>
  </defs>
  <g id="Group_1220906" data-name="Group 1220906" transform="translate(-3281 2997)">
    <rect id="Rectangle_412512" data-name="Rectangle 412512" width="90" height="90" transform="translate(3281 -2997)" fill="none"/>
    <g id="Group_1220894" data-name="Group 1220894" transform="translate(3282 -2996)">
      <g id="Group_1220893" data-name="Group 1220893" transform="translate(0 0)" clip-path="url(#clip-path)">
        <path id="Path_1243101" data-name="Path 1243101" d="M39.114,27.206H36.283V41.015a1.024,1.024,0,0,1-1.02,1.02H31.1a1.024,1.024,0,0,1-1.02-1.02V27.206H27.245a1.235,1.235,0,0,1-.934-2.04l5.92-6.868a1.248,1.248,0,0,1,1.868,0l5.92,6.868a1.223,1.223,0,0,1-.905,2.04" transform="translate(11.363 7.724)" fill="#5573b8"/>
        <path id="Path_1243102" data-name="Path 1243102" d="M87.718,6.348V67.156H80.706V9.15A1.41,1.41,0,0,0,79.3,7.742H9.15A1.41,1.41,0,0,0,7.742,9.15V67.142H.73V6.348A5.617,5.617,0,0,1,6.348.73H82.1a5.617,5.617,0,0,1,5.618,5.618" transform="translate(0.319 0.233)" fill="#e27082"/>
        <path id="Path_1243103" data-name="Path 1243103" d="M11.77,56.575l-3.865,3A1.417,1.417,0,0,1,5.62,58.457V52.451A1.417,1.417,0,0,1,7.9,51.331l3.865,3a1.418,1.418,0,0,1,0,2.242" transform="translate(2.455 22.209)" fill="#ef4343"/>
        <path id="Path_1243104" data-name="Path 1243104" d="M56.984,51.79H16.838a2.1,2.1,0,0,0-2.1,2.1v2.471a2.1,2.1,0,0,0,2.1,2.1H56.984Z" transform="translate(6.439 22.54)" fill="#ef4343"/>
        <path id="Path_1243105" data-name="Path 1243105" d="M88.037,68.524H81.025a1.055,1.055,0,0,1-1.049-1.049V9.469a.35.35,0,0,0-.345-.345H9.469a.35.35,0,0,0-.345.345V67.461A1.055,1.055,0,0,1,8.075,68.51H1.049A1.055,1.055,0,0,1,0,67.461V6.667A6.672,6.672,0,0,1,6.667,0H82.419a6.672,6.672,0,0,1,6.667,6.667V67.475a1.055,1.055,0,0,1-1.049,1.049m-5.963-2.112h4.914V6.667a4.556,4.556,0,0,0-4.555-4.555H6.667A4.556,4.556,0,0,0,2.112,6.667V66.412H7.026V9.469A2.465,2.465,0,0,1,9.483,7.012H79.631a2.465,2.465,0,0,1,2.457,2.457V66.412Z" transform="translate(0 -0.086)" fill="#010101"/>
        <path id="Path_1243106" data-name="Path 1243106" d="M82.419,68.894H6.667A6.672,6.672,0,0,1,0,62.227V47.269A1.055,1.055,0,0,1,1.049,46.22H88.037a1.055,1.055,0,0,1,1.049,1.049V62.227a6.672,6.672,0,0,1-6.667,6.667M2.1,48.332V62.241A4.556,4.556,0,0,0,6.653,66.8H82.4a4.556,4.556,0,0,0,4.555-4.555V48.332Z" transform="translate(0 20.106)" fill="#010101"/>
        <path id="Path_1243107" data-name="Path 1243107" d="M7.351,61.256A2.483,2.483,0,0,1,4.88,58.77V52.764a2.49,2.49,0,0,1,1.379-2.227,2.445,2.445,0,0,1,2.6.273l3.865,3a2.471,2.471,0,0,1,.963,1.954,2.429,2.429,0,0,1-.963,1.954l-3.865,3a2.333,2.333,0,0,1-1.509.532m0-8.837a.306.306,0,0,0-.172.043.364.364,0,0,0-.2.33V58.8a.364.364,0,0,0,.2.33.334.334,0,0,0,.388-.043l3.865-3a.359.359,0,0,0,.144-.287.343.343,0,0,0-.144-.287l-3.865-3a.28.28,0,0,0-.216-.086" transform="translate(2.132 21.881)" fill="#010101"/>
        <path id="Path_1243108" data-name="Path 1243108" d="M72.8,59.844H17.161A3.17,3.17,0,0,1,14,56.683V54.211a3.17,3.17,0,0,1,3.161-3.161H72.8a3.17,3.17,0,0,1,3.161,3.161v2.471A3.17,3.17,0,0,1,72.8,59.844M17.161,53.162a1.055,1.055,0,0,0-1.049,1.049v2.471a1.055,1.055,0,0,0,1.049,1.049H72.8a1.055,1.055,0,0,0,1.049-1.049V54.211A1.055,1.055,0,0,0,72.8,53.162Z" transform="translate(6.116 22.216)" fill="#010101"/>
        <path id="Path_1243109" data-name="Path 1243109" d="M57.307,59.844H17.161A3.17,3.17,0,0,1,14,56.683V54.211a3.17,3.17,0,0,1,3.161-3.161H57.307A1.055,1.055,0,0,1,58.356,52.1V58.78a1.049,1.049,0,0,1-1.049,1.063M17.161,53.162a1.055,1.055,0,0,0-1.049,1.049v2.471a1.055,1.055,0,0,0,1.049,1.049h39.1V53.162Z" transform="translate(6.116 22.216)" fill="#010101"/>
        <path id="Path_1243110" data-name="Path 1243110" d="M35.576,43.4H31.409a2.07,2.07,0,0,1-2.069-2.069V28.573H27.573A2.241,2.241,0,0,1,25.5,27.251a2.267,2.267,0,0,1,.345-2.443l5.92-6.868a2.3,2.3,0,0,1,1.739-.79,2.272,2.272,0,0,1,1.724.79l5.934,6.868a2.276,2.276,0,0,1-1.724,3.765H37.674V41.318a2.116,2.116,0,0,1-2.1,2.083M33.493,19.248a.232.232,0,0,0-.144.057l-5.92,6.868a.188.188,0,0,0-.029.2.157.157,0,0,0,.158.1h2.831a1.055,1.055,0,0,1,1.049,1.049V41.332l4.138-.029-.029-13.78A1.055,1.055,0,0,1,36.6,26.475h2.831a.157.157,0,0,0,.158-.1.2.2,0,0,0-.029-.2l-5.92-6.868a.232.232,0,0,0-.144-.057" transform="translate(11.05 7.407)" fill="#010101"/>
        <path id="Path_1243111" data-name="Path 1243111" d="M36.723,50.826A18.823,18.823,0,1,1,55.546,32,18.85,18.85,0,0,1,36.723,50.826m0-35.534A16.718,16.718,0,1,0,53.434,32.017,16.726,16.726,0,0,0,36.723,15.292" transform="translate(7.82 5.672)" fill="#010101"/>
      </g>
    </g>
  </g>
</svg>
