<svg xmlns="http://www.w3.org/2000/svg" xmlns:xlink="http://www.w3.org/1999/xlink" width="76" height="76" viewBox="0 0 76 76">
  <defs>
    <clipPath id="clip-path">
      <rect id="Rectangle_410646" data-name="Rectangle 410646" width="76" height="76" transform="translate(792.781 1954)" fill="#e8bad8" opacity="0.41"/>
    </clipPath>
    <clipPath id="clip-path-2">
      <path id="path6129" d="M0-682.665H72.573v72.573H0Z" transform="translate(0 682.665)"/>
    </clipPath>
  </defs>
  <g id="Mask_Group_1099300" data-name="Mask Group 1099300" transform="translate(-792.781 -1954)" clip-path="url(#clip-path)">
    <g id="Group_1200460" data-name="Group 1200460" transform="translate(793.439 1958.604)">
      <g id="Group_1200459" data-name="Group 1200459">
        <ellipse id="Ellipse_12383" data-name="Ellipse 12383" cx="18.85" cy="18.85" rx="18.85" ry="18.85" transform="translate(37.181 29.131)" fill="#c8a0e6"/>
        <ellipse id="Ellipse_12384" data-name="Ellipse 12384" cx="13.709" cy="13.709" rx="13.709" ry="13.709" fill="#c8a0e6"/>
      </g>
    </g>
    <g id="g6123" transform="translate(794.88 1955.733)">
      <g id="g6125" transform="translate(0)">
        <g id="g6127" clip-path="url(#clip-path-2)">
          <g id="g6133" transform="translate(14.31 1.063)">
            <path id="path6135" d="M-306.152-592.218h-32.166a4.252,4.252,0,0,1-4.252-4.252v-61.943a4.252,4.252,0,0,1,4.252-4.252h32.166a4.252,4.252,0,0,1,4.252,4.252v61.943a4.252,4.252,0,0,1-4.252,4.252" transform="translate(342.57 662.665)" fill="#8379c1"/>
          </g>
          <g id="g6137" transform="translate(14.31 1.063)">
            <path id="path6139" d="M-50.1-556.47v-61.943a4.252,4.252,0,0,1,4.252-4.252h-5.96a4.252,4.252,0,0,0-4.252,4.252v61.943a4.253,4.253,0,0,0,4.252,4.253h5.96A4.253,4.253,0,0,1-50.1-556.47" transform="translate(56.061 622.665)" fill="#6e61b6"/>
          </g>
          <g id="g6141" transform="translate(14.31 1.063)">
            <path id="path6143" d="M-306.152-592.218h-32.166a4.252,4.252,0,0,1-4.252-4.252v-61.943a4.252,4.252,0,0,1,4.252-4.252h32.166a4.252,4.252,0,0,1,4.252,4.252v61.943A4.252,4.252,0,0,1-306.152-592.218Z" transform="translate(342.57 662.665)" fill="none" stroke="#000" stroke-linecap="round" stroke-linejoin="round" stroke-miterlimit="10" stroke-width="1"/>
          </g>
          <g id="g6145" transform="translate(18.14 4.894)">
            <path id="path6147" d="M-263.909,0h-7.214a1.617,1.617,0,0,0-1.537,1.117l-.5,1.552a1.418,1.418,0,0,1-1.348.979h-8.569a1.417,1.417,0,0,1-1.348-.979l-.5-1.552A1.616,1.616,0,0,0-286.471,0h-7.214A1.617,1.617,0,0,0-295.3,1.617V61.17a1.617,1.617,0,0,0,1.617,1.616h29.777a1.616,1.616,0,0,0,1.616-1.617V1.616A1.616,1.616,0,0,0-263.909,0" transform="translate(295.302 0)" fill="#fff"/>
          </g>
          <g id="g6149" transform="translate(18.14 4.893)">
            <path id="path6151" d="M-39.492-514.227v-59.553a1.616,1.616,0,0,1,1.616-1.617h-4.7a1.617,1.617,0,0,0-1.617,1.617v59.553a1.616,1.616,0,0,0,1.617,1.616h4.7a1.616,1.616,0,0,1-1.616-1.616" transform="translate(44.189 575.397)" fill="#eaf6ff"/>
          </g>
          <g id="g6153" transform="translate(18.14 4.894)">
            <path id="path6155" d="M-263.909,0h-7.214a1.617,1.617,0,0,0-1.537,1.117l-.5,1.552a1.418,1.418,0,0,1-1.348.979h-8.569a1.417,1.417,0,0,1-1.348-.979l-.5-1.552A1.616,1.616,0,0,0-286.471,0h-7.214A1.617,1.617,0,0,0-295.3,1.617V61.17a1.617,1.617,0,0,0,1.617,1.616h29.777a1.616,1.616,0,0,0,1.616-1.617V1.616A1.616,1.616,0,0,0-263.909,0Z" transform="translate(295.302 0)" fill="none" stroke="#000" stroke-linecap="round" stroke-linejoin="round" stroke-miterlimit="10" stroke-width="1"/>
          </g>
          <g id="g6157" transform="translate(32.944 4.961)">
            <path id="path6159" d="M0,0H3.4" fill="none" stroke="#000" stroke-linecap="round" stroke-linejoin="round" stroke-miterlimit="10" stroke-width="1"/>
          </g>
          <g id="g6161" transform="translate(22.242 13.466)">
            <path id="path6163" d="M-202.57-189.462h-23.388a.709.709,0,0,1-.709-.709v-21.12a.709.709,0,0,1,.709-.709h23.388a.709.709,0,0,1,.709.709v21.12a.709.709,0,0,1-.709.709" transform="translate(226.666 211.999)" fill="#d8ecfe"/>
          </g>
          <g id="g6165" transform="translate(22.242 13.466)">
            <path id="path6167" d="M-38.228-183.5v-21.12a.709.709,0,0,1,.709-.709h-4.547a.709.709,0,0,0-.709.709v21.12a.709.709,0,0,0,.709.709h4.547a.709.709,0,0,1-.709-.709" transform="translate(42.776 205.333)" fill="#c4e2ff"/>
          </g>
          <g id="g6169" transform="translate(22.242 13.466)">
            <path id="path6171" d="M-202.57-189.462h-23.388a.709.709,0,0,1-.709-.709v-21.12a.709.709,0,0,1,.709-.709h23.388a.709.709,0,0,1,.709.709v21.12A.709.709,0,0,1-202.57-189.462Z" transform="translate(226.666 211.999)" fill="none" stroke="#000" stroke-linecap="round" stroke-linejoin="round" stroke-miterlimit="10" stroke-width="1"/>
          </g>
          <g id="g6173" transform="translate(25.999 25.171)">
            <path id="path6175" d="M-61.28-2.567-68.569,7.96h15.744L-60.114-2.567a.709.709,0,0,0-1.165,0" transform="translate(68.569 2.872)" fill="#0ed290"/>
          </g>
          <g id="g6177" transform="translate(25.999 25.171)">
            <path id="path6179" d="M-71.076-2.567a.709.709,0,0,0-1.165,0L-79.53,7.96h3.615L-69.851-.8Z" transform="translate(79.53 2.872)" fill="#00c285"/>
          </g>
          <g id="g6181" transform="translate(25.999 25.171)">
            <path id="path6183" d="M-61.28-2.567-68.569,7.96h15.744L-60.114-2.567A.709.709,0,0,0-61.28-2.567Z" transform="translate(68.569 2.872)" fill="none" stroke="#000" stroke-linecap="round" stroke-linejoin="round" stroke-miterlimit="10" stroke-width="1"/>
          </g>
          <g id="g6185" transform="translate(35.066 27.888)">
            <path id="path6187" d="M-45.464-2.566l-5.408,7.81H-38.89L-44.3-2.566a.709.709,0,0,0-1.165,0" transform="translate(50.872 2.871)" fill="#00c285"/>
          </g>
          <g id="g6189" transform="translate(35.066 27.888)">
            <path id="path6191" d="M-55.261-2.566a.709.709,0,0,0-1.165,0l-5.408,7.81h3.555L-54.066-.84Z" transform="translate(61.835 2.871)" fill="#07b17b"/>
          </g>
          <g id="g6193" transform="translate(35.066 27.888)">
            <path id="path6195" d="M-45.464-2.566l-5.408,7.81H-38.89L-44.3-2.566A.709.709,0,0,0-45.464-2.566Z" transform="translate(50.872 2.871)" fill="none" stroke="#000" stroke-linecap="round" stroke-linejoin="round" stroke-miterlimit="10" stroke-width="1"/>
          </g>
          <g id="g6197" transform="translate(25.857 17.009)">
            <path id="path6199" d="M-50.047-25.023a2.977,2.977,0,0,1-2.977,2.977A2.977,2.977,0,0,1-56-25.023,2.977,2.977,0,0,1-53.023-28a2.977,2.977,0,0,1,2.977,2.977" transform="translate(56 28)" fill="#fed402"/>
          </g>
          <g id="g6201" transform="translate(25.857 17.009)">
            <path id="path6203" d="M-50.047-25.023a2.977,2.977,0,0,1-2.977,2.977A2.977,2.977,0,0,1-56-25.023,2.977,2.977,0,0,1-53.023-28,2.977,2.977,0,0,1-50.047-25.023Z" transform="translate(56 28)" fill="none" stroke="#000" stroke-linecap="round" stroke-linejoin="round" stroke-miterlimit="10" stroke-width="1"/>
          </g>
          <g id="g6205" transform="translate(46.126 7.087)">
            <path id="path6207" d="M-17.874-8.937a1.063,1.063,0,0,1-1.063,1.063A1.063,1.063,0,0,1-20-8.937,1.063,1.063,0,0,1-18.937-10a1.063,1.063,0,0,1,1.063,1.063" transform="translate(20 10)"/>
          </g>
          <g id="g6209" transform="translate(24.298 7.087)">
            <path id="path6211" d="M-17.874-8.937a1.063,1.063,0,0,1-1.063,1.063A1.063,1.063,0,0,1-20-8.937,1.063,1.063,0,0,1-18.937-10a1.063,1.063,0,0,1,1.063,1.063" transform="translate(20 10)"/>
          </g>
          <g id="g6213" transform="translate(21.037 7.087)">
            <path id="path6215" d="M-17.874-8.937a1.063,1.063,0,0,1-1.063,1.063A1.063,1.063,0,0,1-20-8.937,1.063,1.063,0,0,1-18.937-10a1.063,1.063,0,0,1,1.063,1.063" transform="translate(20 10)"/>
          </g>
          <g id="g6217" transform="translate(43.863 25.089)">
            <path id="path6219" d="M-133.437-64.339a2.257,2.257,0,0,0-2.334,2.255,2.256,2.256,0,0,0-2.256-2.257,2.257,2.257,0,0,0-2.257,2.257,2.256,2.256,0,0,0-2.257-2.257,2.257,2.257,0,0,0-2.256,2.256v-7.652a2.257,2.257,0,0,0-2.334-2.255,2.3,2.3,0,0,0-2.179,2.314v17.157a3.739,3.739,0,0,0,3.739,3.739v3.944H-135.2V-48.78H-135a3.739,3.739,0,0,0,3.739-3.739v-9.505a2.3,2.3,0,0,0-2.179-2.314" transform="translate(149.31 71.992)" fill="#ffe5c2"/>
          </g>
          <g id="g6221" transform="translate(43.863 25.089)">
            <path id="path6223" d="M-53.538-228.286V-233.7a.7.7,0,0,0-.584-.7,3.74,3.74,0,0,1-3.155-3.694v-17.157c0-.053,0-.1.008-.157a2.269,2.269,0,0,0-.757,0,2.3,2.3,0,0,0-1.881,2.285v17.157a3.739,3.739,0,0,0,3.739,3.739v3.944Z" transform="translate(59.907 255.441)" fill="#fed2a4"/>
          </g>
          <g id="g6225" transform="translate(43.863 25.089)">
            <path id="path6227" d="M-151.757-108.434v-2.931a2.3,2.3,0,0,0-2.179-2.314,2.257,2.257,0,0,0-2.334,2.255,2.256,2.256,0,0,0-2.256-2.257,2.257,2.257,0,0,0-2.257,2.257,2.257,2.257,0,0,0-2.257-2.257,2.256,2.256,0,0,0-2.256,2.256v-7.652a2.257,2.257,0,0,0-2.334-2.255,2.3,2.3,0,0,0-2.179,2.314v17.157a3.739,3.739,0,0,0,3.739,3.739v3.944H-155.7v-3.944h.208a3.739,3.739,0,0,0,3.739-3.739v-1.613" transform="translate(169.809 121.333)" fill="none" stroke="#000" stroke-linecap="round" stroke-linejoin="round" stroke-miterlimit="10" stroke-width="1"/>
          </g>
          <g id="g6229" transform="translate(45.782 50.751)">
            <path id="path6231" d="M-113.539-40.175h-12.8a.709.709,0,0,1-.709-.709v-3.362a.709.709,0,0,1,.709-.709h12.8a.709.709,0,0,1,.709.709v3.362a.709.709,0,0,1-.709.709" transform="translate(127.045 44.955)" fill="#60b8fe"/>
          </g>
          <g id="g6233" transform="translate(45.782 50.751)">
            <path id="path6235" d="M-40.191-34.216v-3.361a.709.709,0,0,1,.709-.709h-4.781a.709.709,0,0,0-.709.709v3.361a.709.709,0,0,0,.709.709h4.781a.709.709,0,0,1-.709-.709" transform="translate(44.972 38.287)" fill="#27a5fe"/>
          </g>
          <g id="g6237" transform="translate(45.782 50.751)">
            <path id="path6239" d="M-113.539-40.175h-12.8a.709.709,0,0,1-.709-.709v-3.362a.709.709,0,0,1,.709-.709h12.8a.709.709,0,0,1,.709.709v3.362A.709.709,0,0,1-113.539-40.175Z" transform="translate(127.045 44.955)" fill="none" stroke="#000" stroke-linecap="round" stroke-linejoin="round" stroke-miterlimit="10" stroke-width="1"/>
          </g>
          <g id="g6241" transform="translate(12.03 39.547)">
            <path id="path6243" d="M-5.958-189.462h26.79a.709.709,0,0,0,.709-.709v-21.12a.709.709,0,0,0-.709-.709H-5.958a.709.709,0,0,0-.709.709v21.12a.709.709,0,0,0,.709.709" transform="translate(6.667 211.999)" fill="#fed402"/>
          </g>
          <g id="g6245" transform="translate(12.03 39.547)">
            <path id="path6247" d="M-38.288-183.5v-21.12a.709.709,0,0,1,.709-.709h-4.555a.709.709,0,0,0-.709.709v21.12a.709.709,0,0,0,.709.709h4.555a.709.709,0,0,1-.709-.709" transform="translate(42.843 205.333)" fill="#fac600"/>
          </g>
          <g id="g6249" transform="translate(12.03 39.547)">
            <path id="path6251" d="M-237.125-112.009v-12.615a.709.709,0,0,0-.709-.709h-26.79a.709.709,0,0,0-.709.709v21.12a.709.709,0,0,0,.709.709h26.79a.709.709,0,0,0,.709-.709v-3.544" transform="translate(265.333 125.333)" fill="none" stroke="#000" stroke-linecap="round" stroke-linejoin="round" stroke-miterlimit="10" stroke-width="1"/>
          </g>
          <g id="g6253" transform="translate(20.48 43.374)">
            <path id="path6255" d="M-42.183-3.321l-1.2,2.427a.709.709,0,0,1-.534.388l-2.679.389a.709.709,0,0,0-.393,1.209l1.938,1.889a.709.709,0,0,1,.2.627L-45.3,6.277a.709.709,0,0,0,1.028.747l2.4-1.26a.709.709,0,0,1,.66,0l2.4,1.26a.709.709,0,0,0,1.028-.747l-.458-2.668a.709.709,0,0,1,.2-.627l1.938-1.889A.709.709,0,0,0-36.5-.117L-39.18-.506a.709.709,0,0,1-.534-.388l-1.2-2.427a.709.709,0,0,0-1.271,0" transform="translate(47.201 3.716)" fill="#fe7701"/>
          </g>
          <g id="g6257" transform="translate(20.48 46.441)">
            <path id="path6259" d="M-46.372-48.27l.458-2.668a.709.709,0,0,0-.2-.627l-1.938-1.889a.7.7,0,0,1-.212-.557.707.707,0,0,1-.333.143l-2.679.389a.709.709,0,0,0-.393,1.209l1.938,1.889a.709.709,0,0,1,.2.627l-.458,2.668a.709.709,0,0,0,1.028.747l2.4-1.26a.706.706,0,0,1,.365-.079.7.7,0,0,1-.172-.592" transform="translate(51.889 54.012)" fill="#f46700"/>
          </g>
          <g id="g6261" transform="translate(20.48 43.374)">
            <path id="path6263" d="M-42.183-3.321l-1.2,2.427a.709.709,0,0,1-.534.388l-2.679.389a.709.709,0,0,0-.393,1.209l1.938,1.889a.709.709,0,0,1,.2.627L-45.3,6.277a.709.709,0,0,0,1.028.747l2.4-1.26a.709.709,0,0,1,.66,0l2.4,1.26a.709.709,0,0,0,1.028-.747l-.458-2.668a.709.709,0,0,1,.2-.627l1.938-1.889A.709.709,0,0,0-36.5-.117L-39.18-.506a.709.709,0,0,1-.534-.388l-1.2-2.427A.709.709,0,0,0-42.183-3.321Z" transform="translate(47.201 3.716)" fill="none" stroke="#000" stroke-linecap="round" stroke-linejoin="round" stroke-miterlimit="10" stroke-width="1"/>
          </g>
          <g id="g6265" transform="translate(22.235 57.974)">
            <path id="path6267" d="M-65.537,0h-7.8" transform="translate(73.333)" fill="none" stroke="#000" stroke-linecap="round" stroke-linejoin="round" stroke-miterlimit="10" stroke-width="1"/>
          </g>
          <g id="g6269" transform="translate(2.003 48.618)">
            <path id="path6271" d="M-72.518-1.723l-1.6,2.763a.411.411,0,0,1-.5.18l-3-1.087a.411.411,0,0,0-.545.457l.549,3.145a.411.411,0,0,1-.264.457l-3,1.1a.411.411,0,0,0-.124.7l2.443,2.056a.411.411,0,0,1,.092.519l-1.592,2.768a.411.411,0,0,0,.356.616l3.193.005a.411.411,0,0,1,.4.339l.559,3.143a.411.411,0,0,0,.668.243l2.449-2.048a.411.411,0,0,1,.527,0l2.449,2.048a.411.411,0,0,0,.668-.243l.56-3.143a.411.411,0,0,1,.4-.339l3.193-.005a.411.411,0,0,0,.355-.616l-1.592-2.768a.411.411,0,0,1,.092-.519l2.443-2.056a.411.411,0,0,0-.124-.7l-3-1.1a.411.411,0,0,1-.264-.457L-66.164.59a.411.411,0,0,0-.545-.457l-3,1.087a.411.411,0,0,1-.5-.18l-1.6-2.763a.411.411,0,0,0-.711,0" transform="translate(81.145 1.928)" fill="#0ed290"/>
          </g>
          <g id="g6273" transform="translate(2.003 50.654)">
            <path id="path6275" d="M-48.7-28.764a9.435,9.435,0,0,1,.326-2.458l-2.591-.938a.411.411,0,0,0-.545.457l.549,3.145a.411.411,0,0,1-.264.457l-3,1.1a.411.411,0,0,0-.124.7l2.443,2.056a.411.411,0,0,1,.092.519L-53.4-20.96a.411.411,0,0,0,.356.616l3.193.005a.411.411,0,0,1,.4.339l.56,3.143a.411.411,0,0,0,.668.243l2.449-2.048a.411.411,0,0,1,.527,0l2.449,2.048a.411.411,0,0,0,.668-.243l.495-2.779A9.43,9.43,0,0,1-48.7-28.764" transform="translate(54.49 32.186)" fill="#00c285"/>
          </g>
          <g id="g6277" transform="translate(2.003 48.618)">
            <path id="path6279" d="M-72.518-1.723l-1.6,2.763a.411.411,0,0,1-.5.18l-3-1.087a.411.411,0,0,0-.545.457l.549,3.145a.411.411,0,0,1-.264.457l-3,1.1a.411.411,0,0,0-.124.7l2.443,2.056a.411.411,0,0,1,.092.519l-1.592,2.768a.411.411,0,0,0,.356.616l3.193.005a.411.411,0,0,1,.4.339l.559,3.143a.411.411,0,0,0,.668.243l2.449-2.048a.411.411,0,0,1,.527,0l2.449,2.048a.411.411,0,0,0,.668-.243l.56-3.143a.411.411,0,0,1,.4-.339l3.193-.005a.411.411,0,0,0,.355-.616l-1.592-2.768a.411.411,0,0,1,.092-.519l2.443-2.056a.411.411,0,0,0-.124-.7l-3-1.1a.411.411,0,0,1-.264-.457L-66.164.59a.411.411,0,0,0-.545-.457l-3,1.087a.411.411,0,0,1-.5-.18l-1.6-2.763A.411.411,0,0,0-72.518-1.723Z" transform="translate(81.145 1.928)" fill="none" stroke="#000" stroke-linecap="round" stroke-linejoin="round" stroke-miterlimit="10" stroke-width="1"/>
          </g>
          <g id="g6281" transform="translate(9.072 55.803)">
            <path id="path6283" d="M0,0H3.827" transform="translate(0 0)" fill="none" stroke="#000" stroke-linecap="round" stroke-linejoin="round" stroke-miterlimit="10" stroke-width="1"/>
          </g>
          <g id="g6285" transform="translate(8.118 59.088)">
            <path id="path6287" d="M-48.2,0h-5.734" transform="translate(53.937)" fill="none" stroke="#000" stroke-linecap="round" stroke-linejoin="round" stroke-miterlimit="10" stroke-width="1"/>
          </g>
          <g id="g6289" transform="translate(50.512 9.086)">
            <path id="path6291" d="M-168.625-132.62v-15.123a.653.653,0,0,0-.653-.652H-184.4a.652.652,0,0,0-.652.652v4.843a.652.652,0,0,1-.326.565l-3.092,1.785a.425.425,0,0,0,0,.737l3.092,1.785a.652.652,0,0,1,.326.565v4.843a.652.652,0,0,0,.652.652h15.123a.653.653,0,0,0,.653-.652" transform="translate(188.684 148.396)" fill="#fff3de"/>
          </g>
          <g id="g6293" transform="translate(50.512 9.086)">
            <path id="path6295" d="M-67.5-132.62v-15.123a.652.652,0,0,1,.652-.652h-4.4a.652.652,0,0,0-.652.652v4.843a.652.652,0,0,1-.326.565l-3.092,1.785a.425.425,0,0,0,0,.737l3.092,1.785a.652.652,0,0,1,.326.565v4.843a.652.652,0,0,0,.652.652h4.4a.652.652,0,0,1-.652-.652" transform="translate(75.526 148.396)" fill="#ffe5c2"/>
          </g>
          <g id="g6297" transform="translate(50.512 9.086)">
            <path id="path6299" d="M-99.67,0h-7.573a.652.652,0,0,0-.652.652V5.5a.652.652,0,0,1-.326.565l-3.092,1.785a.425.425,0,0,0,0,.737l3.092,1.785a.652.652,0,0,1,.326.565v4.843a.652.652,0,0,0,.652.652H-92.12a.652.652,0,0,0,.652-.652V.652A.652.652,0,0,0-92.12,0h-2.589" transform="translate(111.526)" fill="none" stroke="#000" stroke-linecap="round" stroke-linejoin="round" stroke-miterlimit="10" stroke-width="1"/>
          </g>
          <g id="g6301" transform="translate(57.906 13.855)">
            <path id="path6303" d="M-70.534-5.06h0a2.055,2.055,0,0,0-2.906,0l-.988.988-.988-.988a2.055,2.055,0,0,0-2.906,0,2.055,2.055,0,0,0,0,2.906l3.894,3.894,3.894-3.894a2.055,2.055,0,0,0,0-2.906" transform="translate(78.924 5.662)" fill="#fd4755"/>
          </g>
          <g id="g6305" transform="translate(57.906 13.855)">
            <path id="path6307" d="M-70.534-5.06h0a2.055,2.055,0,0,0-2.906,0l-.988.988-.988-.988a2.055,2.055,0,0,0-2.906,0,2.055,2.055,0,0,0,0,2.906l3.894,3.894,3.894-3.894A2.055,2.055,0,0,0-70.534-5.06Z" transform="translate(78.924 5.662)" fill="none" stroke="#000" stroke-linecap="round" stroke-linejoin="round" stroke-miterlimit="10" stroke-width="1"/>
          </g>
        </g>
      </g>
    </g>
  </g>
</svg>
