<svg xmlns="http://www.w3.org/2000/svg" xmlns:xlink="http://www.w3.org/1999/xlink" width="101" height="101" viewBox="0 0 101 101">
  <defs>
    <clipPath id="clip-path">
      <rect id="Rectangle_412428" data-name="Rectangle 412428" width="98.343" height="98.343" fill="none"/>
    </clipPath>
  </defs>
  <g id="Group_1220838" data-name="Group 1220838" transform="translate(6796 -1201)">
    <rect id="Rectangle_412423" data-name="Rectangle 412423" width="101" height="101" transform="translate(-6796 1201)" fill="none"/>
    <g id="Group_1220831" data-name="Group 1220831" transform="translate(-6793.343 1202.119)">
      <g id="Group_1220830" data-name="Group 1220830" clip-path="url(#clip-path)">
        <path id="Path_1242813" data-name="Path 1242813" d="M51.015,8.75A42.639,42.639,0,1,1,8.376,51.389,42.639,42.639,0,0,1,51.015,8.75" transform="translate(-6.612 -6.908)" fill="#3079e6"/>
        <path id="Path_1242814" data-name="Path 1242814" d="M74.7,38.753A36.322,36.322,0,1,1,38.379,75.075,36.322,36.322,0,0,1,74.7,38.753" transform="translate(-30.299 -30.594)" fill="#bce4f8"/>
        <path id="Path_1242815" data-name="Path 1242815" d="M71.543,38.826A36.5,36.5,0,0,0,38.158,72.969a36.085,36.085,0,0,0,7.517,24.178H72.9A25.268,25.268,0,0,0,98.168,71.879V47.512a36.227,36.227,0,0,0-26.626-8.686" transform="translate(-30.078 -30.556)" fill="#e4f5fd"/>
        <path id="Path_1242816" data-name="Path 1242816" d="M76.724,106.259h44.113a.842.842,0,0,1,.842.842v26.742a.842.842,0,0,1-.842.842H76.724a.842.842,0,0,1-.842-.842V107.1a.842.842,0,0,1,.842-.842" transform="translate(-59.905 -83.887)" fill="#fff"/>
        <path id="Path_1242817" data-name="Path 1242817" d="M143.388,143.762v28.426l18.951-14.213Z" transform="translate(-113.198 -113.494)" fill="#2763bb"/>
        <path id="Path_1242818" data-name="Path 1242818" d="M143.388,166.264v18.951l12.634-9.475Z" transform="translate(-113.198 -131.258)" fill="#3079e6"/>
        <path id="Path_1242819" data-name="Path 1242819" d="M283.928,263.773A20.53,20.53,0,1,1,263.4,284.3a20.53,20.53,0,0,1,20.53-20.53" transform="translate(-207.941 -208.237)" fill="#bce4f8"/>
        <path id="Path_1242820" data-name="Path 1242820" d="M284.028,263.773a20.53,20.53,0,0,0-16.156,33.164h22.473a7.9,7.9,0,0,0,7.9-7.9V269.506a20.53,20.53,0,0,0-14.213-5.733" transform="translate(-208.041 -208.237)" fill="#e4f5fd"/>
        <path id="Path_1242821" data-name="Path 1242821" d="M294.033,308.777h24a.632.632,0,0,1,.632.632v14.529a.632.632,0,0,1-.632.632h-24a.632.632,0,0,1-.632-.632V309.409a.632.632,0,0,1,.632-.632" transform="translate(-231.627 -243.766)" fill="#fff"/>
        <path id="Path_1242822" data-name="Path 1242822" d="M218.394,143.762v28.426l18.951-14.213Z" transform="translate(-172.412 -113.494)" fill="#2763bb"/>
        <path id="Path_1242823" data-name="Path 1242823" d="M218.394,166.264v18.951l12.634-9.475Z" transform="translate(-172.412 -131.258)" fill="#3079e6"/>
        <path id="Path_1242824" data-name="Path 1242824" d="M239.32,92.839h3.158a31.584,31.584,0,0,0-31.584-31.584v3.158A28.426,28.426,0,0,1,239.32,92.839" transform="translate(-166.491 -48.358)"/>
        <path id="Path_1242825" data-name="Path 1242825" d="M322.264,286.607a1.579,1.579,0,0,0-1.579,0l-12.634,6.317a1.58,1.58,0,0,0-.837,1.342V305.6a4.737,4.737,0,1,0,3.159,4.453v-6.917l9.475-4.738v4.043a4.738,4.738,0,1,0,3.158,4.453V287.949a1.579,1.579,0,0,0-.742-1.342m-16.629,25.031a1.579,1.579,0,1,1,1.579-1.579,1.579,1.579,0,0,1-1.579,1.579m4.738-12.034v-4.359l9.475-4.738v4.359Zm7.9,8.875a1.579,1.579,0,1,1,1.579-1.579,1.579,1.579,0,0,1-1.579,1.579" transform="translate(-237.544 -226.096)"/>
        <path id="Path_1242826" data-name="Path 1242826" d="M86.836,56.831A44.313,44.313,0,1,0,56.831,86.836,22.109,22.109,0,1,0,86.836,56.831M44.4,85.541A41.155,41.155,0,1,1,83.883,55.536a24.693,24.693,0,0,0-3.016-.932,37.98,37.98,0,1,0-26.42,26.4,24.67,24.67,0,0,0,1.011,2.953A41.282,41.282,0,0,1,44.4,85.541m9.475-9.475a11.47,11.47,0,0,0,.095,1.8A34.743,34.743,0,1,1,77.787,54.052a11.444,11.444,0,0,0-1.8-.095A22.109,22.109,0,0,0,53.878,76.066M75.987,95.017A18.951,18.951,0,1,1,94.938,76.066,18.951,18.951,0,0,1,75.987,95.017" transform="translate(0 0)"/>
        <path id="Path_1242827" data-name="Path 1242827" d="M173.788,152.064a1.579,1.579,0,0,0-.632-1.263l-18.951-14.213a1.583,1.583,0,0,0-2.527,1.263v8.686l-13.266-9.949a1.583,1.583,0,0,0-2.527,1.263v28.426a1.583,1.583,0,0,0,2.527,1.263l13.266-9.949v8.686a1.583,1.583,0,0,0,2.527,1.263l18.951-14.213a1.58,1.58,0,0,0,.632-1.263m-34.743,11.055V141.01l12.634,9.475v3.158Zm15.792,0V141.01l14.734,11.054Z" transform="translate(-107.277 -107.583)"/>
      </g>
    </g>
  </g>
</svg>
