<svg xmlns="http://www.w3.org/2000/svg" width="76.345" height="76.345" viewBox="0 0 76.345 76.345">
  <g id="Group_1220785" data-name="Group 1220785" transform="translate(-1021.967 -3093)">
    <g id="Group_1200255" data-name="Group 1200255" transform="translate(0 0.345)">
      <g id="Group_1187152" data-name="Group 1187152">
        <g id="Group_1185946" data-name="Group 1185946" transform="translate(-3.07)">
          <g id="Group_1184280" data-name="Group 1184280">
            <g id="Group_1182168" data-name="Group 1182168">
              <g id="Group_1178877" data-name="Group 1178877">
                <g id="Group_1111311" data-name="Group 1111311">
                  <g id="Group_1098742" data-name="Group 1098742" transform="translate(1025.482 3093.101)">
                    <g id="Rectangle_400898" data-name="Rectangle 400898" transform="translate(-0.445 -0.445)" fill="#c8a0e6" stroke="#8b6fa0" stroke-width="1" opacity="0.859">
                      <rect width="76.345" height="76.345" rx="38.172" stroke="none"/>
                      <rect x="0.5" y="0.5" width="75.345" height="75.345" rx="37.672" fill="none"/>
                    </g>
                    <g id="Rectangle_400907" data-name="Rectangle 400907" transform="translate(-0.446 -0.445)" fill="none" stroke="#8b6fa0" stroke-width="1">
                      <rect width="76.345" height="76.345" rx="38.172" stroke="none"/>
                      <rect x="0.5" y="0.5" width="75.345" height="75.345" rx="37.672" fill="none"/>
                    </g>
                  </g>
                </g>
              </g>
            </g>
          </g>
        </g>
      </g>
    </g>
    <g id="Layer_1" transform="translate(1023.729 3087.621)">
      <g id="Group_1200415" data-name="Group 1200415" transform="translate(2.83 7.379)">
        <path id="Path_1241440" data-name="Path 1241440" d="M79.361,79.714v35.309H22.86V79.714a2.686,2.686,0,0,1,2.687-2.687h16.46a11.312,11.312,0,0,0,4.63,3.673,11.1,11.1,0,0,0,3.085.836v1.572a1.389,1.389,0,1,0,2.778,0V81.536a11.1,11.1,0,0,0,3.085-.836,11.312,11.312,0,0,0,4.63-3.673h16.46a2.686,2.686,0,0,1,2.687,2.687Z" transform="translate(-17.478 -58.313)" fill="#aeaeae"/>
        <g id="Group_1200414" data-name="Group 1200414" transform="translate(5.382 18.714)">
          <path id="Path_1241441" data-name="Path 1241441" d="M92.607,80.7H88.95a13.22,13.22,0,0,1-3.23-3.673h2.257A11.312,11.312,0,0,0,92.607,80.7Z" transform="translate(-68.83 -77.027)" fill="#868686"/>
          <path id="Path_1241442" data-name="Path 1241442" d="M151.537,77.027A13.243,13.243,0,0,1,148.31,80.7h-3.66a11.312,11.312,0,0,0,4.63-3.673Z" transform="translate(-111.926 -77.027)" fill="#868686"/>
          <path id="Path_1241443" data-name="Path 1241443" d="M22.86,211.431h56.5v1.881H22.86Z" transform="translate(-22.86 -175.317)" fill="#868686"/>
        </g>
        <path id="Path_1241444" data-name="Path 1241444" d="M85.685,91.234v29.578a.539.539,0,0,1-.537.537H37.067a.539.539,0,0,1-.537-.537V91.234a.537.537,0,0,1,.537-.537H56.634a11.1,11.1,0,0,0,3.085.836V93.1a1.389,1.389,0,1,0,2.778,0V91.533a11.1,11.1,0,0,0,3.085-.836H85.147A.537.537,0,0,1,85.685,91.234Z" transform="translate(-27.475 -68.31)" fill="#efbf27"/>
        <path id="Path_1241445" data-name="Path 1241445" d="M114,90.7a13.166,13.166,0,0,1-4.863,2.394V93.1a3.27,3.27,0,1,1-6.54-.013A13.154,13.154,0,0,1,97.74,90.7H101.4a11.1,11.1,0,0,0,3.085.836V93.1a1.389,1.389,0,1,0,2.778,0V91.533a11.1,11.1,0,0,0,3.085-.836Z" transform="translate(-72.238 -68.31)" fill="#e8a61e"/>
        <path id="Path_1241446" data-name="Path 1241446" d="M82.312,118.625h24.552v18.359H82.312Z" transform="translate(-60.956 -88.734)" fill="#eee"/>
        <path id="Path_1241447" data-name="Path 1241447" d="M102.8,143.009l-5.076,5.772L89.652,139.6l-7.34,8.347v4.374h24.552v-4.7Z" transform="translate(-60.956 -104.077)" fill="#13bf6d"/>
        <circle id="Ellipse_12347" data-name="Ellipse 12347" cx="2.392" cy="2.392" r="2.392" transform="translate(33.957 33.039)" fill="#f0c020"/>
        <path id="Path_1241448" data-name="Path 1241448" d="M65.879,225.875H10.707A5.374,5.374,0,0,1,5.333,220.5v-1.528a.537.537,0,0,1,.537-.537H70.715a.537.537,0,0,1,.537.537V220.5A5.374,5.374,0,0,1,65.879,225.875Z" transform="translate(-4.66 -161.726)" fill="#aeaeae"/>
        <path id="Path_1241449" data-name="Path 1241449" d="M108.515,21.2a11.322,11.322,0,0,1-6.844,10.4,11.1,11.1,0,0,1-3.085.836V34a1.389,1.389,0,1,1-2.778,0V32.428a11.1,11.1,0,0,1-3.085-.836,11.319,11.319,0,1,1,15.791-10.4Z" transform="translate(-63.565 -9.206)" fill="#efefef"/>
        <path id="Path_1241450" data-name="Path 1241450" d="M186.158,147.076c-.308-1.329-.512-2.207-2.308-2.8a.715.715,0,0,1,0-1.357c1.081-.357,1.8-.594,2.308-2.8a.715.715,0,0,1,1.392,0c.524,2.257,1.307,2.47,2.308,2.8a.715.715,0,0,1,0,1.357c-1.043.344-1.8.594-2.308,2.8a.715.715,0,0,1-1.392,0Z" transform="translate(-134.853 -104.05)"/>
        <path id="Path_1241451" data-name="Path 1241451" d="M194.424,151.285a3.517,3.517,0,0,0-1.056,1.193,3.709,3.709,0,0,0-1.12-1.185,3.549,3.549,0,0,0,1.11-1.244,3.649,3.649,0,0,0,1.067,1.236Z" transform="translate(-141.353 -111.714)" fill="#eee"/>
        <path id="Path_1241452" data-name="Path 1241452" d="M47.368,147.076c-.308-1.329-.512-2.207-2.308-2.8a.715.715,0,0,1,0-1.357c1.081-.357,1.8-.594,2.308-2.8a.715.715,0,0,1,1.392,0c.524,2.257,1.307,2.47,2.308,2.8a.715.715,0,0,1,0,1.357c-1.043.344-1.8.594-2.308,2.8a.715.715,0,0,1-1.392,0Z" transform="translate(-33.355 -104.05)"/>
        <path id="Path_1241453" data-name="Path 1241453" d="M55.634,151.285a3.517,3.517,0,0,0-1.056,1.193,3.709,3.709,0,0,0-1.12-1.185,3.549,3.549,0,0,0,1.11-1.244A3.649,3.649,0,0,0,55.634,151.285Z" transform="translate(-39.855 -111.714)" fill="#eee"/>
        <circle id="Ellipse_12348" data-name="Ellipse 12348" cx="2.102" cy="2.102" r="2.102" transform="translate(27.233 9.726)" fill="#efefef"/>
        <circle id="Ellipse_12349" data-name="Ellipse 12349" cx="2.102" cy="2.102" r="2.102" transform="translate(34.301 5.229)" fill="#efefef"/>
        <circle id="Ellipse_12350" data-name="Ellipse 12350" cx="2.102" cy="2.102" r="2.102" transform="translate(34.301 14.223)" fill="#efefef"/>
        <circle id="Ellipse_12351" data-name="Ellipse 12351" cx="2.102" cy="2.102" r="2.102" transform="translate(27.233 9.726)" fill="#fc5d3d"/>
        <circle id="Ellipse_12352" data-name="Ellipse 12352" cx="2.102" cy="2.102" r="2.102" transform="translate(34.301 5.229)" fill="#efbf27"/>
        <circle id="Ellipse_12353" data-name="Ellipse 12353" cx="2.102" cy="2.102" r="2.102" transform="translate(34.301 14.223)" fill="#72c2e9"/>
        <path id="Path_1241454" data-name="Path 1241454" d="M88.483,193.62h-.806a.672.672,0,1,1,0-1.343h.806a.672.672,0,0,1,0,1.343Zm-3.493,0H44.7a.672.672,0,0,1,0-1.343H84.99a.672.672,0,1,1,0,1.343Z" transform="translate(-32.96 -142.596)" fill="#f7e4b0"/>
        <path id="Path_1241455" data-name="Path 1241455" d="M132.837,130.9a3.064,3.064,0,1,0-3.064,3.064A3.068,3.068,0,0,0,132.837,130.9Zm-4.785,0a1.721,1.721,0,1,1,1.721,1.721A1.723,1.723,0,0,1,128.052,130.9Z" transform="translate(-93.423 -95.472)"/>
        <circle id="Ellipse_12354" data-name="Ellipse 12354" cx="0.672" cy="0.672" r="0.672" transform="translate(20.684 34.062)"/>
        <path id="Path_1241456" data-name="Path 1241456" d="M79.81,116.794v2.155a.672.672,0,1,0,1.343,0v-1.486h23.21v11.21l-2.888-3.283a.694.694,0,0,0-1.009,0l-4.572,5.2-7.567-8.6a.694.694,0,0,0-1.009,0L81.153,129v-4.674a.672.672,0,0,0-1.343,0v10.829a.671.671,0,0,0,.672.672h24.553a.671.671,0,0,0,.672-.672V116.794a.675.675,0,0,0-.672-.674H80.482a.675.675,0,0,0-.672.674Zm1.343,14.237,6.669-7.584L95,131.606l-2.528,2.874H81.153Zm13.108,3.448,6.709-7.628,3.393,3.857v3.772Z" transform="translate(-59.126 -86.902)"/>
        <circle id="Ellipse_12355" data-name="Ellipse 12355" cx="0.672" cy="0.672" r="0.672" transform="translate(4.71 40.372)"/>
        <circle id="Ellipse_12356" data-name="Ellipse 12356" cx="0.672" cy="0.672" r="0.672" transform="translate(55.174 63.476)"/>
        <path id="Path_1241457" data-name="Path 1241457" d="M68.886,63.418h-3.5V28.781a3.363,3.363,0,0,0-3.359-3.359H46.812A11.99,11.99,0,0,0,36.462,7.379h0A11.906,11.906,0,0,0,29.5,9.606a.674.674,0,0,0-.156.938.689.689,0,0,0,.938.156v0a10.647,10.647,0,1,1,7.491,19.236.678.678,0,0,0-.591.668h0v1.571a.717.717,0,0,1-1.435,0V30.6a.681.681,0,0,0-.591-.668A10.651,10.651,0,0,1,27,14.486a.672.672,0,0,0-.288-.905.683.683,0,0,0-.905.29,12.033,12.033,0,0,0-1.333,5.5,11.875,11.875,0,0,0,1.64,6.051H10.9A3.363,3.363,0,0,0,7.54,28.78V45.735a.672.672,0,0,0,1.343,0V28.78A2.021,2.021,0,0,1,10.9,26.765H27.026a12.4,12.4,0,0,0,2.434,2.329H12.422A1.211,1.211,0,0,0,11.213,30.3V59.881a1.211,1.211,0,0,0,1.209,1.209H60.5a1.211,1.211,0,0,0,1.209-1.209V30.3A1.211,1.211,0,0,0,60.5,29.094H43.467A12.536,12.536,0,0,0,45.9,26.766H62.026a2.021,2.021,0,0,1,2.015,2.015V63.418H8.883V51.109a.672.672,0,0,0-1.343,0V63.418h-3.5A1.213,1.213,0,0,0,2.83,64.627v1.526A6.055,6.055,0,0,0,8.876,72.2H55.988a.672.672,0,0,0,0-1.343H8.876a4.718,4.718,0,0,1-4.7-4.7V64.761H28.21v1.7a2.017,2.017,0,0,0,2.015,2.015H42.7a2.017,2.017,0,0,0,2.015-2.015v-1.7H68.752v1.392a4.718,4.718,0,0,1-4.7,4.7H61.363a.672.672,0,1,0,0,1.343h2.687A6.055,6.055,0,0,0,70.1,66.153V64.627A1.213,1.213,0,0,0,68.886,63.418Zm-8.518-3.671H12.557V30.438H31.851a11.61,11.61,0,0,0,1.657.549c.329.083.715.164.893.2v.991a2.061,2.061,0,1,0,4.122,0h0v-.991a12.447,12.447,0,0,0,2.55-.745H60.368V59.747Zm-17,6.718a.673.673,0,0,1-.672.672H30.225a.672.672,0,0,1-.672-.672v-1.7H43.371Z" transform="translate(-2.83 -7.379)"/>
        <path id="Path_1241458" data-name="Path 1241458" d="M93.821,22.177a.671.671,0,0,0,1.016.879.676.676,0,0,0-.067-.948A.693.693,0,0,0,93.821,22.177Z" transform="translate(-69.252 -18.036)"/>
        <path id="Path_1241459" data-name="Path 1241459" d="M104.453,28.838a2.773,2.773,0,1,0,1.907,4.782l2.534,1.61a2.786,2.786,0,1,0,.721-1.131l-2.532-1.612a2.732,2.732,0,0,0,0-1.753l2.532-1.612a2.779,2.779,0,1,0-.723-1.133L106.36,29.6A2.764,2.764,0,0,0,104.453,28.838Zm0,4.2a1.429,1.429,0,1,1,1.432-1.429A1.436,1.436,0,0,1,104.453,33.04Zm7.069,1.636a1.431,1.431,0,1,1-1.429,1.432A1.436,1.436,0,0,1,111.522,34.677Zm0-8.993a1.431,1.431,0,1,1-1.429,1.429,1.438,1.438,0,0,1,1.429-1.429Z" transform="translate(-75.12 -19.783)"/>
      </g>
    </g>
  </g>
</svg>
