<svg xmlns="http://www.w3.org/2000/svg" xmlns:xlink="http://www.w3.org/1999/xlink" width="101" height="101" viewBox="0 0 101 101">
  <defs>
    <clipPath id="clip-path">
      <rect id="Rectangle_412403" data-name="Rectangle 412403" width="101" height="96.597" fill="none"/>
    </clipPath>
  </defs>
  <g id="Group_1220814" data-name="Group 1220814" transform="translate(6795 9483)">
    <rect id="Rectangle_412407" data-name="Rectangle 412407" width="101" height="101" transform="translate(-6795 -9483)" fill="none"/>
    <g id="Group_1220803" data-name="Group 1220803" transform="translate(-6795 -9483)">
      <g id="Group_1220802" data-name="Group 1220802" clip-path="url(#clip-path)">
        <path id="Path_1242663" data-name="Path 1242663" d="M224.158,25.754V9.312a9.311,9.311,0,1,0-18.623,0V25.754Z" transform="translate(-164.346)" fill="#3a313a"/>
        <path id="Path_1242664" data-name="Path 1242664" d="M228.058,128.514v32.133c0,4.4-8.007,12.663-8.007,12.663s-8.007-8.259-8.007-12.663V128.514Z" transform="translate(-169.55 -102.76)" fill="#dedbee"/>
        <path id="Path_1242665" data-name="Path 1242665" d="M198.942,121.741H169.5a2.265,2.265,0,0,1,0-4.53h29.445a2.265,2.265,0,0,1,0,4.53" transform="translate(-133.719 -93.722)" fill="#3a313a"/>
        <path id="Path_1242666" data-name="Path 1242666" d="M19.429,92.819a31.064,31.064,0,0,1,7.054-17.03L12.746,62.052A50.375,50.375,0,0,0,0,92.819Z" transform="translate(0 -49.617)" fill="#ffd15b"/>
        <path id="Path_1242667" data-name="Path 1242667" d="M26.483,261.5a31.064,31.064,0,0,1-7.054-17.03H0a50.374,50.374,0,0,0,12.746,30.767Z" transform="translate(0 -195.477)" fill="#6fd7a3"/>
        <path id="Path_1242668" data-name="Path 1242668" d="M378.9,244.466a31.063,31.063,0,0,1-7.054,17.03l13.737,13.737a50.377,50.377,0,0,0,12.745-30.767Z" transform="translate(-297.332 -195.476)" fill="#9257ff"/>
        <path id="Path_1242669" data-name="Path 1242669" d="M371.849,75.789a31.064,31.064,0,0,1,7.054,17.03h19.429a50.374,50.374,0,0,0-12.746-30.767Z" transform="translate(-297.332 -49.617)" fill="#fd4755"/>
        <path id="Path_1242670" data-name="Path 1242670" d="M114.8,356.93a31.063,31.063,0,0,1-17.03-7.054L84.028,363.613A50.378,50.378,0,0,0,114.8,376.359Z" transform="translate(-67.189 -279.762)" fill="#01d0fb"/>
        <path id="Path_1242671" data-name="Path 1242671" d="M283.475,349.873a31.062,31.062,0,0,1-17.03,7.054v19.429a50.376,50.376,0,0,0,30.767-12.746Z" transform="translate(-213.05 -279.759)" fill="#09176b"/>
        <path id="Path_1242672" data-name="Path 1242672" d="M218.075,25.341V12.967a7.508,7.508,0,1,1,15.016,0V25.341Z" transform="translate(-174.373 -4.365)" fill="#685e68"/>
        <path id="Path_1242673" data-name="Path 1242673" d="M230.788,183.344c-3.113-3.5-6.2-7.89-6.2-10V145.275h12.407V173.34c0,2.115-3.091,6.5-6.2,10" transform="translate(-179.578 -116.162)" fill="#f9f7f8"/>
        <path id="Path_1242674" data-name="Path 1242674" d="M180.234,123.593a.461.461,0,1,1,0-.923h29.445a.461.461,0,0,1,0,.923Z" transform="translate(-143.746 -98.087)" fill="#685e68"/>
        <path id="Path_1242675" data-name="Path 1242675" d="M13.254,98.057a49.1,49.1,0,0,1,10.9-26.311L35.381,82.972a32.849,32.849,0,0,0-6.249,15.085Z" transform="translate(-10.598 -57.368)" fill="#fee45a"/>
        <path id="Path_1242676" data-name="Path 1242676" d="M24.155,276.239a49.1,49.1,0,0,1-10.9-26.311H29.132a32.853,32.853,0,0,0,6.249,15.085Z" transform="translate(-10.598 -199.842)" fill="#9be69d"/>
        <path id="Path_1242677" data-name="Path 1242677" d="M387.413,265.01a32.849,32.849,0,0,0,6.249-15.085H409.54a49.1,49.1,0,0,1-10.9,26.311Z" transform="translate(-309.777 -199.841)" fill="#be9bff"/>
        <path id="Path_1242678" data-name="Path 1242678" d="M393.661,98.057a32.855,32.855,0,0,0-6.249-15.085l11.226-11.226a49.1,49.1,0,0,1,10.9,26.311Z" transform="translate(-309.776 -57.368)" fill="#fe646f"/>
        <path id="Path_1242679" data-name="Path 1242679" d="M127.116,380.482a49.1,49.1,0,0,1-26.312-10.9l11.226-11.226a32.85,32.85,0,0,0,15.085,6.249Z" transform="translate(-80.603 -286.542)" fill="#62dbfb"/>
        <path id="Path_1242680" data-name="Path 1242680" d="M278.985,364.6a32.852,32.852,0,0,0,15.085-6.249L305.3,369.58a49.1,49.1,0,0,1-26.311,10.9Z" transform="translate(-223.077 -286.541)" fill="#09176b"/>
      </g>
    </g>
  </g>
</svg>
