<svg xmlns="http://www.w3.org/2000/svg" xmlns:xlink="http://www.w3.org/1999/xlink" width="101" height="101" viewBox="0 0 101 101">
  <defs>
    <clipPath id="clip-path">
      <rect id="Rectangle_412404" data-name="Rectangle 412404" width="101" height="101" fill="none"/>
    </clipPath>
  </defs>
  <g id="Group_1220812" data-name="Group 1220812" transform="translate(6416 9483)">
    <rect id="Rectangle_412409" data-name="Rectangle 412409" width="101" height="101" transform="translate(-6416 -9483)" fill="none"/>
    <g id="Group_1220805" data-name="Group 1220805" transform="translate(-6416 -9483)">
      <g id="Group_1220804" data-name="Group 1220804" clip-path="url(#clip-path)">
        <path id="Path_1242681" data-name="Path 1242681" d="M62.581,60.087h69.944a2.493,2.493,0,0,1,2.493,2.493v69.944a2.493,2.493,0,0,1-2.493,2.493H62.581a2.493,2.493,0,0,1-2.493-2.493V62.58a2.493,2.493,0,0,1,2.493-2.493" transform="translate(-47.053 -47.052)" fill="#fcf5f0"/>
        <path id="Path_1242682" data-name="Path 1242682" d="M120.151,145.55H81.471a18.117,18.117,0,0,1-18.133-18.1V88.738a18.117,18.117,0,0,1,3.8-11.047,18.085,18.085,0,0,0-7.054,14.345V130.7A18.117,18.117,0,0,0,78.22,148.8h38.664a18.086,18.086,0,0,0,14.345-7.054,18.116,18.116,0,0,1-11.078,3.8" transform="translate(-47.053 -60.837)" fill="#f9ece4"/>
        <path id="Path_1242683" data-name="Path 1242683" d="M130.556,60.087H91.892a18.085,18.085,0,0,0-14.345,7.054,18.117,18.117,0,0,1,11.047-3.8h38.712a18.117,18.117,0,0,1,18.133,18.1V120.15a18.118,18.118,0,0,1-3.8,11.047,18.085,18.085,0,0,0,7.054-14.345V78.22a18.117,18.117,0,0,0-18.1-18.133h-.032" transform="translate(-60.724 -47.052)" fill="#fcf8f5"/>
        <path id="Path_1242684" data-name="Path 1242684" d="M190.624,172.7a8.175,8.175,0,0,1,5.76,2.383,67.484,67.484,0,0,0-12.436,8.869,31.343,31.343,0,0,0-8.869,12.436,8.174,8.174,0,0,1-2.383-5.76v-9.784a8.143,8.143,0,0,1,8.143-8.143Z" transform="translate(-135.232 -135.231)" fill="#e84b54"/>
        <path id="Path_1242685" data-name="Path 1242685" d="M204.812,237.141a8.1,8.1,0,0,1-5.587,2.241h-9.784a8.175,8.175,0,0,1-5.76-2.383,31.343,31.343,0,0,1,8.869-12.436,23.293,23.293,0,0,1,12.262,12.578" transform="translate(-143.833 -175.846)" fill="#c3e764"/>
        <path id="Path_1242686" data-name="Path 1242686" d="M239.383,189.27v9.784a8.048,8.048,0,0,1-2.557,5.9,23.292,23.292,0,0,0-12.262-12.625A67.469,67.469,0,0,1,237,183.463a8.175,8.175,0,0,1,2.383,5.807" transform="translate(-175.847 -143.663)" fill="#f9e6d7"/>
        <path id="Path_1242687" data-name="Path 1242687" d="M101,24.428V76.506A24.445,24.445,0,0,1,76.6,101H24.492A24.445,24.445,0,0,1,0,76.6c0-.011,0-.021,0-.032V24.491A24.445,24.445,0,0,1,24.4,0h52.11A24.445,24.445,0,0,1,101,24.4v.032m-13.035,45.4V31.167a18.117,18.117,0,0,0-18.1-18.133h-38.7a18.117,18.117,0,0,0-18.133,18.1v38.7a18.117,18.117,0,0,0,18.1,18.133h38.7a18.117,18.117,0,0,0,18.133-18.1v-.032" transform="translate(0 0.001)" fill="#5b1a6e"/>
        <path id="Path_1242688" data-name="Path 1242688" d="M111.017,52.594H72.353A19.774,19.774,0,0,0,52.6,72.352v38.664a19.774,19.774,0,0,0,19.758,19.758h38.664a19.774,19.774,0,0,0,19.758-19.758V72.352a19.774,19.774,0,0,0-19.758-19.758m16.507,58.391a16.523,16.523,0,0,1-16.507,16.539H72.353a16.523,16.523,0,0,1-16.507-16.507V72.352A16.523,16.523,0,0,1,72.353,55.845h38.664a16.523,16.523,0,0,1,16.507,16.507Z" transform="translate(-41.185 -41.184)" fill="#e1b5ec"/>
        <path id="Path_1242689" data-name="Path 1242689" d="M184.757,165.2h-9.784a9.784,9.784,0,0,0-9.769,9.769v9.784a9.753,9.753,0,0,0,9.737,9.769h9.816a9.8,9.8,0,0,0,9.769-9.769v-9.784a9.753,9.753,0,0,0-9.737-9.769h-.031m-3.74,12.5a69.566,69.566,0,0,1,9.106-6.407,6.5,6.5,0,0,1,1.152,3.677v9.784a6.551,6.551,0,0,1-.663,2.793,25.25,25.25,0,0,0-9.6-9.848m-12.625-2.73a6.533,6.533,0,0,1,6.518-6.518h9.784a6.469,6.469,0,0,1,2.73.631,68.074,68.074,0,0,0-10.495,7.8,36.4,36.4,0,0,0-8.1,10.195,6.808,6.808,0,0,1-.442-2.32Zm6.581,16.3a6.484,6.484,0,0,1-3.819-1.263,29.7,29.7,0,0,1,7.275-9.989,22.235,22.235,0,0,1,9.895,10.163,6.5,6.5,0,0,1-3.566,1.089Z" transform="translate(-129.365 -129.364)" fill="#5b1a6e"/>
        <path id="Path_1242690" data-name="Path 1242690" d="M198.035,187.058c1.458-1.048,3.279-1.009,4.068.088s.247,2.836-1.211,3.885-3.279,1.009-4.068-.088-.247-2.836,1.211-3.885" transform="translate(-153.841 -145.881)" fill="#f46775"/>
        <path id="Path_1242691" data-name="Path 1242691" d="M188.5,217.725a.821.821,0,1,1-.821.821.821.821,0,0,1,.821-.821" transform="translate(-146.966 -170.492)" fill="#f46775"/>
        <path id="Path_1242692" data-name="Path 1242692" d="M271.141,210.233a.821.821,0,1,1-.821.821.821.821,0,0,1,.821-.821" transform="translate(-211.677 -164.625)" fill="#f9ece4"/>
        <path id="Path_1242693" data-name="Path 1242693" d="M264.454,225.291a1.625,1.625,0,1,1-1.626,1.626,1.626,1.626,0,0,1,1.626-1.626" transform="translate(-205.81 -176.417)" fill="#f9ece4"/>
      </g>
    </g>
  </g>
</svg>
