<svg xmlns="http://www.w3.org/2000/svg" xmlns:xlink="http://www.w3.org/1999/xlink" width="101" height="101" viewBox="0 0 101 101">
  <defs>
    <clipPath id="clip-path">
      <rect id="Rectangle_412405" data-name="Rectangle 412405" width="89.713" height="101" fill="none"/>
    </clipPath>
  </defs>
  <g id="Group_1220810" data-name="Group 1220810" transform="translate(5932 9442)">
    <rect id="Rectangle_412412" data-name="Rectangle 412412" width="101" height="101" transform="translate(-5932 -9442)" fill="none"/>
    <g id="Group_1220807" data-name="Group 1220807" transform="translate(-5926.356 -9442)">
      <g id="Group_1220806" data-name="Group 1220806" clip-path="url(#clip-path)">
        <path id="Path_1242694" data-name="Path 1242694" d="M229.722,28.676a17.381,17.381,0,1,1-17.369-17.413,17.394,17.394,0,0,1,17.369,17.413" transform="translate(-168.665 -9.742)" fill="#ffd364"/>
        <path id="Path_1242695" data-name="Path 1242695" d="M202.609,37.868A18.934,18.934,0,1,1,221.5,18.934a18.945,18.945,0,0,1-18.888,18.934m0-34.826a15.891,15.891,0,1,0,15.849,15.891A15.9,15.9,0,0,0,202.609,3.043" transform="translate(-158.921)"/>
        <path id="Path_1242696" data-name="Path 1242696" d="M509.653,264.36a9.107,9.107,0,1,1-9.1-9.124,9.114,9.114,0,0,1,9.1,9.124" transform="translate(-425.155 -220.77)" fill="#fff"/>
        <path id="Path_1242697" data-name="Path 1242697" d="M490.807,265.265a10.645,10.645,0,1,1,10.619-10.646,10.652,10.652,0,0,1-10.619,10.646m0-18.247a7.6,7.6,0,1,0,7.58,7.6,7.606,7.606,0,0,0-7.58-7.6" transform="translate(-415.41 -211.029)"/>
        <path id="Path_1242698" data-name="Path 1242698" d="M545.246,26.543a8.468,8.468,0,1,1-8.462-8.484,8.474,8.474,0,0,1,8.462,8.484" transform="translate(-457.053 -15.62)" fill="#fff"/>
        <path id="Path_1242699" data-name="Path 1242699" d="M527.034,26.8a10,10,0,1,1,9.982-10,10.01,10.01,0,0,1-9.982,10m0-16.967a6.962,6.962,0,1,0,6.943,6.963,6.967,6.967,0,0,0-6.943-6.963" transform="translate(-447.303 -5.875)"/>
        <path id="Path_1242700" data-name="Path 1242700" d="M23.122,113.675a5.918,5.918,0,1,1-5.914-5.929,5.923,5.923,0,0,1,5.914,5.929" transform="translate(-9.763 -93.196)" fill="#fff"/>
        <path id="Path_1242701" data-name="Path 1242701" d="M7.458,111.385a7.45,7.45,0,1,1,7.434-7.451,7.454,7.454,0,0,1-7.434,7.451m0-11.858a4.408,4.408,0,1,0,4.395,4.408,4.41,4.41,0,0,0-4.395-4.408" transform="translate(-0.014 -83.455)"/>
        <path id="Path_1242702" data-name="Path 1242702" d="M70.469,177.037,60.5,195.308a5.909,5.909,0,0,1-4,3.061l-7.4,1.6-2.637,5.158L21.749,192.465l2.78-6.632L13,172.271a7.168,7.168,0,0,1,9.544-10.546l8.6,6,16.066-28.087a4.93,4.93,0,0,1,8.8,4.445L48.54,159.143l.848-1.66a4.821,4.821,0,0,1,5.248-2.677,4.642,4.642,0,0,1,3.1,6.63l-1.783,3.518a4.585,4.585,0,0,1,6.559-1.779,5.055,5.055,0,0,1,1.478,6.3l-1.338,2.65a4.621,4.621,0,0,1,6.363-1.4,5.058,5.058,0,0,1,1.459,6.307" transform="translate(-9.762 -118.459)" fill="#fff"/>
        <path id="Path_1242703" data-name="Path 1242703" d="M36.7,196.927a1.521,1.521,0,0,1-.691-.166L11.295,184.094a1.522,1.522,0,0,1-.708-1.943L13,176.38,2.082,163.532a8.689,8.689,0,0,1,11.573-12.779l7.236,5.051L36.132,129.16a6.448,6.448,0,0,1,11.476,5.882l-4.187,8.439a5.776,5.776,0,0,1,1.795.119,6.185,6.185,0,0,1,4.228,3.457,6.09,6.09,0,0,1,.34,4.168,6.132,6.132,0,0,1,3.779.943,6.489,6.489,0,0,1,2.582,6.612,6.161,6.161,0,0,1,3.912.937,6.576,6.576,0,0,1,2,8.288l-.018.036-9.968,18.273a7.376,7.376,0,0,1-5.014,3.819l-6.694,1.45L38.055,196.1a1.523,1.523,0,0,1-1.355.828m-22.766-14.9,22.107,11.329,1.945-3.8a1.525,1.525,0,0,1,1.033-.794l7.4-1.6a4.366,4.366,0,0,0,2.968-2.276L59.363,166.6a3.575,3.575,0,0,0-.938-4.318,3.089,3.089,0,0,0-4.266.945,1.52,1.52,0,0,1-2.63-1.515l1.34-2.651a3.572,3.572,0,0,0-.944-4.332,3.065,3.065,0,0,0-4.375,1.173l-.008.014a1.52,1.52,0,0,1-2.713-1.373.174.174,0,0,0,.014-.026l1.771-3.494a3.07,3.07,0,0,0,.065-2.7,3.165,3.165,0,0,0-2.161-1.759,3.276,3.276,0,0,0-3.536,1.882l-.853,1.668a1.521,1.521,0,0,1-2.715-1.371l7.471-15.055a3.389,3.389,0,0,0,.188-2.567,3.392,3.392,0,0,0-6.272-.507L22.7,158.76a1.519,1.519,0,0,1-2.186.491l-8.6-6a5.609,5.609,0,0,0-4.974-.745,5.656,5.656,0,0,0-2.548,9.051l11.531,13.566a1.522,1.522,0,0,1,.243,1.575Zm46.773-14.717h0Z" transform="translate(0 -108.734)"/>
        <line id="Line_626" data-name="Line 626" x1="2.107" y2="4.122" transform="translate(50.552 54.076)" fill="#fff"/>
        <path id="Path_1242704" data-name="Path 1242704" d="M365.049,396.349a1.52,1.52,0,0,1-1.352-2.215l2.105-4.12a1.521,1.521,0,1,1,2.707,1.387l-2.105,4.12a1.521,1.521,0,0,1-1.355.828" transform="translate(-314.499 -336.63)"/>
        <line id="Line_627" data-name="Line 627" x1="2.502" y2="4.655" transform="translate(43.675 46.498)" fill="#fff"/>
        <path id="Path_1242705" data-name="Path 1242705" d="M314.077,340.752a1.493,1.493,0,0,1-.718-.182,1.522,1.522,0,0,1-.617-2.06l2.5-4.655a1.519,1.519,0,1,1,2.675,1.442l-2.5,4.655a1.515,1.515,0,0,1-1.339.8" transform="translate(-270.403 -288.077)"/>
        <path id="Path_1242706" data-name="Path 1242706" d="M18.273,533.075l30.66,15.713a1.861,1.861,0,0,1,.807,2.5l-4.134,8.085a1.857,1.857,0,0,1-2.5.808L12.446,544.472a1.861,1.861,0,0,1-.807-2.5l4.133-8.085a1.857,1.857,0,0,1,2.5-.808" transform="translate(-9.892 -460.913)" fill="#986de7"/>
        <path id="Path_1242707" data-name="Path 1242707" d="M34.2,552.15a3.354,3.354,0,0,1-1.533-.372L2,536.063a3.382,3.382,0,0,1-1.466-4.552l4.131-8.084a3.377,3.377,0,0,1,4.549-1.466l30.657,15.711a3.382,3.382,0,0,1,1.466,4.552l-4.131,8.082A3.391,3.391,0,0,1,34.2,552.15M7.7,524.639a.38.38,0,0,0-.327.174L3.24,532.9a.329.329,0,0,0-.022.258.334.334,0,0,0,.166.2l30.663,15.715a.369.369,0,0,0,.453-.147l4.133-8.086a.328.328,0,0,0,.022-.257.335.335,0,0,0-.166-.2L7.828,524.668a0,0,0,0,0,0,0,.29.29,0,0,0-.127-.028" transform="translate(-0.139 -451.15)"/>
        <path id="Path_1242708" data-name="Path 1242708" d="M56.337,339.426l2.28,1.387a2.9,2.9,0,0,0,3.926-.873l2.137-3.211" transform="translate(-48.738 -291.258)" fill="#fff"/>
        <path id="Path_1242709" data-name="Path 1242709" d="M50.374,333.015a4.417,4.417,0,0,1-2.3-.648L45.8,330.981a1.521,1.521,0,0,1,1.579-2.6l2.279,1.387a1.381,1.381,0,0,0,1.874-.418l2.137-3.209a1.52,1.52,0,1,1,2.529,1.688l-2.137,3.211a4.416,4.416,0,0,1-3.682,1.975" transform="translate(-38.987 -281.514)"/>
        <line id="Line_628" data-name="Line 628" x1="3.27" y2="5.814" transform="translate(35.508 40.684)" fill="#986de7"/>
        <path id="Path_1242710" data-name="Path 1242710" d="M253.519,298.87A1.521,1.521,0,0,1,252.2,296.6l3.269-5.814a1.52,1.52,0,1,1,2.647,1.494l-3.269,5.814a1.519,1.519,0,0,1-1.326.775" transform="translate(-218.012 -250.851)"/>
        <line id="Line_629" data-name="Line 629" x2="10.702" y2="8.13" transform="translate(57.197 29.872)" fill="#ffd364"/>
        <path id="Path_1242711" data-name="Path 1242711" d="M425.019,221.119a1.516,1.516,0,0,1-.916-.309l-10.7-8.132a1.521,1.521,0,0,1,1.836-2.425l10.7,8.132a1.521,1.521,0,0,1-.92,2.734" transform="translate(-357.121 -181.595)"/>
        <line id="Line_630" data-name="Line 630" y1="2.31" x2="10.83" transform="translate(60.427 11.995)" fill="#ffd364"/>
        <path id="Path_1242712" data-name="Path 1242712" d="M438.267,82.887a1.521,1.521,0,0,1-.315-3.009l10.829-2.31a1.521,1.521,0,0,1,.633,2.976l-10.829,2.31a1.465,1.465,0,0,1-.319.034" transform="translate(-377.842 -67.061)"/>
        <line id="Line_631" data-name="Line 631" x1="12.937" y2="1.073" transform="translate(13.359 19.407)" fill="#ffd364"/>
        <path id="Path_1242713" data-name="Path 1242713" d="M89.292,136.564a1.521,1.521,0,0,1-.123-3.037l12.938-1.074a1.521,1.521,0,0,1,.249,3.031l-12.938,1.074c-.042,0-.085.006-.127.006" transform="translate(-75.936 -114.563)"/>
        <path id="Path_1242714" data-name="Path 1242714" d="M276.39,453.534a1.5,1.5,0,0,1-.7-.172l-14.5-7.55-2.18,3.752a1.52,1.52,0,1,1-2.628-1.529l2.911-5.006a1.512,1.512,0,0,1,2.014-.584l15.784,8.219a1.521,1.521,0,0,1-.7,2.87" transform="translate(-221.625 -382.548)"/>
        <path id="Path_1242715" data-name="Path 1242715" d="M219.91,486.783a5.366,5.366,0,1,1,5.35-5.355,5.359,5.359,0,0,1-5.35,5.355m0-7.688a2.323,2.323,0,1,0,2.311,2.334,2.324,2.324,0,0,0-2.311-2.334" transform="translate(-185.623 -411.767)"/>
        <path id="Path_1242716" data-name="Path 1242716" d="M190.066,373.809a5.181,5.181,0,1,1,5.164-5.17,5.174,5.174,0,0,1-5.164,5.17m0-7.32a2.138,2.138,0,1,0,2.125,2.149,2.141,2.141,0,0,0-2.125-2.149" transform="translate(-159.961 -314.367)"/>
        <path id="Path_1242717" data-name="Path 1242717" d="M154.247,359.889a1.5,1.5,0,0,1-.762-.206l-5.414-3.146a1.521,1.521,0,0,1,1.528-2.631l5.413,3.146a1.522,1.522,0,0,1-.766,2.837" transform="translate(-127.447 -305.937)"/>
      </g>
    </g>
  </g>
</svg>
